<?xml version="1.0" encoding="utf-8" standalone="no"?>
<!DOCTYPE svg PUBLIC "-//W3C//DTD SVG 1.1//EN"
  "http://www.w3.org/Graphics/SVG/1.1/DTD/svg11.dtd">
<svg xmlns:xlink="http://www.w3.org/1999/xlink" width="432pt" height="324pt" viewBox="0 0 432 324" xmlns="http://www.w3.org/2000/svg" version="1.1">
 <metadata>
  <rdf:RDF xmlns:dc="http://purl.org/dc/elements/1.1/" xmlns:cc="http://creativecommons.org/ns#" xmlns:rdf="http://www.w3.org/1999/02/22-rdf-syntax-ns#">
   <cc:Work>
    <dc:type rdf:resource="http://purl.org/dc/dcmitype/StillImage"/>
    <dc:date>2025-04-08T10:19:10.939925</dc:date>
    <dc:format>image/svg+xml</dc:format>
    <dc:creator>
     <cc:Agent>
      <dc:title>Matplotlib v3.9.2, https://matplotlib.org/</dc:title>
     </cc:Agent>
    </dc:creator>
   </cc:Work>
  </rdf:RDF>
 </metadata>
 <defs>
  <style type="text/css">*{stroke-linejoin: round; stroke-linecap: butt}</style>
 </defs>
 <g id="figure_1">
  <g id="patch_1">
   <path d="M 0 324 
L 432 324 
L 432 0 
L 0 0 
z
" style="fill: #ffffff"/>
  </g>
  <g id="axes_1">
   <g id="patch_2">
    <path d="M 54 288.36 
L 388.8 288.36 
L 388.8 38.88 
L 54 38.88 
z
" style="fill: #ffffff"/>
   </g>
   <g id="PolyCollection_1">
    <defs>
     <path id="mf84840d66d" d="M 137.7 -101.019591 
L 132.896226 -101.019591 
L 131.570418 -102.076103 
L 129.974123 -103.132614 
L 128.080489 -104.189126 
L 125.86778 -105.245638 
L 123.321696 -106.30215 
L 120.437733 -107.358661 
L 117.223386 -108.415173 
L 113.70001 -109.471685 
L 109.904097 -110.528197 
L 105.887778 -111.584708 
L 101.718362 -112.64122 
L 97.476789 -113.697732 
L 93.25494 -114.754244 
L 89.151858 -115.810755 
L 85.269009 -116.867267 
L 81.704834 -117.923779 
L 78.548936 -118.980291 
L 75.876293 -120.036802 
L 73.741979 -121.093314 
L 72.176821 -122.149826 
L 71.184439 -123.206338 
L 70.74 -124.262849 
L 70.790926 -125.319361 
L 71.259628 -126.375873 
L 72.048187 -127.432385 
L 73.044736 -128.488897 
L 74.13112 -129.545408 
L 75.191292 -130.60192 
L 76.119815 -131.658432 
L 76.829782 -132.714944 
L 77.259511 -133.771455 
L 77.377421 -134.827967 
L 77.184666 -135.884479 
L 76.715246 -136.940991 
L 76.033562 -137.997502 
L 75.229577 -139.054014 
L 74.411962 -140.110526 
L 73.699811 -141.167038 
L 73.213582 -142.223549 
L 73.066054 -143.280061 
L 73.354017 -144.336573 
L 74.151383 -145.393085 
L 75.504224 -146.449596 
L 77.428089 -147.506108 
L 79.907692 -148.56262 
L 82.8989 -149.619132 
L 86.332688 -150.675643 
L 90.120624 -151.732155 
L 94.16132 -152.788667 
L 98.347236 -153.845179 
L 102.571282 -154.90169 
L 106.732698 -155.958202 
L 110.741846 -157.014714 
L 114.523659 -158.071226 
L 118.019676 -159.127737 
L 121.188687 -160.184249 
L 124.006166 -161.240761 
L 126.46272 -162.297273 
L 128.561852 -163.353784 
L 130.317331 -164.410296 
L 131.75045 -165.466808 
L 132.887417 -166.52332 
L 133.757048 -167.579831 
L 134.388896 -168.636343 
L 134.811871 -169.692855 
L 135.053341 -170.749367 
L 135.138697 -171.805878 
L 135.091282 -172.86239 
L 134.932601 -173.918902 
L 134.682702 -174.975414 
L 134.36062 -176.031925 
L 133.984802 -177.088437 
L 133.573417 -178.144949 
L 133.144512 -179.201461 
L 132.715982 -180.257972 
L 132.305339 -181.314484 
L 131.929321 -182.370996 
L 131.603364 -183.427508 
L 131.341016 -184.48402 
L 131.153334 -185.540531 
L 131.048366 -186.597043 
L 131.030751 -187.653555 
L 131.101504 -188.710067 
L 131.258013 -189.766578 
L 131.494253 -190.82309 
L 131.801205 -191.879602 
L 132.167456 -192.936114 
L 132.579916 -193.992625 
L 133.024596 -195.049137 
L 133.487399 -196.105649 
L 133.95484 -197.162161 
L 134.414669 -198.218672 
L 134.856349 -199.275184 
L 135.271366 -200.331696 
L 135.653385 -201.388208 
L 135.998238 -202.444719 
L 136.303794 -203.501231 
L 136.569713 -204.557743 
L 136.797148 -205.614255 
L 137.7 -205.614255 
L 137.7 -205.614255 
L 137.7 -204.557743 
L 137.7 -203.501231 
L 137.7 -202.444719 
L 137.7 -201.388208 
L 137.7 -200.331696 
L 137.7 -199.275184 
L 137.7 -198.218672 
L 137.7 -197.162161 
L 137.7 -196.105649 
L 137.7 -195.049137 
L 137.7 -193.992625 
L 137.7 -192.936114 
L 137.7 -191.879602 
L 137.7 -190.82309 
L 137.7 -189.766578 
L 137.7 -188.710067 
L 137.7 -187.653555 
L 137.7 -186.597043 
L 137.7 -185.540531 
L 137.7 -184.48402 
L 137.7 -183.427508 
L 137.7 -182.370996 
L 137.7 -181.314484 
L 137.7 -180.257972 
L 137.7 -179.201461 
L 137.7 -178.144949 
L 137.7 -177.088437 
L 137.7 -176.031925 
L 137.7 -174.975414 
L 137.7 -173.918902 
L 137.7 -172.86239 
L 137.7 -171.805878 
L 137.7 -170.749367 
L 137.7 -169.692855 
L 137.7 -168.636343 
L 137.7 -167.579831 
L 137.7 -166.52332 
L 137.7 -165.466808 
L 137.7 -164.410296 
L 137.7 -163.353784 
L 137.7 -162.297273 
L 137.7 -161.240761 
L 137.7 -160.184249 
L 137.7 -159.127737 
L 137.7 -158.071226 
L 137.7 -157.014714 
L 137.7 -155.958202 
L 137.7 -154.90169 
L 137.7 -153.845179 
L 137.7 -152.788667 
L 137.7 -151.732155 
L 137.7 -150.675643 
L 137.7 -149.619132 
L 137.7 -148.56262 
L 137.7 -147.506108 
L 137.7 -146.449596 
L 137.7 -145.393085 
L 137.7 -144.336573 
L 137.7 -143.280061 
L 137.7 -142.223549 
L 137.7 -141.167038 
L 137.7 -140.110526 
L 137.7 -139.054014 
L 137.7 -137.997502 
L 137.7 -136.940991 
L 137.7 -135.884479 
L 137.7 -134.827967 
L 137.7 -133.771455 
L 137.7 -132.714944 
L 137.7 -131.658432 
L 137.7 -130.60192 
L 137.7 -129.545408 
L 137.7 -128.488897 
L 137.7 -127.432385 
L 137.7 -126.375873 
L 137.7 -125.319361 
L 137.7 -124.262849 
L 137.7 -123.206338 
L 137.7 -122.149826 
L 137.7 -121.093314 
L 137.7 -120.036802 
L 137.7 -118.980291 
L 137.7 -117.923779 
L 137.7 -116.867267 
L 137.7 -115.810755 
L 137.7 -114.754244 
L 137.7 -113.697732 
L 137.7 -112.64122 
L 137.7 -111.584708 
L 137.7 -110.528197 
L 137.7 -109.471685 
L 137.7 -108.415173 
L 137.7 -107.358661 
L 137.7 -106.30215 
L 137.7 -105.245638 
L 137.7 -104.189126 
L 137.7 -103.132614 
L 137.7 -102.076103 
L 137.7 -101.019591 
z
" style="stroke: #3f3f3f; stroke-width: 1.25"/>
    </defs>
    <g clip-path="url(#pe0803fda3c)">
     <use xlink:href="#mf84840d66d" x="0" y="324" style="fill: #3274a1; stroke: #3f3f3f; stroke-width: 1.25"/>
    </g>
   </g>
   <g id="PolyCollection_2">
    <defs>
     <path id="mf8af33b9c0" d="M 140.881943 -46.98 
L 137.7 -46.98 
L 137.7 -49.270909 
L 137.7 -51.561818 
L 137.7 -53.852727 
L 137.7 -56.143636 
L 137.7 -58.434545 
L 137.7 -60.725455 
L 137.7 -63.016364 
L 137.7 -65.307273 
L 137.7 -67.598182 
L 137.7 -69.889091 
L 137.7 -72.18 
L 137.7 -74.470909 
L 137.7 -76.761818 
L 137.7 -79.052727 
L 137.7 -81.343636 
L 137.7 -83.634545 
L 137.7 -85.925455 
L 137.7 -88.216364 
L 137.7 -90.507273 
L 137.7 -92.798182 
L 137.7 -95.089091 
L 137.7 -97.38 
L 137.7 -99.670909 
L 137.7 -101.961818 
L 137.7 -104.252727 
L 137.7 -106.543636 
L 137.7 -108.834545 
L 137.7 -111.125455 
L 137.7 -113.416364 
L 137.7 -115.707273 
L 137.7 -117.998182 
L 137.7 -120.289091 
L 137.7 -122.58 
L 137.7 -124.870909 
L 137.7 -127.161818 
L 137.7 -129.452727 
L 137.7 -131.743636 
L 137.7 -134.034545 
L 137.7 -136.325455 
L 137.7 -138.616364 
L 137.7 -140.907273 
L 137.7 -143.198182 
L 137.7 -145.489091 
L 137.7 -147.78 
L 137.7 -150.070909 
L 137.7 -152.361818 
L 137.7 -154.652727 
L 137.7 -156.943636 
L 137.7 -159.234545 
L 137.7 -161.525455 
L 137.7 -163.816364 
L 137.7 -166.107273 
L 137.7 -168.398182 
L 137.7 -170.689091 
L 137.7 -172.98 
L 137.7 -175.270909 
L 137.7 -177.561818 
L 137.7 -179.852727 
L 137.7 -182.143636 
L 137.7 -184.434545 
L 137.7 -186.725455 
L 137.7 -189.016364 
L 137.7 -191.307273 
L 137.7 -193.598182 
L 137.7 -195.889091 
L 137.7 -198.18 
L 137.7 -200.470909 
L 137.7 -202.761818 
L 137.7 -205.052727 
L 137.7 -207.343636 
L 137.7 -209.634545 
L 137.7 -211.925455 
L 137.7 -214.216364 
L 137.7 -216.507273 
L 137.7 -218.798182 
L 137.7 -221.089091 
L 137.7 -223.38 
L 137.7 -225.670909 
L 137.7 -227.961818 
L 137.7 -230.252727 
L 137.7 -232.543636 
L 137.7 -234.834545 
L 137.7 -237.125455 
L 137.7 -239.416364 
L 137.7 -241.707273 
L 137.7 -243.998182 
L 137.7 -246.289091 
L 137.7 -248.58 
L 137.7 -250.870909 
L 137.7 -253.161818 
L 137.7 -255.452727 
L 137.7 -257.743636 
L 137.7 -260.034545 
L 137.7 -262.325455 
L 137.7 -264.616364 
L 137.7 -266.907273 
L 137.7 -269.198182 
L 137.7 -271.489091 
L 137.7 -273.78 
L 140.332674 -273.78 
L 140.332674 -273.78 
L 140.782282 -271.489091 
L 141.286472 -269.198182 
L 141.847477 -266.907273 
L 142.466765 -264.616364 
L 143.144889 -262.325455 
L 143.88134 -260.034545 
L 144.674417 -257.743636 
L 145.521116 -255.452727 
L 146.417058 -253.161818 
L 147.356445 -250.870909 
L 148.332067 -248.58 
L 149.335351 -246.289091 
L 150.356476 -243.998182 
L 151.384527 -241.707273 
L 152.407711 -239.416364 
L 153.413629 -237.125455 
L 154.389582 -234.834545 
L 155.32292 -232.543636 
L 156.201423 -230.252727 
L 157.013683 -227.961818 
L 157.749504 -225.670909 
L 158.400271 -223.38 
L 158.959306 -221.089091 
L 159.422171 -218.798182 
L 159.786916 -216.507273 
L 160.05427 -214.216364 
L 160.227745 -211.925455 
L 160.313664 -209.634545 
L 160.321105 -207.343636 
L 160.261762 -205.052727 
L 160.149719 -202.761818 
L 160.001163 -200.470909 
L 159.834018 -198.18 
L 159.667535 -195.889091 
L 159.521837 -193.598182 
L 159.417434 -191.307273 
L 159.374728 -189.016364 
L 159.41351 -186.725455 
L 159.552471 -184.434545 
L 159.808737 -182.143636 
L 160.197426 -179.852727 
L 160.731256 -177.561818 
L 161.420189 -175.270909 
L 162.27113 -172.98 
L 163.287684 -170.689091 
L 164.469963 -168.398182 
L 165.814464 -166.107273 
L 167.314004 -163.816364 
L 168.957723 -161.525455 
L 170.731155 -159.234545 
L 172.616366 -156.943636 
L 174.592168 -154.652727 
L 176.634398 -152.361818 
L 178.716276 -150.070909 
L 180.80883 -147.78 
L 182.881386 -145.489091 
L 184.902121 -143.198182 
L 186.838671 -140.907273 
L 188.658775 -138.616364 
L 190.330957 -136.325455 
L 191.825206 -134.034545 
L 193.113663 -131.743636 
L 194.171273 -129.452727 
L 194.97639 -127.161818 
L 195.51132 -124.870909 
L 195.762766 -122.58 
L 195.72218 -120.289091 
L 195.385986 -117.998182 
L 194.755678 -115.707273 
L 193.837784 -113.416364 
L 192.643692 -111.125455 
L 191.189346 -108.834545 
L 189.494824 -106.543636 
L 187.583807 -104.252727 
L 185.48296 -101.961818 
L 183.221253 -99.670909 
L 180.829234 -97.38 
L 178.338292 -95.089091 
L 175.779925 -92.798182 
L 173.185039 -90.507273 
L 170.58331 -88.216364 
L 168.002605 -85.925455 
L 165.468502 -83.634545 
L 163.003896 -81.343636 
L 160.628719 -79.052727 
L 158.35975 -76.761818 
L 156.210543 -74.470909 
L 154.191431 -72.18 
L 152.309632 -69.889091 
L 150.569419 -67.598182 
L 148.972353 -65.307273 
L 147.517563 -63.016364 
L 146.202057 -60.725455 
L 145.02105 -58.434545 
L 143.968301 -56.143636 
L 143.036441 -53.852727 
L 142.217281 -51.561818 
L 141.502109 -49.270909 
L 140.881943 -46.98 
z
" style="stroke: #3f3f3f; stroke-width: 1.25"/>
    </defs>
    <g clip-path="url(#pe0803fda3c)">
     <use xlink:href="#mf8af33b9c0" x="0" y="324" style="fill: #e1812c; stroke: #3f3f3f; stroke-width: 1.25"/>
    </g>
   </g>
   <g id="PolyCollection_3">
    <defs>
     <path id="m0dae807e6b" d="M 305.1 -94.696411 
L 301.123646 -94.696411 
L 300.090104 -96.036324 
L 298.857156 -97.376237 
L 297.405773 -98.71615 
L 295.720123 -100.056063 
L 293.788965 -101.395976 
L 291.607042 -102.735889 
L 289.176383 -104.075801 
L 286.507383 -105.415714 
L 283.619561 -106.755627 
L 280.541872 -108.09554 
L 277.312498 -109.435453 
L 273.978055 -110.775366 
L 270.592204 -112.115279 
L 267.213715 -113.455191 
L 263.904066 -114.795104 
L 260.724727 -116.135017 
L 257.73432 -117.47493 
L 254.985855 -118.814843 
L 252.524279 -120.154756 
L 250.384531 -121.494669 
L 248.590282 -122.834581 
L 247.153467 -124.174494 
L 246.07466 -125.514407 
L 245.344248 -126.85432 
L 244.944285 -128.194233 
L 244.850856 -129.534146 
L 245.036707 -130.874059 
L 245.473886 -132.213971 
L 246.136126 -133.553884 
L 247.000771 -134.893797 
L 248.050034 -136.23371 
L 249.271523 -137.573623 
L 250.65799 -138.913536 
L 252.206395 -140.253449 
L 253.916403 -141.593361 
L 255.788523 -142.933274 
L 257.822111 -144.273187 
L 260.013468 -145.6131 
L 262.354249 -146.953013 
L 264.83034 -148.292926 
L 267.421321 -149.632839 
L 270.100555 -150.972751 
L 272.835864 -152.312664 
L 275.590726 -153.652577 
L 278.325844 -154.99249 
L 281.00095 -156.332403 
L 283.576653 -157.672316 
L 286.016202 -159.012229 
L 288.287014 -160.352142 
L 290.361888 -161.692054 
L 292.219831 -163.031967 
L 293.846506 -164.37188 
L 295.234292 -165.711793 
L 296.382032 -167.051706 
L 297.294506 -168.391619 
L 297.981728 -169.731532 
L 298.45811 -171.071444 
L 298.741588 -172.411357 
L 298.852729 -173.75127 
L 298.813898 -175.091183 
L 298.648469 -176.431096 
L 298.380138 -177.771009 
L 298.032308 -179.110922 
L 297.627581 -180.450834 
L 297.187333 -181.790747 
L 296.731385 -183.13066 
L 296.277752 -184.470573 
L 295.842484 -185.810486 
L 295.439579 -187.150399 
L 295.080961 -188.490312 
L 294.776522 -189.830224 
L 294.534199 -191.170137 
L 294.360086 -192.51005 
L 294.258546 -193.849963 
L 294.232328 -195.189876 
L 294.282667 -196.529789 
L 294.409354 -197.869702 
L 294.610797 -199.209614 
L 294.884055 -200.549527 
L 295.224871 -201.88944 
L 295.627719 -203.229353 
L 296.085871 -204.569266 
L 296.591504 -205.909179 
L 297.135863 -207.249092 
L 297.709469 -208.589004 
L 298.302381 -209.928917 
L 298.904499 -211.26883 
L 299.505885 -212.608743 
L 300.097093 -213.948656 
L 300.669474 -215.288569 
L 301.215446 -216.628482 
L 301.728701 -217.968394 
L 302.204342 -219.308307 
L 302.638948 -220.64822 
L 303.030555 -221.988133 
L 303.378573 -223.328046 
L 303.683644 -224.667959 
L 303.947454 -226.007872 
L 304.172522 -227.347784 
L 305.1 -227.347784 
L 305.1 -227.347784 
L 305.1 -226.007872 
L 305.1 -224.667959 
L 305.1 -223.328046 
L 305.1 -221.988133 
L 305.1 -220.64822 
L 305.1 -219.308307 
L 305.1 -217.968394 
L 305.1 -216.628482 
L 305.1 -215.288569 
L 305.1 -213.948656 
L 305.1 -212.608743 
L 305.1 -211.26883 
L 305.1 -209.928917 
L 305.1 -208.589004 
L 305.1 -207.249092 
L 305.1 -205.909179 
L 305.1 -204.569266 
L 305.1 -203.229353 
L 305.1 -201.88944 
L 305.1 -200.549527 
L 305.1 -199.209614 
L 305.1 -197.869702 
L 305.1 -196.529789 
L 305.1 -195.189876 
L 305.1 -193.849963 
L 305.1 -192.51005 
L 305.1 -191.170137 
L 305.1 -189.830224 
L 305.1 -188.490312 
L 305.1 -187.150399 
L 305.1 -185.810486 
L 305.1 -184.470573 
L 305.1 -183.13066 
L 305.1 -181.790747 
L 305.1 -180.450834 
L 305.1 -179.110922 
L 305.1 -177.771009 
L 305.1 -176.431096 
L 305.1 -175.091183 
L 305.1 -173.75127 
L 305.1 -172.411357 
L 305.1 -171.071444 
L 305.1 -169.731532 
L 305.1 -168.391619 
L 305.1 -167.051706 
L 305.1 -165.711793 
L 305.1 -164.37188 
L 305.1 -163.031967 
L 305.1 -161.692054 
L 305.1 -160.352142 
L 305.1 -159.012229 
L 305.1 -157.672316 
L 305.1 -156.332403 
L 305.1 -154.99249 
L 305.1 -153.652577 
L 305.1 -152.312664 
L 305.1 -150.972751 
L 305.1 -149.632839 
L 305.1 -148.292926 
L 305.1 -146.953013 
L 305.1 -145.6131 
L 305.1 -144.273187 
L 305.1 -142.933274 
L 305.1 -141.593361 
L 305.1 -140.253449 
L 305.1 -138.913536 
L 305.1 -137.573623 
L 305.1 -136.23371 
L 305.1 -134.893797 
L 305.1 -133.553884 
L 305.1 -132.213971 
L 305.1 -130.874059 
L 305.1 -129.534146 
L 305.1 -128.194233 
L 305.1 -126.85432 
L 305.1 -125.514407 
L 305.1 -124.174494 
L 305.1 -122.834581 
L 305.1 -121.494669 
L 305.1 -120.154756 
L 305.1 -118.814843 
L 305.1 -117.47493 
L 305.1 -116.135017 
L 305.1 -114.795104 
L 305.1 -113.455191 
L 305.1 -112.115279 
L 305.1 -110.775366 
L 305.1 -109.435453 
L 305.1 -108.09554 
L 305.1 -106.755627 
L 305.1 -105.415714 
L 305.1 -104.075801 
L 305.1 -102.735889 
L 305.1 -101.395976 
L 305.1 -100.056063 
L 305.1 -98.71615 
L 305.1 -97.376237 
L 305.1 -96.036324 
L 305.1 -94.696411 
z
" style="stroke: #3f3f3f; stroke-width: 1.25"/>
    </defs>
    <g clip-path="url(#pe0803fda3c)">
     <use xlink:href="#m0dae807e6b" x="0" y="324" style="fill: #3274a1; stroke: #3f3f3f; stroke-width: 1.25"/>
    </g>
   </g>
   <g id="PolyCollection_4">
    <defs>
     <path id="m853ac594ac" d="M 307.542019 -57.834285 
L 305.1 -57.834285 
L 305.1 -59.905916 
L 305.1 -61.977546 
L 305.1 -64.049177 
L 305.1 -66.120808 
L 305.1 -68.192438 
L 305.1 -70.264069 
L 305.1 -72.335699 
L 305.1 -74.40733 
L 305.1 -76.478961 
L 305.1 -78.550591 
L 305.1 -80.622222 
L 305.1 -82.693852 
L 305.1 -84.765483 
L 305.1 -86.837114 
L 305.1 -88.908744 
L 305.1 -90.980375 
L 305.1 -93.052005 
L 305.1 -95.123636 
L 305.1 -97.195267 
L 305.1 -99.266897 
L 305.1 -101.338528 
L 305.1 -103.410158 
L 305.1 -105.481789 
L 305.1 -107.55342 
L 305.1 -109.62505 
L 305.1 -111.696681 
L 305.1 -113.768311 
L 305.1 -115.839942 
L 305.1 -117.911573 
L 305.1 -119.983203 
L 305.1 -122.054834 
L 305.1 -124.126464 
L 305.1 -126.198095 
L 305.1 -128.269726 
L 305.1 -130.341356 
L 305.1 -132.412987 
L 305.1 -134.484617 
L 305.1 -136.556248 
L 305.1 -138.627879 
L 305.1 -140.699509 
L 305.1 -142.77114 
L 305.1 -144.84277 
L 305.1 -146.914401 
L 305.1 -148.986032 
L 305.1 -151.057662 
L 305.1 -153.129293 
L 305.1 -155.200923 
L 305.1 -157.272554 
L 305.1 -159.344185 
L 305.1 -161.415815 
L 305.1 -163.487446 
L 305.1 -165.559077 
L 305.1 -167.630707 
L 305.1 -169.702338 
L 305.1 -171.773968 
L 305.1 -173.845599 
L 305.1 -175.91723 
L 305.1 -177.98886 
L 305.1 -180.060491 
L 305.1 -182.132121 
L 305.1 -184.203752 
L 305.1 -186.275383 
L 305.1 -188.347013 
L 305.1 -190.418644 
L 305.1 -192.490274 
L 305.1 -194.561905 
L 305.1 -196.633536 
L 305.1 -198.705166 
L 305.1 -200.776797 
L 305.1 -202.848427 
L 305.1 -204.920058 
L 305.1 -206.991689 
L 305.1 -209.063319 
L 305.1 -211.13495 
L 305.1 -213.20658 
L 305.1 -215.278211 
L 305.1 -217.349842 
L 305.1 -219.421472 
L 305.1 -221.493103 
L 305.1 -223.564733 
L 305.1 -225.636364 
L 305.1 -227.707995 
L 305.1 -229.779625 
L 305.1 -231.851256 
L 305.1 -233.922886 
L 305.1 -235.994517 
L 305.1 -238.066148 
L 305.1 -240.137778 
L 305.1 -242.209409 
L 305.1 -244.281039 
L 305.1 -246.35267 
L 305.1 -248.424301 
L 305.1 -250.495931 
L 305.1 -252.567562 
L 305.1 -254.639192 
L 305.1 -256.710823 
L 305.1 -258.782454 
L 305.1 -260.854084 
L 305.1 -262.925715 
L 308.273884 -262.925715 
L 308.273884 -262.925715 
L 308.88284 -260.854084 
L 309.57433 -258.782454 
L 310.351967 -256.710823 
L 311.217873 -254.639192 
L 312.172363 -252.567562 
L 313.213635 -250.495931 
L 314.337507 -248.424301 
L 315.537213 -246.35267 
L 316.803271 -244.281039 
L 318.123457 -242.209409 
L 319.482873 -240.137778 
L 320.864153 -238.066148 
L 322.247781 -235.994517 
L 323.61254 -233.922886 
L 324.936071 -231.851256 
L 326.195536 -229.779625 
L 327.368358 -227.707995 
L 328.433008 -225.636364 
L 329.369808 -223.564733 
L 330.16172 -221.493103 
L 330.79507 -219.421472 
L 331.260188 -217.349842 
L 331.551921 -215.278211 
L 331.669991 -213.20658 
L 331.619187 -211.13495 
L 331.40937 -209.063319 
L 331.055296 -206.991689 
L 330.576256 -204.920058 
L 329.995559 -202.848427 
L 329.339867 -200.776797 
L 328.638426 -198.705166 
L 327.922218 -196.633536 
L 327.223077 -194.561905 
L 326.572798 -192.490274 
L 326.002284 -190.418644 
L 325.540755 -188.347013 
L 325.215049 -186.275383 
L 325.049036 -184.203752 
L 325.063151 -182.132121 
L 325.274059 -180.060491 
L 325.694452 -177.98886 
L 326.332949 -175.91723 
L 327.194116 -173.845599 
L 328.278557 -171.773968 
L 329.583074 -169.702338 
L 331.100866 -167.630707 
L 332.82174 -165.559077 
L 334.732332 -163.487446 
L 336.816299 -161.415815 
L 339.054494 -159.344185 
L 341.425115 -157.272554 
L 343.903818 -155.200923 
L 346.463829 -153.129293 
L 349.076053 -151.057662 
L 351.709203 -148.986032 
L 354.32998 -146.914401 
L 356.903323 -144.84277 
L 359.392747 -142.77114 
L 361.760787 -140.699509 
L 363.969567 -138.627879 
L 365.981478 -136.556248 
L 367.75997 -134.484617 
L 369.270428 -132.412987 
L 370.48111 -130.341356 
L 371.364102 -128.269726 
L 371.896247 -126.198095 
L 372.06 -124.126464 
L 371.844159 -122.054834 
L 371.244427 -119.983203 
L 370.263766 -117.911573 
L 368.912509 -115.839942 
L 367.208229 -113.768311 
L 365.17534 -111.696681 
L 362.844459 -109.62505 
L 360.251548 -107.55342 
L 357.436872 -105.481789 
L 354.44382 -103.410158 
L 351.317649 -101.338528 
L 348.104195 -99.266897 
L 344.848619 -97.195267 
L 341.594237 -95.123636 
L 338.381477 -93.052005 
L 335.246996 -90.980375 
L 332.222999 -88.908744 
L 329.336749 -86.837114 
L 326.610301 -84.765483 
L 324.060419 -82.693852 
L 321.698696 -80.622222 
L 319.531816 -78.550591 
L 317.561962 -76.478961 
L 315.787317 -74.40733 
L 314.202631 -72.335699 
L 312.799828 -70.264069 
L 311.568616 -68.192438 
L 310.49708 -66.120808 
L 309.572237 -64.049177 
L 308.780532 -61.977546 
L 308.108279 -59.905916 
L 307.542019 -57.834285 
z
" style="stroke: #3f3f3f; stroke-width: 1.25"/>
    </defs>
    <g clip-path="url(#pe0803fda3c)">
     <use xlink:href="#m853ac594ac" x="0" y="324" style="fill: #e1812c; stroke: #3f3f3f; stroke-width: 1.25"/>
    </g>
   </g>
   <g id="patch_3">
    <path d="M 137.7 295.892174 
L 137.7 295.892174 
L 137.7 295.892174 
L 137.7 295.892174 
z
" clip-path="url(#pe0803fda3c)" style="fill: #3274a1; stroke: #3f3f3f; stroke-width: 1.25; stroke-linejoin: miter"/>
   </g>
   <g id="patch_4">
    <path d="M 137.7 295.892174 
L 137.7 295.892174 
L 137.7 295.892174 
L 137.7 295.892174 
z
" clip-path="url(#pe0803fda3c)" style="fill: #e1812c; stroke: #3f3f3f; stroke-width: 1.25; stroke-linejoin: miter"/>
   </g>
   <g id="matplotlib.axis_1">
    <g id="xtick_1">
     <g id="line2d_1">
      <defs>
       <path id="m71696103a7" d="M 0 0 
L 0 3.5 
" style="stroke: #000000; stroke-width: 0.8"/>
      </defs>
      <g>
       <use xlink:href="#m71696103a7" x="137.7" y="288.36" style="stroke: #000000; stroke-width: 0.8"/>
      </g>
     </g>
     <g id="text_1">
      <!-- control -->
      <g transform="translate(120.371094 302.958438) scale(0.1 -0.1)">
       <defs>
        <path id="DejaVuSans-63" d="M 3122 3366 
L 3122 2828 
Q 2878 2963 2633 3030 
Q 2388 3097 2138 3097 
Q 1578 3097 1268 2742 
Q 959 2388 959 1747 
Q 959 1106 1268 751 
Q 1578 397 2138 397 
Q 2388 397 2633 464 
Q 2878 531 3122 666 
L 3122 134 
Q 2881 22 2623 -34 
Q 2366 -91 2075 -91 
Q 1284 -91 818 406 
Q 353 903 353 1747 
Q 353 2603 823 3093 
Q 1294 3584 2113 3584 
Q 2378 3584 2631 3529 
Q 2884 3475 3122 3366 
z
" transform="scale(0.015625)"/>
        <path id="DejaVuSans-6f" d="M 1959 3097 
Q 1497 3097 1228 2736 
Q 959 2375 959 1747 
Q 959 1119 1226 758 
Q 1494 397 1959 397 
Q 2419 397 2687 759 
Q 2956 1122 2956 1747 
Q 2956 2369 2687 2733 
Q 2419 3097 1959 3097 
z
M 1959 3584 
Q 2709 3584 3137 3096 
Q 3566 2609 3566 1747 
Q 3566 888 3137 398 
Q 2709 -91 1959 -91 
Q 1206 -91 779 398 
Q 353 888 353 1747 
Q 353 2609 779 3096 
Q 1206 3584 1959 3584 
z
" transform="scale(0.015625)"/>
        <path id="DejaVuSans-6e" d="M 3513 2113 
L 3513 0 
L 2938 0 
L 2938 2094 
Q 2938 2591 2744 2837 
Q 2550 3084 2163 3084 
Q 1697 3084 1428 2787 
Q 1159 2491 1159 1978 
L 1159 0 
L 581 0 
L 581 3500 
L 1159 3500 
L 1159 2956 
Q 1366 3272 1645 3428 
Q 1925 3584 2291 3584 
Q 2894 3584 3203 3211 
Q 3513 2838 3513 2113 
z
" transform="scale(0.015625)"/>
        <path id="DejaVuSans-74" d="M 1172 4494 
L 1172 3500 
L 2356 3500 
L 2356 3053 
L 1172 3053 
L 1172 1153 
Q 1172 725 1289 603 
Q 1406 481 1766 481 
L 2356 481 
L 2356 0 
L 1766 0 
Q 1100 0 847 248 
Q 594 497 594 1153 
L 594 3053 
L 172 3053 
L 172 3500 
L 594 3500 
L 594 4494 
L 1172 4494 
z
" transform="scale(0.015625)"/>
        <path id="DejaVuSans-72" d="M 2631 2963 
Q 2534 3019 2420 3045 
Q 2306 3072 2169 3072 
Q 1681 3072 1420 2755 
Q 1159 2438 1159 1844 
L 1159 0 
L 581 0 
L 581 3500 
L 1159 3500 
L 1159 2956 
Q 1341 3275 1631 3429 
Q 1922 3584 2338 3584 
Q 2397 3584 2469 3576 
Q 2541 3569 2628 3553 
L 2631 2963 
z
" transform="scale(0.015625)"/>
        <path id="DejaVuSans-6c" d="M 603 4863 
L 1178 4863 
L 1178 0 
L 603 0 
L 603 4863 
z
" transform="scale(0.015625)"/>
       </defs>
       <use xlink:href="#DejaVuSans-63"/>
       <use xlink:href="#DejaVuSans-6f" x="54.980469"/>
       <use xlink:href="#DejaVuSans-6e" x="116.162109"/>
       <use xlink:href="#DejaVuSans-74" x="179.541016"/>
       <use xlink:href="#DejaVuSans-72" x="218.75"/>
       <use xlink:href="#DejaVuSans-6f" x="257.613281"/>
       <use xlink:href="#DejaVuSans-6c" x="318.794922"/>
      </g>
     </g>
    </g>
    <g id="xtick_2">
     <g id="line2d_2">
      <g>
       <use xlink:href="#m71696103a7" x="305.1" y="288.36" style="stroke: #000000; stroke-width: 0.8"/>
      </g>
     </g>
     <g id="text_2">
      <!-- sefl -->
      <g transform="translate(296.269531 302.958438) scale(0.1 -0.1)">
       <defs>
        <path id="DejaVuSans-73" d="M 2834 3397 
L 2834 2853 
Q 2591 2978 2328 3040 
Q 2066 3103 1784 3103 
Q 1356 3103 1142 2972 
Q 928 2841 928 2578 
Q 928 2378 1081 2264 
Q 1234 2150 1697 2047 
L 1894 2003 
Q 2506 1872 2764 1633 
Q 3022 1394 3022 966 
Q 3022 478 2636 193 
Q 2250 -91 1575 -91 
Q 1294 -91 989 -36 
Q 684 19 347 128 
L 347 722 
Q 666 556 975 473 
Q 1284 391 1588 391 
Q 1994 391 2212 530 
Q 2431 669 2431 922 
Q 2431 1156 2273 1281 
Q 2116 1406 1581 1522 
L 1381 1569 
Q 847 1681 609 1914 
Q 372 2147 372 2553 
Q 372 3047 722 3315 
Q 1072 3584 1716 3584 
Q 2034 3584 2315 3537 
Q 2597 3491 2834 3397 
z
" transform="scale(0.015625)"/>
        <path id="DejaVuSans-65" d="M 3597 1894 
L 3597 1613 
L 953 1613 
Q 991 1019 1311 708 
Q 1631 397 2203 397 
Q 2534 397 2845 478 
Q 3156 559 3463 722 
L 3463 178 
Q 3153 47 2828 -22 
Q 2503 -91 2169 -91 
Q 1331 -91 842 396 
Q 353 884 353 1716 
Q 353 2575 817 3079 
Q 1281 3584 2069 3584 
Q 2775 3584 3186 3129 
Q 3597 2675 3597 1894 
z
M 3022 2063 
Q 3016 2534 2758 2815 
Q 2500 3097 2075 3097 
Q 1594 3097 1305 2825 
Q 1016 2553 972 2059 
L 3022 2063 
z
" transform="scale(0.015625)"/>
        <path id="DejaVuSans-66" d="M 2375 4863 
L 2375 4384 
L 1825 4384 
Q 1516 4384 1395 4259 
Q 1275 4134 1275 3809 
L 1275 3500 
L 2222 3500 
L 2222 3053 
L 1275 3053 
L 1275 0 
L 697 0 
L 697 3053 
L 147 3053 
L 147 3500 
L 697 3500 
L 697 3744 
Q 697 4328 969 4595 
Q 1241 4863 1831 4863 
L 2375 4863 
z
" transform="scale(0.015625)"/>
       </defs>
       <use xlink:href="#DejaVuSans-73"/>
       <use xlink:href="#DejaVuSans-65" x="52.099609"/>
       <use xlink:href="#DejaVuSans-66" x="113.623047"/>
       <use xlink:href="#DejaVuSans-6c" x="148.828125"/>
      </g>
     </g>
    </g>
    <g id="text_3">
     <!-- Condition -->
     <g transform="translate(197.539844 316.636563) scale(0.1 -0.1)">
      <defs>
       <path id="DejaVuSans-43" d="M 4122 4306 
L 4122 3641 
Q 3803 3938 3442 4084 
Q 3081 4231 2675 4231 
Q 1875 4231 1450 3742 
Q 1025 3253 1025 2328 
Q 1025 1406 1450 917 
Q 1875 428 2675 428 
Q 3081 428 3442 575 
Q 3803 722 4122 1019 
L 4122 359 
Q 3791 134 3420 21 
Q 3050 -91 2638 -91 
Q 1578 -91 968 557 
Q 359 1206 359 2328 
Q 359 3453 968 4101 
Q 1578 4750 2638 4750 
Q 3056 4750 3426 4639 
Q 3797 4528 4122 4306 
z
" transform="scale(0.015625)"/>
       <path id="DejaVuSans-64" d="M 2906 2969 
L 2906 4863 
L 3481 4863 
L 3481 0 
L 2906 0 
L 2906 525 
Q 2725 213 2448 61 
Q 2172 -91 1784 -91 
Q 1150 -91 751 415 
Q 353 922 353 1747 
Q 353 2572 751 3078 
Q 1150 3584 1784 3584 
Q 2172 3584 2448 3432 
Q 2725 3281 2906 2969 
z
M 947 1747 
Q 947 1113 1208 752 
Q 1469 391 1925 391 
Q 2381 391 2643 752 
Q 2906 1113 2906 1747 
Q 2906 2381 2643 2742 
Q 2381 3103 1925 3103 
Q 1469 3103 1208 2742 
Q 947 2381 947 1747 
z
" transform="scale(0.015625)"/>
       <path id="DejaVuSans-69" d="M 603 3500 
L 1178 3500 
L 1178 0 
L 603 0 
L 603 3500 
z
M 603 4863 
L 1178 4863 
L 1178 4134 
L 603 4134 
L 603 4863 
z
" transform="scale(0.015625)"/>
      </defs>
      <use xlink:href="#DejaVuSans-43"/>
      <use xlink:href="#DejaVuSans-6f" x="69.824219"/>
      <use xlink:href="#DejaVuSans-6e" x="131.005859"/>
      <use xlink:href="#DejaVuSans-64" x="194.384766"/>
      <use xlink:href="#DejaVuSans-69" x="257.861328"/>
      <use xlink:href="#DejaVuSans-74" x="285.644531"/>
      <use xlink:href="#DejaVuSans-69" x="324.853516"/>
      <use xlink:href="#DejaVuSans-6f" x="352.636719"/>
      <use xlink:href="#DejaVuSans-6e" x="413.818359"/>
     </g>
    </g>
   </g>
   <g id="matplotlib.axis_2">
    <g id="ytick_1">
     <g id="line2d_3">
      <defs>
       <path id="m302b6930d0" d="M 0 0 
L -3.5 0 
" style="stroke: #000000; stroke-width: 0.8"/>
      </defs>
      <g>
       <use xlink:href="#m302b6930d0" x="54" y="250.945319" style="stroke: #000000; stroke-width: 0.8"/>
      </g>
     </g>
     <g id="text_4">
      <!-- 5 -->
      <g transform="translate(40.6375 254.744538) scale(0.1 -0.1)">
       <defs>
        <path id="DejaVuSans-35" d="M 691 4666 
L 3169 4666 
L 3169 4134 
L 1269 4134 
L 1269 2991 
Q 1406 3038 1543 3061 
Q 1681 3084 1819 3084 
Q 2600 3084 3056 2656 
Q 3513 2228 3513 1497 
Q 3513 744 3044 326 
Q 2575 -91 1722 -91 
Q 1428 -91 1123 -41 
Q 819 9 494 109 
L 494 744 
Q 775 591 1075 516 
Q 1375 441 1709 441 
Q 2250 441 2565 725 
Q 2881 1009 2881 1497 
Q 2881 1984 2565 2268 
Q 2250 2553 1709 2553 
Q 1456 2553 1204 2497 
Q 953 2441 691 2322 
L 691 4666 
z
" transform="scale(0.015625)"/>
       </defs>
       <use xlink:href="#DejaVuSans-35"/>
      </g>
     </g>
    </g>
    <g id="ytick_2">
     <g id="line2d_4">
      <g>
       <use xlink:href="#m302b6930d0" x="54" y="205.998464" style="stroke: #000000; stroke-width: 0.8"/>
      </g>
     </g>
     <g id="text_5">
      <!-- 10 -->
      <g transform="translate(34.275 209.797682) scale(0.1 -0.1)">
       <defs>
        <path id="DejaVuSans-31" d="M 794 531 
L 1825 531 
L 1825 4091 
L 703 3866 
L 703 4441 
L 1819 4666 
L 2450 4666 
L 2450 531 
L 3481 531 
L 3481 0 
L 794 0 
L 794 531 
z
" transform="scale(0.015625)"/>
        <path id="DejaVuSans-30" d="M 2034 4250 
Q 1547 4250 1301 3770 
Q 1056 3291 1056 2328 
Q 1056 1369 1301 889 
Q 1547 409 2034 409 
Q 2525 409 2770 889 
Q 3016 1369 3016 2328 
Q 3016 3291 2770 3770 
Q 2525 4250 2034 4250 
z
M 2034 4750 
Q 2819 4750 3233 4129 
Q 3647 3509 3647 2328 
Q 3647 1150 3233 529 
Q 2819 -91 2034 -91 
Q 1250 -91 836 529 
Q 422 1150 422 2328 
Q 422 3509 836 4129 
Q 1250 4750 2034 4750 
z
" transform="scale(0.015625)"/>
       </defs>
       <use xlink:href="#DejaVuSans-31"/>
       <use xlink:href="#DejaVuSans-30" x="63.623047"/>
      </g>
     </g>
    </g>
    <g id="ytick_3">
     <g id="line2d_5">
      <g>
       <use xlink:href="#m302b6930d0" x="54" y="161.051608" style="stroke: #000000; stroke-width: 0.8"/>
      </g>
     </g>
     <g id="text_6">
      <!-- 15 -->
      <g transform="translate(34.275 164.850827) scale(0.1 -0.1)">
       <use xlink:href="#DejaVuSans-31"/>
       <use xlink:href="#DejaVuSans-35" x="63.623047"/>
      </g>
     </g>
    </g>
    <g id="ytick_4">
     <g id="line2d_6">
      <g>
       <use xlink:href="#m302b6930d0" x="54" y="116.104753" style="stroke: #000000; stroke-width: 0.8"/>
      </g>
     </g>
     <g id="text_7">
      <!-- 20 -->
      <g transform="translate(34.275 119.903972) scale(0.1 -0.1)">
       <defs>
        <path id="DejaVuSans-32" d="M 1228 531 
L 3431 531 
L 3431 0 
L 469 0 
L 469 531 
Q 828 903 1448 1529 
Q 2069 2156 2228 2338 
Q 2531 2678 2651 2914 
Q 2772 3150 2772 3378 
Q 2772 3750 2511 3984 
Q 2250 4219 1831 4219 
Q 1534 4219 1204 4116 
Q 875 4013 500 3803 
L 500 4441 
Q 881 4594 1212 4672 
Q 1544 4750 1819 4750 
Q 2544 4750 2975 4387 
Q 3406 4025 3406 3419 
Q 3406 3131 3298 2873 
Q 3191 2616 2906 2266 
Q 2828 2175 2409 1742 
Q 1991 1309 1228 531 
z
" transform="scale(0.015625)"/>
       </defs>
       <use xlink:href="#DejaVuSans-32"/>
       <use xlink:href="#DejaVuSans-30" x="63.623047"/>
      </g>
     </g>
    </g>
    <g id="ytick_5">
     <g id="line2d_7">
      <g>
       <use xlink:href="#m302b6930d0" x="54" y="71.157898" style="stroke: #000000; stroke-width: 0.8"/>
      </g>
     </g>
     <g id="text_8">
      <!-- 25 -->
      <g transform="translate(34.275 74.957117) scale(0.1 -0.1)">
       <use xlink:href="#DejaVuSans-32"/>
       <use xlink:href="#DejaVuSans-35" x="63.623047"/>
      </g>
     </g>
    </g>
    <g id="text_9">
     <!-- # of mice -->
     <g transform="translate(28.195312 187.892656) rotate(-90) scale(0.1 -0.1)">
      <defs>
       <path id="DejaVuSans-23" d="M 3272 2816 
L 2363 2816 
L 2100 1772 
L 3016 1772 
L 3272 2816 
z
M 2803 4594 
L 2478 3297 
L 3391 3297 
L 3719 4594 
L 4219 4594 
L 3897 3297 
L 4872 3297 
L 4872 2816 
L 3775 2816 
L 3519 1772 
L 4513 1772 
L 4513 1294 
L 3397 1294 
L 3072 0 
L 2572 0 
L 2894 1294 
L 1978 1294 
L 1656 0 
L 1153 0 
L 1478 1294 
L 494 1294 
L 494 1772 
L 1594 1772 
L 1856 2816 
L 850 2816 
L 850 3297 
L 1978 3297 
L 2297 4594 
L 2803 4594 
z
" transform="scale(0.015625)"/>
       <path id="DejaVuSans-20" transform="scale(0.015625)"/>
       <path id="DejaVuSans-6d" d="M 3328 2828 
Q 3544 3216 3844 3400 
Q 4144 3584 4550 3584 
Q 5097 3584 5394 3201 
Q 5691 2819 5691 2113 
L 5691 0 
L 5113 0 
L 5113 2094 
Q 5113 2597 4934 2840 
Q 4756 3084 4391 3084 
Q 3944 3084 3684 2787 
Q 3425 2491 3425 1978 
L 3425 0 
L 2847 0 
L 2847 2094 
Q 2847 2600 2669 2842 
Q 2491 3084 2119 3084 
Q 1678 3084 1418 2786 
Q 1159 2488 1159 1978 
L 1159 0 
L 581 0 
L 581 3500 
L 1159 3500 
L 1159 2956 
Q 1356 3278 1631 3431 
Q 1906 3584 2284 3584 
Q 2666 3584 2933 3390 
Q 3200 3197 3328 2828 
z
" transform="scale(0.015625)"/>
      </defs>
      <use xlink:href="#DejaVuSans-23"/>
      <use xlink:href="#DejaVuSans-20" x="83.789062"/>
      <use xlink:href="#DejaVuSans-6f" x="115.576172"/>
      <use xlink:href="#DejaVuSans-66" x="176.757812"/>
      <use xlink:href="#DejaVuSans-20" x="211.962891"/>
      <use xlink:href="#DejaVuSans-6d" x="243.75"/>
      <use xlink:href="#DejaVuSans-69" x="341.162109"/>
      <use xlink:href="#DejaVuSans-63" x="368.945312"/>
      <use xlink:href="#DejaVuSans-65" x="423.925781"/>
     </g>
    </g>
   </g>
   <g id="line2d_8">
    <path d="M 134.8875 204.714268 
L 134.8875 175.177763 
" clip-path="url(#pe0803fda3c)" style="fill: none; stroke: #3f3f3f; stroke-width: 1.875; stroke-linecap: square"/>
   </g>
   <g id="line2d_9">
    <path d="M 134.8875 199.577484 
L 134.8875 179.03035 
" clip-path="url(#pe0803fda3c)" style="fill: none; stroke: #3f3f3f; stroke-width: 5.625; stroke-linecap: square"/>
   </g>
   <g id="line2d_10">
    <path d="M 134.8875 188.661819 
" clip-path="url(#pe0803fda3c)" style="fill: none; stroke: #3f3f3f; stroke-width: 1.5; stroke-linecap: square"/>
    <defs>
     <path id="m87fbfbaf65" d="M 2.34375 0 
L -2.34375 -0 
" style="stroke: #ffffff; stroke-width: 1.125"/>
    </defs>
    <g clip-path="url(#pe0803fda3c)">
     <use xlink:href="#m87fbfbaf65" x="134.8875" y="188.661819" style="fill: #ffffff; stroke: #ffffff; stroke-width: 1.125"/>
    </g>
   </g>
   <g id="line2d_11">
    <path d="M 140.5125 218.840422 
L 140.5125 108.399578 
" clip-path="url(#pe0803fda3c)" style="fill: none; stroke: #3f3f3f; stroke-width: 1.875; stroke-linecap: square"/>
   </g>
   <g id="line2d_12">
    <path d="M 140.5125 203.430072 
L 140.5125 158.162168 
" clip-path="url(#pe0803fda3c)" style="fill: none; stroke: #3f3f3f; stroke-width: 5.625; stroke-linecap: square"/>
   </g>
   <g id="line2d_13">
    <path d="M 140.5125 203.430072 
" clip-path="url(#pe0803fda3c)" style="fill: none; stroke: #3f3f3f; stroke-width: 1.5; stroke-linecap: square"/>
    <g clip-path="url(#pe0803fda3c)">
     <use xlink:href="#m87fbfbaf65" x="140.5125" y="203.430072" style="fill: #ffffff; stroke: #ffffff; stroke-width: 1.125"/>
    </g>
   </g>
   <g id="line2d_14">
    <path d="M 302.2875 204.714268 
L 302.2875 175.177763 
" clip-path="url(#pe0803fda3c)" style="fill: none; stroke: #3f3f3f; stroke-width: 1.875; stroke-linecap: square"/>
   </g>
   <g id="line2d_15">
    <path d="M 302.2875 198.293288 
L 302.2875 179.03035 
" clip-path="url(#pe0803fda3c)" style="fill: none; stroke: #3f3f3f; stroke-width: 5.625; stroke-linecap: square"/>
   </g>
   <g id="line2d_16">
    <path d="M 302.2875 191.872309 
" clip-path="url(#pe0803fda3c)" style="fill: none; stroke: #3f3f3f; stroke-width: 1.5; stroke-linecap: square"/>
    <g clip-path="url(#pe0803fda3c)">
     <use xlink:href="#m87fbfbaf65" x="302.2875" y="191.872309" style="fill: #ffffff; stroke: #ffffff; stroke-width: 1.125"/>
    </g>
   </g>
   <g id="line2d_17">
    <path d="M 307.9125 218.840422 
L 307.9125 108.399578 
" clip-path="url(#pe0803fda3c)" style="fill: none; stroke: #3f3f3f; stroke-width: 1.875; stroke-linecap: square"/>
   </g>
   <g id="line2d_18">
    <path d="M 307.9125 203.430072 
L 307.9125 158.162168 
" clip-path="url(#pe0803fda3c)" style="fill: none; stroke: #3f3f3f; stroke-width: 5.625; stroke-linecap: square"/>
   </g>
   <g id="line2d_19">
    <path d="M 307.9125 203.430072 
" clip-path="url(#pe0803fda3c)" style="fill: none; stroke: #3f3f3f; stroke-width: 1.5; stroke-linecap: square"/>
    <g clip-path="url(#pe0803fda3c)">
     <use xlink:href="#m87fbfbaf65" x="307.9125" y="203.430072" style="fill: #ffffff; stroke: #ffffff; stroke-width: 1.125"/>
    </g>
   </g>
   <g id="patch_5">
    <path d="M 54 288.36 
L 54 38.88 
" style="fill: none; stroke: #000000; stroke-width: 0.8; stroke-linejoin: miter; stroke-linecap: square"/>
   </g>
   <g id="patch_6">
    <path d="M 388.8 288.36 
L 388.8 38.88 
" style="fill: none; stroke: #000000; stroke-width: 0.8; stroke-linejoin: miter; stroke-linecap: square"/>
   </g>
   <g id="patch_7">
    <path d="M 54 288.36 
L 388.8 288.36 
" style="fill: none; stroke: #000000; stroke-width: 0.8; stroke-linejoin: miter; stroke-linecap: square"/>
   </g>
   <g id="patch_8">
    <path d="M 54 38.88 
L 388.8 38.88 
" style="fill: none; stroke: #000000; stroke-width: 0.8; stroke-linejoin: miter; stroke-linecap: square"/>
   </g>
   <g id="legend_1">
    <g id="patch_9">
     <path d="M 61 90.914375 
L 129.154687 90.914375 
Q 131.154687 90.914375 131.154687 88.914375 
L 131.154687 45.88 
Q 131.154687 43.88 129.154687 43.88 
L 61 43.88 
Q 59 43.88 59 45.88 
L 59 88.914375 
Q 59 90.914375 61 90.914375 
z
" style="fill: #ffffff; opacity: 0.8; stroke: #cccccc; stroke-linejoin: miter"/>
    </g>
    <g id="text_10">
     <!-- Sex -->
     <g transform="translate(85.954688 55.478437) scale(0.1 -0.1)">
      <defs>
       <path id="DejaVuSans-53" d="M 3425 4513 
L 3425 3897 
Q 3066 4069 2747 4153 
Q 2428 4238 2131 4238 
Q 1616 4238 1336 4038 
Q 1056 3838 1056 3469 
Q 1056 3159 1242 3001 
Q 1428 2844 1947 2747 
L 2328 2669 
Q 3034 2534 3370 2195 
Q 3706 1856 3706 1288 
Q 3706 609 3251 259 
Q 2797 -91 1919 -91 
Q 1588 -91 1214 -16 
Q 841 59 441 206 
L 441 856 
Q 825 641 1194 531 
Q 1563 422 1919 422 
Q 2459 422 2753 634 
Q 3047 847 3047 1241 
Q 3047 1584 2836 1778 
Q 2625 1972 2144 2069 
L 1759 2144 
Q 1053 2284 737 2584 
Q 422 2884 422 3419 
Q 422 4038 858 4394 
Q 1294 4750 2059 4750 
Q 2388 4750 2728 4690 
Q 3069 4631 3425 4513 
z
" transform="scale(0.015625)"/>
       <path id="DejaVuSans-78" d="M 3513 3500 
L 2247 1797 
L 3578 0 
L 2900 0 
L 1881 1375 
L 863 0 
L 184 0 
L 1544 1831 
L 300 3500 
L 978 3500 
L 1906 2253 
L 2834 3500 
L 3513 3500 
z
" transform="scale(0.015625)"/>
      </defs>
      <use xlink:href="#DejaVuSans-53"/>
      <use xlink:href="#DejaVuSans-65" x="63.476562"/>
      <use xlink:href="#DejaVuSans-78" x="123.25"/>
     </g>
    </g>
    <g id="patch_10">
     <path d="M 63 70.156562 
L 83 70.156562 
L 83 63.156562 
L 63 63.156562 
z
" style="fill: #3274a1; stroke: #3f3f3f; stroke-width: 1.25; stroke-linejoin: miter"/>
    </g>
    <g id="text_11">
     <!-- Male -->
     <g transform="translate(91 70.156562) scale(0.1 -0.1)">
      <defs>
       <path id="DejaVuSans-4d" d="M 628 4666 
L 1569 4666 
L 2759 1491 
L 3956 4666 
L 4897 4666 
L 4897 0 
L 4281 0 
L 4281 4097 
L 3078 897 
L 2444 897 
L 1241 4097 
L 1241 0 
L 628 0 
L 628 4666 
z
" transform="scale(0.015625)"/>
       <path id="DejaVuSans-61" d="M 2194 1759 
Q 1497 1759 1228 1600 
Q 959 1441 959 1056 
Q 959 750 1161 570 
Q 1363 391 1709 391 
Q 2188 391 2477 730 
Q 2766 1069 2766 1631 
L 2766 1759 
L 2194 1759 
z
M 3341 1997 
L 3341 0 
L 2766 0 
L 2766 531 
Q 2569 213 2275 61 
Q 1981 -91 1556 -91 
Q 1019 -91 701 211 
Q 384 513 384 1019 
Q 384 1609 779 1909 
Q 1175 2209 1959 2209 
L 2766 2209 
L 2766 2266 
Q 2766 2663 2505 2880 
Q 2244 3097 1772 3097 
Q 1472 3097 1187 3025 
Q 903 2953 641 2809 
L 641 3341 
Q 956 3463 1253 3523 
Q 1550 3584 1831 3584 
Q 2591 3584 2966 3190 
Q 3341 2797 3341 1997 
z
" transform="scale(0.015625)"/>
      </defs>
      <use xlink:href="#DejaVuSans-4d"/>
      <use xlink:href="#DejaVuSans-61" x="86.279297"/>
      <use xlink:href="#DejaVuSans-6c" x="147.558594"/>
      <use xlink:href="#DejaVuSans-65" x="175.341797"/>
     </g>
    </g>
    <g id="patch_11">
     <path d="M 63 84.834687 
L 83 84.834687 
L 83 77.834687 
L 63 77.834687 
z
" style="fill: #e1812c; stroke: #3f3f3f; stroke-width: 1.25; stroke-linejoin: miter"/>
    </g>
    <g id="text_12">
     <!-- Female -->
     <g transform="translate(91 84.834687) scale(0.1 -0.1)">
      <defs>
       <path id="DejaVuSans-46" d="M 628 4666 
L 3309 4666 
L 3309 4134 
L 1259 4134 
L 1259 2759 
L 3109 2759 
L 3109 2228 
L 1259 2228 
L 1259 0 
L 628 0 
L 628 4666 
z
" transform="scale(0.015625)"/>
      </defs>
      <use xlink:href="#DejaVuSans-46"/>
      <use xlink:href="#DejaVuSans-65" x="52.019531"/>
      <use xlink:href="#DejaVuSans-6d" x="113.542969"/>
      <use xlink:href="#DejaVuSans-61" x="210.955078"/>
      <use xlink:href="#DejaVuSans-6c" x="272.234375"/>
      <use xlink:href="#DejaVuSans-65" x="300.017578"/>
     </g>
    </g>
   </g>
  </g>
 </g>
 <defs>
  <clipPath id="pe0803fda3c">
   <rect x="54" y="38.88" width="334.8" height="249.48"/>
  </clipPath>
 </defs>
</svg>
