<?xml version="1.0" encoding="utf-8" standalone="no"?>
<!DOCTYPE svg PUBLIC "-//W3C//DTD SVG 1.1//EN"
  "http://www.w3.org/Graphics/SVG/1.1/DTD/svg11.dtd">
<svg xmlns:xlink="http://www.w3.org/1999/xlink" width="432pt" height="324pt" viewBox="0 0 432 324" xmlns="http://www.w3.org/2000/svg" version="1.1">
 <metadata>
  <rdf:RDF xmlns:dc="http://purl.org/dc/elements/1.1/" xmlns:cc="http://creativecommons.org/ns#" xmlns:rdf="http://www.w3.org/1999/02/22-rdf-syntax-ns#">
   <cc:Work>
    <dc:type rdf:resource="http://purl.org/dc/dcmitype/StillImage"/>
    <dc:date>2026-03-18T20:41:52.100831</dc:date>
    <dc:format>image/svg+xml</dc:format>
    <dc:creator>
     <cc:Agent>
      <dc:title>Matplotlib v3.10.6, https://matplotlib.org/</dc:title>
     </cc:Agent>
    </dc:creator>
   </cc:Work>
  </rdf:RDF>
 </metadata>
 <defs>
  <style type="text/css">*{stroke-linejoin: round; stroke-linecap: butt}</style>
 </defs>
 <g id="figure_1">
  <g id="patch_1">
   <path d="M 0 324 
L 432 324 
L 432 0 
L 0 0 
z
" style="fill: #ffffff"/>
  </g>
  <g id="axes_1">
   <g id="patch_2">
    <path d="M 54 288.36 
L 388.8 288.36 
L 388.8 38.88 
L 54 38.88 
z
" style="fill: #ffffff"/>
   </g>
   <g id="FillBetweenPolyCollection_1">
    <defs>
     <path id="m58effb79f5" d="M 137.7 -101.019591 
L 132.896226 -101.019591 
L 131.570418 -102.076103 
L 129.974123 -103.132614 
L 128.080489 -104.189126 
L 125.86778 -105.245638 
L 123.321696 -106.30215 
L 120.437733 -107.358661 
L 117.223386 -108.415173 
L 113.70001 -109.471685 
L 109.904097 -110.528197 
L 105.887778 -111.584708 
L 101.718362 -112.64122 
L 97.476789 -113.697732 
L 93.25494 -114.754244 
L 89.151858 -115.810755 
L 85.269009 -116.867267 
L 81.704834 -117.923779 
L 78.548936 -118.980291 
L 75.876293 -120.036802 
L 73.741979 -121.093314 
L 72.176821 -122.149826 
L 71.184439 -123.206338 
L 70.74 -124.262849 
L 70.790926 -125.319361 
L 71.259628 -126.375873 
L 72.048187 -127.432385 
L 73.044736 -128.488897 
L 74.13112 -129.545408 
L 75.191292 -130.60192 
L 76.119815 -131.658432 
L 76.829782 -132.714944 
L 77.259511 -133.771455 
L 77.377421 -134.827967 
L 77.184666 -135.884479 
L 76.715246 -136.940991 
L 76.033562 -137.997502 
L 75.229577 -139.054014 
L 74.411962 -140.110526 
L 73.699811 -141.167038 
L 73.213582 -142.223549 
L 73.066054 -143.280061 
L 73.354017 -144.336573 
L 74.151383 -145.393085 
L 75.504224 -146.449596 
L 77.428089 -147.506108 
L 79.907692 -148.56262 
L 82.8989 -149.619132 
L 86.332688 -150.675643 
L 90.120624 -151.732155 
L 94.16132 -152.788667 
L 98.347236 -153.845179 
L 102.571282 -154.90169 
L 106.732698 -155.958202 
L 110.741846 -157.014714 
L 114.523659 -158.071226 
L 118.019676 -159.127737 
L 121.188687 -160.184249 
L 124.006166 -161.240761 
L 126.46272 -162.297273 
L 128.561852 -163.353784 
L 130.317331 -164.410296 
L 131.75045 -165.466808 
L 132.887417 -166.52332 
L 133.757048 -167.579831 
L 134.388896 -168.636343 
L 134.811871 -169.692855 
L 135.053341 -170.749367 
L 135.138697 -171.805878 
L 135.091282 -172.86239 
L 134.932601 -173.918902 
L 134.682702 -174.975414 
L 134.36062 -176.031925 
L 133.984802 -177.088437 
L 133.573417 -178.144949 
L 133.144512 -179.201461 
L 132.715982 -180.257972 
L 132.305339 -181.314484 
L 131.929321 -182.370996 
L 131.603364 -183.427508 
L 131.341016 -184.48402 
L 131.153334 -185.540531 
L 131.048366 -186.597043 
L 131.030751 -187.653555 
L 131.101504 -188.710067 
L 131.258013 -189.766578 
L 131.494253 -190.82309 
L 131.801205 -191.879602 
L 132.167456 -192.936114 
L 132.579916 -193.992625 
L 133.024596 -195.049137 
L 133.487399 -196.105649 
L 133.95484 -197.162161 
L 134.414669 -198.218672 
L 134.856349 -199.275184 
L 135.271366 -200.331696 
L 135.653385 -201.388208 
L 135.998238 -202.444719 
L 136.303794 -203.501231 
L 136.569713 -204.557743 
L 136.797148 -205.614255 
L 137.7 -205.614255 
L 137.7 -205.614255 
L 137.7 -204.557743 
L 137.7 -203.501231 
L 137.7 -202.444719 
L 137.7 -201.388208 
L 137.7 -200.331696 
L 137.7 -199.275184 
L 137.7 -198.218672 
L 137.7 -197.162161 
L 137.7 -196.105649 
L 137.7 -195.049137 
L 137.7 -193.992625 
L 137.7 -192.936114 
L 137.7 -191.879602 
L 137.7 -190.82309 
L 137.7 -189.766578 
L 137.7 -188.710067 
L 137.7 -187.653555 
L 137.7 -186.597043 
L 137.7 -185.540531 
L 137.7 -184.48402 
L 137.7 -183.427508 
L 137.7 -182.370996 
L 137.7 -181.314484 
L 137.7 -180.257972 
L 137.7 -179.201461 
L 137.7 -178.144949 
L 137.7 -177.088437 
L 137.7 -176.031925 
L 137.7 -174.975414 
L 137.7 -173.918902 
L 137.7 -172.86239 
L 137.7 -171.805878 
L 137.7 -170.749367 
L 137.7 -169.692855 
L 137.7 -168.636343 
L 137.7 -167.579831 
L 137.7 -166.52332 
L 137.7 -165.466808 
L 137.7 -164.410296 
L 137.7 -163.353784 
L 137.7 -162.297273 
L 137.7 -161.240761 
L 137.7 -160.184249 
L 137.7 -159.127737 
L 137.7 -158.071226 
L 137.7 -157.014714 
L 137.7 -155.958202 
L 137.7 -154.90169 
L 137.7 -153.845179 
L 137.7 -152.788667 
L 137.7 -151.732155 
L 137.7 -150.675643 
L 137.7 -149.619132 
L 137.7 -148.56262 
L 137.7 -147.506108 
L 137.7 -146.449596 
L 137.7 -145.393085 
L 137.7 -144.336573 
L 137.7 -143.280061 
L 137.7 -142.223549 
L 137.7 -141.167038 
L 137.7 -140.110526 
L 137.7 -139.054014 
L 137.7 -137.997502 
L 137.7 -136.940991 
L 137.7 -135.884479 
L 137.7 -134.827967 
L 137.7 -133.771455 
L 137.7 -132.714944 
L 137.7 -131.658432 
L 137.7 -130.60192 
L 137.7 -129.545408 
L 137.7 -128.488897 
L 137.7 -127.432385 
L 137.7 -126.375873 
L 137.7 -125.319361 
L 137.7 -124.262849 
L 137.7 -123.206338 
L 137.7 -122.149826 
L 137.7 -121.093314 
L 137.7 -120.036802 
L 137.7 -118.980291 
L 137.7 -117.923779 
L 137.7 -116.867267 
L 137.7 -115.810755 
L 137.7 -114.754244 
L 137.7 -113.697732 
L 137.7 -112.64122 
L 137.7 -111.584708 
L 137.7 -110.528197 
L 137.7 -109.471685 
L 137.7 -108.415173 
L 137.7 -107.358661 
L 137.7 -106.30215 
L 137.7 -105.245638 
L 137.7 -104.189126 
L 137.7 -103.132614 
L 137.7 -102.076103 
L 137.7 -101.019591 
z
" style="stroke: #3f3f3f; stroke-width: 1.25"/>
    </defs>
    <g clip-path="url(#p113f98904a)">
     <use xlink:href="#m58effb79f5" x="0" y="324" style="fill: #3274a1; stroke: #3f3f3f; stroke-width: 1.25"/>
    </g>
   </g>
   <g id="FillBetweenPolyCollection_2">
    <defs>
     <path id="m24a6d687fb" d="M 140.881943 -46.98 
L 137.7 -46.98 
L 137.7 -49.270909 
L 137.7 -51.561818 
L 137.7 -53.852727 
L 137.7 -56.143636 
L 137.7 -58.434545 
L 137.7 -60.725455 
L 137.7 -63.016364 
L 137.7 -65.307273 
L 137.7 -67.598182 
L 137.7 -69.889091 
L 137.7 -72.18 
L 137.7 -74.470909 
L 137.7 -76.761818 
L 137.7 -79.052727 
L 137.7 -81.343636 
L 137.7 -83.634545 
L 137.7 -85.925455 
L 137.7 -88.216364 
L 137.7 -90.507273 
L 137.7 -92.798182 
L 137.7 -95.089091 
L 137.7 -97.38 
L 137.7 -99.670909 
L 137.7 -101.961818 
L 137.7 -104.252727 
L 137.7 -106.543636 
L 137.7 -108.834545 
L 137.7 -111.125455 
L 137.7 -113.416364 
L 137.7 -115.707273 
L 137.7 -117.998182 
L 137.7 -120.289091 
L 137.7 -122.58 
L 137.7 -124.870909 
L 137.7 -127.161818 
L 137.7 -129.452727 
L 137.7 -131.743636 
L 137.7 -134.034545 
L 137.7 -136.325455 
L 137.7 -138.616364 
L 137.7 -140.907273 
L 137.7 -143.198182 
L 137.7 -145.489091 
L 137.7 -147.78 
L 137.7 -150.070909 
L 137.7 -152.361818 
L 137.7 -154.652727 
L 137.7 -156.943636 
L 137.7 -159.234545 
L 137.7 -161.525455 
L 137.7 -163.816364 
L 137.7 -166.107273 
L 137.7 -168.398182 
L 137.7 -170.689091 
L 137.7 -172.98 
L 137.7 -175.270909 
L 137.7 -177.561818 
L 137.7 -179.852727 
L 137.7 -182.143636 
L 137.7 -184.434545 
L 137.7 -186.725455 
L 137.7 -189.016364 
L 137.7 -191.307273 
L 137.7 -193.598182 
L 137.7 -195.889091 
L 137.7 -198.18 
L 137.7 -200.470909 
L 137.7 -202.761818 
L 137.7 -205.052727 
L 137.7 -207.343636 
L 137.7 -209.634545 
L 137.7 -211.925455 
L 137.7 -214.216364 
L 137.7 -216.507273 
L 137.7 -218.798182 
L 137.7 -221.089091 
L 137.7 -223.38 
L 137.7 -225.670909 
L 137.7 -227.961818 
L 137.7 -230.252727 
L 137.7 -232.543636 
L 137.7 -234.834545 
L 137.7 -237.125455 
L 137.7 -239.416364 
L 137.7 -241.707273 
L 137.7 -243.998182 
L 137.7 -246.289091 
L 137.7 -248.58 
L 137.7 -250.870909 
L 137.7 -253.161818 
L 137.7 -255.452727 
L 137.7 -257.743636 
L 137.7 -260.034545 
L 137.7 -262.325455 
L 137.7 -264.616364 
L 137.7 -266.907273 
L 137.7 -269.198182 
L 137.7 -271.489091 
L 137.7 -273.78 
L 140.332674 -273.78 
L 140.332674 -273.78 
L 140.782282 -271.489091 
L 141.286472 -269.198182 
L 141.847477 -266.907273 
L 142.466765 -264.616364 
L 143.144889 -262.325455 
L 143.88134 -260.034545 
L 144.674417 -257.743636 
L 145.521116 -255.452727 
L 146.417058 -253.161818 
L 147.356445 -250.870909 
L 148.332067 -248.58 
L 149.335351 -246.289091 
L 150.356476 -243.998182 
L 151.384527 -241.707273 
L 152.407711 -239.416364 
L 153.413629 -237.125455 
L 154.389582 -234.834545 
L 155.32292 -232.543636 
L 156.201423 -230.252727 
L 157.013683 -227.961818 
L 157.749504 -225.670909 
L 158.400271 -223.38 
L 158.959306 -221.089091 
L 159.422171 -218.798182 
L 159.786916 -216.507273 
L 160.05427 -214.216364 
L 160.227745 -211.925455 
L 160.313664 -209.634545 
L 160.321105 -207.343636 
L 160.261762 -205.052727 
L 160.149719 -202.761818 
L 160.001163 -200.470909 
L 159.834018 -198.18 
L 159.667535 -195.889091 
L 159.521837 -193.598182 
L 159.417434 -191.307273 
L 159.374728 -189.016364 
L 159.41351 -186.725455 
L 159.552471 -184.434545 
L 159.808737 -182.143636 
L 160.197426 -179.852727 
L 160.731256 -177.561818 
L 161.420189 -175.270909 
L 162.27113 -172.98 
L 163.287684 -170.689091 
L 164.469963 -168.398182 
L 165.814464 -166.107273 
L 167.314004 -163.816364 
L 168.957723 -161.525455 
L 170.731155 -159.234545 
L 172.616366 -156.943636 
L 174.592168 -154.652727 
L 176.634398 -152.361818 
L 178.716276 -150.070909 
L 180.80883 -147.78 
L 182.881386 -145.489091 
L 184.902121 -143.198182 
L 186.838671 -140.907273 
L 188.658775 -138.616364 
L 190.330957 -136.325455 
L 191.825206 -134.034545 
L 193.113663 -131.743636 
L 194.171273 -129.452727 
L 194.97639 -127.161818 
L 195.51132 -124.870909 
L 195.762766 -122.58 
L 195.72218 -120.289091 
L 195.385986 -117.998182 
L 194.755678 -115.707273 
L 193.837784 -113.416364 
L 192.643692 -111.125455 
L 191.189346 -108.834545 
L 189.494824 -106.543636 
L 187.583807 -104.252727 
L 185.48296 -101.961818 
L 183.221253 -99.670909 
L 180.829234 -97.38 
L 178.338292 -95.089091 
L 175.779925 -92.798182 
L 173.185039 -90.507273 
L 170.58331 -88.216364 
L 168.002605 -85.925455 
L 165.468502 -83.634545 
L 163.003896 -81.343636 
L 160.628719 -79.052727 
L 158.35975 -76.761818 
L 156.210543 -74.470909 
L 154.191431 -72.18 
L 152.309632 -69.889091 
L 150.569419 -67.598182 
L 148.972353 -65.307273 
L 147.517563 -63.016364 
L 146.202057 -60.725455 
L 145.02105 -58.434545 
L 143.968301 -56.143636 
L 143.036441 -53.852727 
L 142.217281 -51.561818 
L 141.502109 -49.270909 
L 140.881943 -46.98 
z
" style="stroke: #3f3f3f; stroke-width: 1.25"/>
    </defs>
    <g clip-path="url(#p113f98904a)">
     <use xlink:href="#m24a6d687fb" x="0" y="324" style="fill: #e1812c; stroke: #3f3f3f; stroke-width: 1.25"/>
    </g>
   </g>
   <g id="FillBetweenPolyCollection_3">
    <defs>
     <path id="m78a54e2f3d" d="M 305.1 -94.696411 
L 301.123646 -94.696411 
L 300.090104 -96.036324 
L 298.857156 -97.376237 
L 297.405773 -98.71615 
L 295.720123 -100.056063 
L 293.788965 -101.395976 
L 291.607042 -102.735889 
L 289.176383 -104.075801 
L 286.507383 -105.415714 
L 283.619561 -106.755627 
L 280.541872 -108.09554 
L 277.312498 -109.435453 
L 273.978055 -110.775366 
L 270.592204 -112.115279 
L 267.213715 -113.455191 
L 263.904066 -114.795104 
L 260.724727 -116.135017 
L 257.73432 -117.47493 
L 254.985855 -118.814843 
L 252.524279 -120.154756 
L 250.384531 -121.494669 
L 248.590282 -122.834581 
L 247.153467 -124.174494 
L 246.07466 -125.514407 
L 245.344248 -126.85432 
L 244.944285 -128.194233 
L 244.850856 -129.534146 
L 245.036707 -130.874059 
L 245.473886 -132.213971 
L 246.136126 -133.553884 
L 247.000771 -134.893797 
L 248.050034 -136.23371 
L 249.271523 -137.573623 
L 250.65799 -138.913536 
L 252.206395 -140.253449 
L 253.916403 -141.593361 
L 255.788523 -142.933274 
L 257.822111 -144.273187 
L 260.013468 -145.6131 
L 262.354249 -146.953013 
L 264.83034 -148.292926 
L 267.421321 -149.632839 
L 270.100555 -150.972751 
L 272.835864 -152.312664 
L 275.590726 -153.652577 
L 278.325844 -154.99249 
L 281.00095 -156.332403 
L 283.576653 -157.672316 
L 286.016202 -159.012229 
L 288.287014 -160.352142 
L 290.361888 -161.692054 
L 292.219831 -163.031967 
L 293.846506 -164.37188 
L 295.234292 -165.711793 
L 296.382032 -167.051706 
L 297.294506 -168.391619 
L 297.981728 -169.731532 
L 298.45811 -171.071444 
L 298.741588 -172.411357 
L 298.852729 -173.75127 
L 298.813898 -175.091183 
L 298.648469 -176.431096 
L 298.380138 -177.771009 
L 298.032308 -179.110922 
L 297.627581 -180.450834 
L 297.187333 -181.790747 
L 296.731385 -183.13066 
L 296.277752 -184.470573 
L 295.842484 -185.810486 
L 295.439579 -187.150399 
L 295.080961 -188.490312 
L 294.776522 -189.830224 
L 294.534199 -191.170137 
L 294.360086 -192.51005 
L 294.258546 -193.849963 
L 294.232328 -195.189876 
L 294.282667 -196.529789 
L 294.409354 -197.869702 
L 294.610797 -199.209614 
L 294.884055 -200.549527 
L 295.224871 -201.88944 
L 295.627719 -203.229353 
L 296.085871 -204.569266 
L 296.591504 -205.909179 
L 297.135863 -207.249092 
L 297.709469 -208.589004 
L 298.302381 -209.928917 
L 298.904499 -211.26883 
L 299.505885 -212.608743 
L 300.097093 -213.948656 
L 300.669474 -215.288569 
L 301.215446 -216.628482 
L 301.728701 -217.968394 
L 302.204342 -219.308307 
L 302.638948 -220.64822 
L 303.030555 -221.988133 
L 303.378573 -223.328046 
L 303.683644 -224.667959 
L 303.947454 -226.007872 
L 304.172522 -227.347784 
L 305.1 -227.347784 
L 305.1 -227.347784 
L 305.1 -226.007872 
L 305.1 -224.667959 
L 305.1 -223.328046 
L 305.1 -221.988133 
L 305.1 -220.64822 
L 305.1 -219.308307 
L 305.1 -217.968394 
L 305.1 -216.628482 
L 305.1 -215.288569 
L 305.1 -213.948656 
L 305.1 -212.608743 
L 305.1 -211.26883 
L 305.1 -209.928917 
L 305.1 -208.589004 
L 305.1 -207.249092 
L 305.1 -205.909179 
L 305.1 -204.569266 
L 305.1 -203.229353 
L 305.1 -201.88944 
L 305.1 -200.549527 
L 305.1 -199.209614 
L 305.1 -197.869702 
L 305.1 -196.529789 
L 305.1 -195.189876 
L 305.1 -193.849963 
L 305.1 -192.51005 
L 305.1 -191.170137 
L 305.1 -189.830224 
L 305.1 -188.490312 
L 305.1 -187.150399 
L 305.1 -185.810486 
L 305.1 -184.470573 
L 305.1 -183.13066 
L 305.1 -181.790747 
L 305.1 -180.450834 
L 305.1 -179.110922 
L 305.1 -177.771009 
L 305.1 -176.431096 
L 305.1 -175.091183 
L 305.1 -173.75127 
L 305.1 -172.411357 
L 305.1 -171.071444 
L 305.1 -169.731532 
L 305.1 -168.391619 
L 305.1 -167.051706 
L 305.1 -165.711793 
L 305.1 -164.37188 
L 305.1 -163.031967 
L 305.1 -161.692054 
L 305.1 -160.352142 
L 305.1 -159.012229 
L 305.1 -157.672316 
L 305.1 -156.332403 
L 305.1 -154.99249 
L 305.1 -153.652577 
L 305.1 -152.312664 
L 305.1 -150.972751 
L 305.1 -149.632839 
L 305.1 -148.292926 
L 305.1 -146.953013 
L 305.1 -145.6131 
L 305.1 -144.273187 
L 305.1 -142.933274 
L 305.1 -141.593361 
L 305.1 -140.253449 
L 305.1 -138.913536 
L 305.1 -137.573623 
L 305.1 -136.23371 
L 305.1 -134.893797 
L 305.1 -133.553884 
L 305.1 -132.213971 
L 305.1 -130.874059 
L 305.1 -129.534146 
L 305.1 -128.194233 
L 305.1 -126.85432 
L 305.1 -125.514407 
L 305.1 -124.174494 
L 305.1 -122.834581 
L 305.1 -121.494669 
L 305.1 -120.154756 
L 305.1 -118.814843 
L 305.1 -117.47493 
L 305.1 -116.135017 
L 305.1 -114.795104 
L 305.1 -113.455191 
L 305.1 -112.115279 
L 305.1 -110.775366 
L 305.1 -109.435453 
L 305.1 -108.09554 
L 305.1 -106.755627 
L 305.1 -105.415714 
L 305.1 -104.075801 
L 305.1 -102.735889 
L 305.1 -101.395976 
L 305.1 -100.056063 
L 305.1 -98.71615 
L 305.1 -97.376237 
L 305.1 -96.036324 
L 305.1 -94.696411 
z
" style="stroke: #3f3f3f; stroke-width: 1.25"/>
    </defs>
    <g clip-path="url(#p113f98904a)">
     <use xlink:href="#m78a54e2f3d" x="0" y="324" style="fill: #3274a1; stroke: #3f3f3f; stroke-width: 1.25"/>
    </g>
   </g>
   <g id="FillBetweenPolyCollection_4">
    <defs>
     <path id="me3afc753d1" d="M 307.542019 -57.834285 
L 305.1 -57.834285 
L 305.1 -59.905916 
L 305.1 -61.977546 
L 305.1 -64.049177 
L 305.1 -66.120808 
L 305.1 -68.192438 
L 305.1 -70.264069 
L 305.1 -72.335699 
L 305.1 -74.40733 
L 305.1 -76.478961 
L 305.1 -78.550591 
L 305.1 -80.622222 
L 305.1 -82.693852 
L 305.1 -84.765483 
L 305.1 -86.837114 
L 305.1 -88.908744 
L 305.1 -90.980375 
L 305.1 -93.052005 
L 305.1 -95.123636 
L 305.1 -97.195267 
L 305.1 -99.266897 
L 305.1 -101.338528 
L 305.1 -103.410158 
L 305.1 -105.481789 
L 305.1 -107.55342 
L 305.1 -109.62505 
L 305.1 -111.696681 
L 305.1 -113.768311 
L 305.1 -115.839942 
L 305.1 -117.911573 
L 305.1 -119.983203 
L 305.1 -122.054834 
L 305.1 -124.126464 
L 305.1 -126.198095 
L 305.1 -128.269726 
L 305.1 -130.341356 
L 305.1 -132.412987 
L 305.1 -134.484617 
L 305.1 -136.556248 
L 305.1 -138.627879 
L 305.1 -140.699509 
L 305.1 -142.77114 
L 305.1 -144.84277 
L 305.1 -146.914401 
L 305.1 -148.986032 
L 305.1 -151.057662 
L 305.1 -153.129293 
L 305.1 -155.200923 
L 305.1 -157.272554 
L 305.1 -159.344185 
L 305.1 -161.415815 
L 305.1 -163.487446 
L 305.1 -165.559077 
L 305.1 -167.630707 
L 305.1 -169.702338 
L 305.1 -171.773968 
L 305.1 -173.845599 
L 305.1 -175.91723 
L 305.1 -177.98886 
L 305.1 -180.060491 
L 305.1 -182.132121 
L 305.1 -184.203752 
L 305.1 -186.275383 
L 305.1 -188.347013 
L 305.1 -190.418644 
L 305.1 -192.490274 
L 305.1 -194.561905 
L 305.1 -196.633536 
L 305.1 -198.705166 
L 305.1 -200.776797 
L 305.1 -202.848427 
L 305.1 -204.920058 
L 305.1 -206.991689 
L 305.1 -209.063319 
L 305.1 -211.13495 
L 305.1 -213.20658 
L 305.1 -215.278211 
L 305.1 -217.349842 
L 305.1 -219.421472 
L 305.1 -221.493103 
L 305.1 -223.564733 
L 305.1 -225.636364 
L 305.1 -227.707995 
L 305.1 -229.779625 
L 305.1 -231.851256 
L 305.1 -233.922886 
L 305.1 -235.994517 
L 305.1 -238.066148 
L 305.1 -240.137778 
L 305.1 -242.209409 
L 305.1 -244.281039 
L 305.1 -246.35267 
L 305.1 -248.424301 
L 305.1 -250.495931 
L 305.1 -252.567562 
L 305.1 -254.639192 
L 305.1 -256.710823 
L 305.1 -258.782454 
L 305.1 -260.854084 
L 305.1 -262.925715 
L 308.273884 -262.925715 
L 308.273884 -262.925715 
L 308.88284 -260.854084 
L 309.57433 -258.782454 
L 310.351967 -256.710823 
L 311.217873 -254.639192 
L 312.172363 -252.567562 
L 313.213635 -250.495931 
L 314.337507 -248.424301 
L 315.537213 -246.35267 
L 316.803271 -244.281039 
L 318.123457 -242.209409 
L 319.482873 -240.137778 
L 320.864153 -238.066148 
L 322.247781 -235.994517 
L 323.61254 -233.922886 
L 324.936071 -231.851256 
L 326.195536 -229.779625 
L 327.368358 -227.707995 
L 328.433008 -225.636364 
L 329.369808 -223.564733 
L 330.16172 -221.493103 
L 330.79507 -219.421472 
L 331.260188 -217.349842 
L 331.551921 -215.278211 
L 331.669991 -213.20658 
L 331.619187 -211.13495 
L 331.40937 -209.063319 
L 331.055296 -206.991689 
L 330.576256 -204.920058 
L 329.995559 -202.848427 
L 329.339867 -200.776797 
L 328.638426 -198.705166 
L 327.922218 -196.633536 
L 327.223077 -194.561905 
L 326.572798 -192.490274 
L 326.002284 -190.418644 
L 325.540755 -188.347013 
L 325.215049 -186.275383 
L 325.049036 -184.203752 
L 325.063151 -182.132121 
L 325.274059 -180.060491 
L 325.694452 -177.98886 
L 326.332949 -175.91723 
L 327.194116 -173.845599 
L 328.278557 -171.773968 
L 329.583074 -169.702338 
L 331.100866 -167.630707 
L 332.82174 -165.559077 
L 334.732332 -163.487446 
L 336.816299 -161.415815 
L 339.054494 -159.344185 
L 341.425115 -157.272554 
L 343.903818 -155.200923 
L 346.463829 -153.129293 
L 349.076053 -151.057662 
L 351.709203 -148.986032 
L 354.32998 -146.914401 
L 356.903323 -144.84277 
L 359.392747 -142.77114 
L 361.760787 -140.699509 
L 363.969567 -138.627879 
L 365.981478 -136.556248 
L 367.75997 -134.484617 
L 369.270428 -132.412987 
L 370.48111 -130.341356 
L 371.364102 -128.269726 
L 371.896247 -126.198095 
L 372.06 -124.126464 
L 371.844159 -122.054834 
L 371.244427 -119.983203 
L 370.263766 -117.911573 
L 368.912509 -115.839942 
L 367.208229 -113.768311 
L 365.17534 -111.696681 
L 362.844459 -109.62505 
L 360.251548 -107.55342 
L 357.436872 -105.481789 
L 354.44382 -103.410158 
L 351.317649 -101.338528 
L 348.104195 -99.266897 
L 344.848619 -97.195267 
L 341.594237 -95.123636 
L 338.381477 -93.052005 
L 335.246996 -90.980375 
L 332.222999 -88.908744 
L 329.336749 -86.837114 
L 326.610301 -84.765483 
L 324.060419 -82.693852 
L 321.698696 -80.622222 
L 319.531816 -78.550591 
L 317.561962 -76.478961 
L 315.787317 -74.40733 
L 314.202631 -72.335699 
L 312.799828 -70.264069 
L 311.568616 -68.192438 
L 310.49708 -66.120808 
L 309.572237 -64.049177 
L 308.780532 -61.977546 
L 308.108279 -59.905916 
L 307.542019 -57.834285 
z
" style="stroke: #3f3f3f; stroke-width: 1.25"/>
    </defs>
    <g clip-path="url(#p113f98904a)">
     <use xlink:href="#me3afc753d1" x="0" y="324" style="fill: #e1812c; stroke: #3f3f3f; stroke-width: 1.25"/>
    </g>
   </g>
   <g id="patch_3">
    <path d="M 137.7 295.892174 
L 137.7 295.892174 
L 137.7 295.892174 
L 137.7 295.892174 
z
" clip-path="url(#p113f98904a)" style="fill: #3274a1; stroke: #3f3f3f; stroke-width: 1.25; stroke-linejoin: miter"/>
   </g>
   <g id="patch_4">
    <path d="M 137.7 295.892174 
L 137.7 295.892174 
L 137.7 295.892174 
L 137.7 295.892174 
z
" clip-path="url(#p113f98904a)" style="fill: #e1812c; stroke: #3f3f3f; stroke-width: 1.25; stroke-linejoin: miter"/>
   </g>
   <g id="matplotlib.axis_1">
    <g id="xtick_1">
     <g id="line2d_1">
      <defs>
       <path id="m92e01c1f23" d="M 0 0 
L 0 3.5 
" style="stroke: #000000; stroke-width: 0.8"/>
      </defs>
      <g>
       <use xlink:href="#m92e01c1f23" x="137.7" y="288.36" style="stroke: #000000; stroke-width: 0.8"/>
      </g>
     </g>
     <g id="text_1">
      <text style="font-size: 10px; font-family: 'Arial', 'Helvetica', 'DejaVu Sans', sans-serif; text-anchor: middle" x="137.7" y="302.517812" transform="rotate(-0 137.7 302.517812)">control</text>
     </g>
    </g>
    <g id="xtick_2">
     <g id="line2d_2">
      <g>
       <use xlink:href="#m92e01c1f23" x="305.1" y="288.36" style="stroke: #000000; stroke-width: 0.8"/>
      </g>
     </g>
     <g id="text_2">
      <text style="font-size: 10px; font-family: 'Arial', 'Helvetica', 'DejaVu Sans', sans-serif; text-anchor: middle" x="305.1" y="302.517812" transform="rotate(-0 305.1 302.517812)">sefl</text>
     </g>
    </g>
    <g id="text_3">
     <text style="font-size: 10px; font-family: 'Arial', 'Helvetica', 'DejaVu Sans', sans-serif; text-anchor: middle" x="221.4" y="315.663125" transform="rotate(-0 221.4 315.663125)">Condition</text>
    </g>
   </g>
   <g id="matplotlib.axis_2">
    <g id="ytick_1">
     <g id="line2d_3">
      <defs>
       <path id="m1c5c0f6ba3" d="M 0 0 
L -3.5 0 
" style="stroke: #000000; stroke-width: 0.8"/>
      </defs>
      <g>
       <use xlink:href="#m1c5c0f6ba3" x="54" y="250.945319" style="stroke: #000000; stroke-width: 0.8"/>
      </g>
     </g>
     <g id="text_4">
      <text style="font-size: 10px; font-family: 'Arial', 'Helvetica', 'DejaVu Sans', sans-serif; text-anchor: end" x="47" y="254.524225" transform="rotate(-0 47 254.524225)">5</text>
     </g>
    </g>
    <g id="ytick_2">
     <g id="line2d_4">
      <g>
       <use xlink:href="#m1c5c0f6ba3" x="54" y="205.998464" style="stroke: #000000; stroke-width: 0.8"/>
      </g>
     </g>
     <g id="text_5">
      <text style="font-size: 10px; font-family: 'Arial', 'Helvetica', 'DejaVu Sans', sans-serif; text-anchor: end" x="47" y="209.57737" transform="rotate(-0 47 209.57737)">10</text>
     </g>
    </g>
    <g id="ytick_3">
     <g id="line2d_5">
      <g>
       <use xlink:href="#m1c5c0f6ba3" x="54" y="161.051608" style="stroke: #000000; stroke-width: 0.8"/>
      </g>
     </g>
     <g id="text_6">
      <text style="font-size: 10px; font-family: 'Arial', 'Helvetica', 'DejaVu Sans', sans-serif; text-anchor: end" x="47" y="164.630515" transform="rotate(-0 47 164.630515)">15</text>
     </g>
    </g>
    <g id="ytick_4">
     <g id="line2d_6">
      <g>
       <use xlink:href="#m1c5c0f6ba3" x="54" y="116.104753" style="stroke: #000000; stroke-width: 0.8"/>
      </g>
     </g>
     <g id="text_7">
      <text style="font-size: 10px; font-family: 'Arial', 'Helvetica', 'DejaVu Sans', sans-serif; text-anchor: end" x="47" y="119.683659" transform="rotate(-0 47 119.683659)">20</text>
     </g>
    </g>
    <g id="ytick_5">
     <g id="line2d_7">
      <g>
       <use xlink:href="#m1c5c0f6ba3" x="54" y="71.157898" style="stroke: #000000; stroke-width: 0.8"/>
      </g>
     </g>
     <g id="text_8">
      <text style="font-size: 10px; font-family: 'Arial', 'Helvetica', 'DejaVu Sans', sans-serif; text-anchor: end" x="47" y="74.736804" transform="rotate(-0 47 74.736804)">25</text>
     </g>
    </g>
    <g id="text_9">
     <text style="font-size: 10px; font-family: 'Arial', 'Helvetica', 'DejaVu Sans', sans-serif; text-anchor: middle" x="29.890625" y="163.62" transform="rotate(-90 29.890625 163.62)"># of mice</text>
    </g>
   </g>
   <g id="line2d_8">
    <path d="M 134.8875 204.714268 
L 134.8875 175.177763 
" clip-path="url(#p113f98904a)" style="fill: none; stroke: #3f3f3f; stroke-width: 1.875; stroke-linecap: square"/>
   </g>
   <g id="line2d_9">
    <path d="M 134.8875 199.577484 
L 134.8875 179.03035 
" clip-path="url(#p113f98904a)" style="fill: none; stroke: #3f3f3f; stroke-width: 5.625; stroke-linecap: square"/>
   </g>
   <g id="line2d_10">
    <path d="M 134.8875 188.661819 
" clip-path="url(#p113f98904a)" style="fill: none; stroke: #3f3f3f; stroke-width: 1.5; stroke-linecap: square"/>
    <defs>
     <path id="m7768e1b802" d="M 2.34375 0 
L -2.34375 -0 
" style="stroke: #ffffff; stroke-width: 1.125"/>
    </defs>
    <g clip-path="url(#p113f98904a)">
     <use xlink:href="#m7768e1b802" x="134.8875" y="188.661819" style="fill: #ffffff; stroke: #ffffff; stroke-width: 1.125"/>
    </g>
   </g>
   <g id="line2d_11">
    <path d="M 140.5125 218.840422 
L 140.5125 108.399578 
" clip-path="url(#p113f98904a)" style="fill: none; stroke: #3f3f3f; stroke-width: 1.875; stroke-linecap: square"/>
   </g>
   <g id="line2d_12">
    <path d="M 140.5125 203.430072 
L 140.5125 158.162168 
" clip-path="url(#p113f98904a)" style="fill: none; stroke: #3f3f3f; stroke-width: 5.625; stroke-linecap: square"/>
   </g>
   <g id="line2d_13">
    <path d="M 140.5125 203.430072 
" clip-path="url(#p113f98904a)" style="fill: none; stroke: #3f3f3f; stroke-width: 1.5; stroke-linecap: square"/>
    <g clip-path="url(#p113f98904a)">
     <use xlink:href="#m7768e1b802" x="140.5125" y="203.430072" style="fill: #ffffff; stroke: #ffffff; stroke-width: 1.125"/>
    </g>
   </g>
   <g id="line2d_14">
    <path d="M 302.2875 204.714268 
L 302.2875 175.177763 
" clip-path="url(#p113f98904a)" style="fill: none; stroke: #3f3f3f; stroke-width: 1.875; stroke-linecap: square"/>
   </g>
   <g id="line2d_15">
    <path d="M 302.2875 198.293288 
L 302.2875 179.03035 
" clip-path="url(#p113f98904a)" style="fill: none; stroke: #3f3f3f; stroke-width: 5.625; stroke-linecap: square"/>
   </g>
   <g id="line2d_16">
    <path d="M 302.2875 191.872309 
" clip-path="url(#p113f98904a)" style="fill: none; stroke: #3f3f3f; stroke-width: 1.5; stroke-linecap: square"/>
    <g clip-path="url(#p113f98904a)">
     <use xlink:href="#m7768e1b802" x="302.2875" y="191.872309" style="fill: #ffffff; stroke: #ffffff; stroke-width: 1.125"/>
    </g>
   </g>
   <g id="line2d_17">
    <path d="M 307.9125 218.840422 
L 307.9125 108.399578 
" clip-path="url(#p113f98904a)" style="fill: none; stroke: #3f3f3f; stroke-width: 1.875; stroke-linecap: square"/>
   </g>
   <g id="line2d_18">
    <path d="M 307.9125 203.430072 
L 307.9125 158.162168 
" clip-path="url(#p113f98904a)" style="fill: none; stroke: #3f3f3f; stroke-width: 5.625; stroke-linecap: square"/>
   </g>
   <g id="line2d_19">
    <path d="M 307.9125 203.430072 
" clip-path="url(#p113f98904a)" style="fill: none; stroke: #3f3f3f; stroke-width: 1.5; stroke-linecap: square"/>
    <g clip-path="url(#p113f98904a)">
     <use xlink:href="#m7768e1b802" x="307.9125" y="203.430072" style="fill: #ffffff; stroke: #ffffff; stroke-width: 1.125"/>
    </g>
   </g>
   <g id="patch_5">
    <path d="M 54 288.36 
L 54 38.88 
" style="fill: none; stroke: #000000; stroke-width: 0.8; stroke-linejoin: miter; stroke-linecap: square"/>
   </g>
   <g id="patch_6">
    <path d="M 388.8 288.36 
L 388.8 38.88 
" style="fill: none; stroke: #000000; stroke-width: 0.8; stroke-linejoin: miter; stroke-linecap: square"/>
   </g>
   <g id="patch_7">
    <path d="M 54 288.36 
L 388.8 288.36 
" style="fill: none; stroke: #000000; stroke-width: 0.8; stroke-linejoin: miter; stroke-linecap: square"/>
   </g>
   <g id="patch_8">
    <path d="M 54 38.88 
L 388.8 38.88 
" style="fill: none; stroke: #000000; stroke-width: 0.8; stroke-linejoin: miter; stroke-linecap: square"/>
   </g>
   <g id="legend_1">
    <g id="patch_9">
     <path d="M 61 89.315938 
L 126.342187 89.315938 
Q 128.342187 89.315938 128.342187 87.315938 
L 128.342187 45.88 
Q 128.342187 43.88 126.342187 43.88 
L 61 43.88 
Q 59 43.88 59 45.88 
L 59 87.315938 
Q 59 89.315938 61 89.315938 
z
" style="fill: #ffffff; opacity: 0.8; stroke: #cccccc; stroke-linejoin: miter"/>
    </g>
    <g id="text_10">
     <text style="font-size: 10px; font-family: 'Arial', 'Helvetica', 'DejaVu Sans', sans-serif; text-anchor: start" x="85.055469" y="55.037813" transform="rotate(-0 85.055469 55.037813)">Sex</text>
    </g>
    <g id="patch_10">
     <path d="M 63 69.183125 
L 83 69.183125 
L 83 62.183125 
L 63 62.183125 
z
" style="fill: #3274a1; stroke: #3f3f3f; stroke-width: 1.25; stroke-linejoin: miter"/>
    </g>
    <g id="text_11">
     <text style="font-size: 10px; font-family: 'Arial', 'Helvetica', 'DejaVu Sans', sans-serif; text-anchor: start" x="91" y="69.183125" transform="rotate(-0 91 69.183125)">Male</text>
    </g>
    <g id="patch_11">
     <path d="M 63 83.328438 
L 83 83.328438 
L 83 76.328438 
L 63 76.328438 
z
" style="fill: #e1812c; stroke: #3f3f3f; stroke-width: 1.25; stroke-linejoin: miter"/>
    </g>
    <g id="text_12">
     <text style="font-size: 10px; font-family: 'Arial', 'Helvetica', 'DejaVu Sans', sans-serif; text-anchor: start" x="91" y="83.328438" transform="rotate(-0 91 83.328438)">Female</text>
    </g>
   </g>
  </g>
 </g>
 <defs>
  <clipPath id="p113f98904a">
   <rect x="54" y="38.88" width="334.8" height="249.48"/>
  </clipPath>
 </defs>
</svg>
