<?xml version="1.0" encoding="utf-8" standalone="no"?>
<!DOCTYPE svg PUBLIC "-//W3C//DTD SVG 1.1//EN"
  "http://www.w3.org/Graphics/SVG/1.1/DTD/svg11.dtd">
<svg xmlns:xlink="http://www.w3.org/1999/xlink" width="432pt" height="324pt" viewBox="0 0 432 324" xmlns="http://www.w3.org/2000/svg" version="1.1">
 <metadata>
  <rdf:RDF xmlns:dc="http://purl.org/dc/elements/1.1/" xmlns:cc="http://creativecommons.org/ns#" xmlns:rdf="http://www.w3.org/1999/02/22-rdf-syntax-ns#">
   <cc:Work>
    <dc:type rdf:resource="http://purl.org/dc/dcmitype/StillImage"/>
    <dc:date>2026-03-18T20:41:52.445136</dc:date>
    <dc:format>image/svg+xml</dc:format>
    <dc:creator>
     <cc:Agent>
      <dc:title>Matplotlib v3.10.6, https://matplotlib.org/</dc:title>
     </cc:Agent>
    </dc:creator>
   </cc:Work>
  </rdf:RDF>
 </metadata>
 <defs>
  <style type="text/css">*{stroke-linejoin: round; stroke-linecap: butt}</style>
 </defs>
 <g id="figure_1">
  <g id="patch_1">
   <path d="M 0 324 
L 432 324 
L 432 0 
L 0 0 
z
" style="fill: #ffffff"/>
  </g>
  <g id="axes_1">
   <g id="patch_2">
    <path d="M 54 288.36 
L 388.8 288.36 
L 388.8 38.88 
L 54 38.88 
z
" style="fill: #ffffff"/>
   </g>
   <g id="patch_3">
    <path d="M 70.74 288.36 
L 137.7 288.36 
L 137.7 139.86 
L 70.74 139.86 
z
" clip-path="url(#p4b5f8aa214)" style="fill: #3274a1"/>
   </g>
   <g id="patch_4">
    <path d="M 238.14 288.36 
L 305.1 288.36 
L 305.1 50.76 
L 238.14 50.76 
z
" clip-path="url(#p4b5f8aa214)" style="fill: #3274a1"/>
   </g>
   <g id="patch_5">
    <path d="M 137.7 288.36 
L 204.66 288.36 
L 204.66 159.66 
L 137.7 159.66 
z
" clip-path="url(#p4b5f8aa214)" style="fill: #e1812c"/>
   </g>
   <g id="patch_6">
    <path d="M 305.1 288.36 
L 372.06 288.36 
L 372.06 70.56 
L 305.1 70.56 
z
" clip-path="url(#p4b5f8aa214)" style="fill: #e1812c"/>
   </g>
   <g id="patch_7">
    <path d="M 137.7 288.36 
L 137.7 288.36 
L 137.7 288.36 
L 137.7 288.36 
z
" clip-path="url(#p4b5f8aa214)" style="fill: #3274a1"/>
   </g>
   <g id="patch_8">
    <path d="M 137.7 288.36 
L 137.7 288.36 
L 137.7 288.36 
L 137.7 288.36 
z
" clip-path="url(#p4b5f8aa214)" style="fill: #e1812c"/>
   </g>
   <g id="matplotlib.axis_1">
    <g id="xtick_1">
     <g id="line2d_1">
      <defs>
       <path id="m17a71f8fce" d="M 0 0 
L 0 3.5 
" style="stroke: #000000; stroke-width: 0.8"/>
      </defs>
      <g>
       <use xlink:href="#m17a71f8fce" x="137.7" y="288.36" style="stroke: #000000; stroke-width: 0.8"/>
      </g>
     </g>
     <g id="text_1">
      <text style="font-size: 10px; font-family: 'Arial', 'Helvetica', 'DejaVu Sans', sans-serif; text-anchor: middle" x="137.7" y="302.517812" transform="rotate(-0 137.7 302.517812)">control</text>
     </g>
    </g>
    <g id="xtick_2">
     <g id="line2d_2">
      <g>
       <use xlink:href="#m17a71f8fce" x="305.1" y="288.36" style="stroke: #000000; stroke-width: 0.8"/>
      </g>
     </g>
     <g id="text_2">
      <text style="font-size: 10px; font-family: 'Arial', 'Helvetica', 'DejaVu Sans', sans-serif; text-anchor: middle" x="305.1" y="302.517812" transform="rotate(-0 305.1 302.517812)">sefl</text>
     </g>
    </g>
    <g id="text_3">
     <text style="font-size: 10px; font-family: 'Arial', 'Helvetica', 'DejaVu Sans', sans-serif; text-anchor: middle" x="221.4" y="315.663125" transform="rotate(-0 221.4 315.663125)">Condition</text>
    </g>
   </g>
   <g id="matplotlib.axis_2">
    <g id="ytick_1">
     <g id="line2d_3">
      <defs>
       <path id="m137629e805" d="M 0 0 
L -3.5 0 
" style="stroke: #000000; stroke-width: 0.8"/>
      </defs>
      <g>
       <use xlink:href="#m137629e805" x="54" y="288.36" style="stroke: #000000; stroke-width: 0.8"/>
      </g>
     </g>
     <g id="text_4">
      <text style="font-size: 10px; font-family: 'Arial', 'Helvetica', 'DejaVu Sans', sans-serif; text-anchor: end" x="47" y="291.938906" transform="rotate(-0 47 291.938906)">0</text>
     </g>
    </g>
    <g id="ytick_2">
     <g id="line2d_4">
      <g>
       <use xlink:href="#m137629e805" x="54" y="238.86" style="stroke: #000000; stroke-width: 0.8"/>
      </g>
     </g>
     <g id="text_5">
      <text style="font-size: 10px; font-family: 'Arial', 'Helvetica', 'DejaVu Sans', sans-serif; text-anchor: end" x="47" y="242.438906" transform="rotate(-0 47 242.438906)">5</text>
     </g>
    </g>
    <g id="ytick_3">
     <g id="line2d_5">
      <g>
       <use xlink:href="#m137629e805" x="54" y="189.36" style="stroke: #000000; stroke-width: 0.8"/>
      </g>
     </g>
     <g id="text_6">
      <text style="font-size: 10px; font-family: 'Arial', 'Helvetica', 'DejaVu Sans', sans-serif; text-anchor: end" x="47" y="192.938906" transform="rotate(-0 47 192.938906)">10</text>
     </g>
    </g>
    <g id="ytick_4">
     <g id="line2d_6">
      <g>
       <use xlink:href="#m137629e805" x="54" y="139.86" style="stroke: #000000; stroke-width: 0.8"/>
      </g>
     </g>
     <g id="text_7">
      <text style="font-size: 10px; font-family: 'Arial', 'Helvetica', 'DejaVu Sans', sans-serif; text-anchor: end" x="47" y="143.438906" transform="rotate(-0 47 143.438906)">15</text>
     </g>
    </g>
    <g id="ytick_5">
     <g id="line2d_7">
      <g>
       <use xlink:href="#m137629e805" x="54" y="90.36" style="stroke: #000000; stroke-width: 0.8"/>
      </g>
     </g>
     <g id="text_8">
      <text style="font-size: 10px; font-family: 'Arial', 'Helvetica', 'DejaVu Sans', sans-serif; text-anchor: end" x="47" y="93.938906" transform="rotate(-0 47 93.938906)">20</text>
     </g>
    </g>
    <g id="ytick_6">
     <g id="line2d_8">
      <g>
       <use xlink:href="#m137629e805" x="54" y="40.86" style="stroke: #000000; stroke-width: 0.8"/>
      </g>
     </g>
     <g id="text_9">
      <text style="font-size: 10px; font-family: 'Arial', 'Helvetica', 'DejaVu Sans', sans-serif; text-anchor: end" x="47" y="44.438906" transform="rotate(-0 47 44.438906)">25</text>
     </g>
    </g>
    <g id="text_10">
     <text style="font-size: 10px; font-family: 'Arial', 'Helvetica', 'DejaVu Sans', sans-serif; text-anchor: middle" x="29.890625" y="163.62" transform="rotate(-90 29.890625 163.62)">Count</text>
    </g>
   </g>
   <g id="patch_9">
    <path d="M 54 288.36 
L 54 38.88 
" style="fill: none; stroke: #000000; stroke-width: 0.8; stroke-linejoin: miter; stroke-linecap: square"/>
   </g>
   <g id="patch_10">
    <path d="M 388.8 288.36 
L 388.8 38.88 
" style="fill: none; stroke: #000000; stroke-width: 0.8; stroke-linejoin: miter; stroke-linecap: square"/>
   </g>
   <g id="patch_11">
    <path d="M 54 288.36 
L 388.8 288.36 
" style="fill: none; stroke: #000000; stroke-width: 0.8; stroke-linejoin: miter; stroke-linecap: square"/>
   </g>
   <g id="patch_12">
    <path d="M 54 38.88 
L 388.8 38.88 
" style="fill: none; stroke: #000000; stroke-width: 0.8; stroke-linejoin: miter; stroke-linecap: square"/>
   </g>
   <g id="text_11">
    <text style="font-size: 12px; font-family: 'Arial', 'Helvetica', 'DejaVu Sans', sans-serif; text-anchor: middle" x="221.4" y="32.88" transform="rotate(-0 221.4 32.88)">Young/Old Distribution by Conditions</text>
   </g>
   <g id="legend_1">
    <g id="patch_13">
     <path d="M 61 89.433125 
L 117.451562 89.433125 
Q 119.451562 89.433125 119.451562 87.433125 
L 119.451562 45.88 
Q 119.451562 43.88 117.451562 43.88 
L 61 43.88 
Q 59 43.88 59 45.88 
L 59 87.433125 
Q 59 89.433125 61 89.433125 
z
" style="fill: #ffffff; opacity: 0.8; stroke: #cccccc; stroke-linejoin: miter"/>
    </g>
    <g id="text_12">
     <text style="font-size: 10px; font-family: 'Arial', 'Helvetica', 'DejaVu Sans', sans-serif; text-anchor: start" x="75.603906" y="55.037812" transform="rotate(-0 75.603906 55.037812)">young</text>
    </g>
    <g id="patch_14">
     <path d="M 63 69.300312 
L 83 69.300312 
L 83 62.300312 
L 63 62.300312 
z
" style="fill: #3274a1"/>
    </g>
    <g id="text_13">
     <text style="font-size: 10px; font-family: 'Arial', 'Helvetica', 'DejaVu Sans', sans-serif; text-anchor: start" x="91" y="69.300312" transform="rotate(-0 91 69.300312)">True</text>
    </g>
    <g id="patch_15">
     <path d="M 63 83.445625 
L 83 83.445625 
L 83 76.445625 
L 63 76.445625 
z
" style="fill: #e1812c"/>
    </g>
    <g id="text_14">
     <text style="font-size: 10px; font-family: 'Arial', 'Helvetica', 'DejaVu Sans', sans-serif; text-anchor: start" x="91" y="83.445625" transform="rotate(-0 91 83.445625)">False</text>
    </g>
   </g>
  </g>
 </g>
 <defs>
  <clipPath id="p4b5f8aa214">
   <rect x="54" y="38.88" width="334.8" height="249.48"/>
  </clipPath>
 </defs>
</svg>
