<?xml version="1.0" encoding="utf-8" standalone="no"?>
<!DOCTYPE svg PUBLIC "-//W3C//DTD SVG 1.1//EN"
  "http://www.w3.org/Graphics/SVG/1.1/DTD/svg11.dtd">
<svg xmlns:xlink="http://www.w3.org/1999/xlink" width="720pt" height="432pt" viewBox="0 0 720 432" xmlns="http://www.w3.org/2000/svg" version="1.1">
 <metadata>
  <rdf:RDF xmlns:dc="http://purl.org/dc/elements/1.1/" xmlns:cc="http://creativecommons.org/ns#" xmlns:rdf="http://www.w3.org/1999/02/22-rdf-syntax-ns#">
   <cc:Work>
    <dc:type rdf:resource="http://purl.org/dc/dcmitype/StillImage"/>
    <dc:date>2026-03-19T14:40:31.017820</dc:date>
    <dc:format>image/svg+xml</dc:format>
    <dc:creator>
     <cc:Agent>
      <dc:title>Matplotlib v3.10.6, https://matplotlib.org/</dc:title>
     </cc:Agent>
    </dc:creator>
   </cc:Work>
  </rdf:RDF>
 </metadata>
 <defs>
  <style type="text/css">*{stroke-linejoin: round; stroke-linecap: butt}</style>
 </defs>
 <g id="figure_1">
  <g id="patch_1">
   <path d="M 0 432 
L 720 432 
L 720 0 
L 0 0 
z
" style="fill: #ffffff"/>
  </g>
  <g id="axes_1">
   <g id="patch_2">
    <path d="M 74.54 390.44 
L 198.612 390.44 
L 198.612 78.60375 
L 74.54 78.60375 
z
" style="fill: #ffffff"/>
   </g>
   <g id="matplotlib.axis_1">
    <g id="xtick_1">
     <g id="line2d_1">
      <defs>
       <path id="m0e6e3229ba" d="M 0 0 
L 0 3.5 
" style="stroke: #000000; stroke-width: 0.8"/>
      </defs>
      <g>
       <use xlink:href="#m0e6e3229ba" x="136.576" y="390.44" style="stroke: #000000; stroke-width: 0.8"/>
      </g>
     </g>
     <g id="text_1">
      <text style="font-size: 26px; font-family: 'Arial'; text-anchor: middle" x="136.576" y="416.050313" transform="rotate(-0 136.576 416.050313)">sefla</text>
     </g>
    </g>
   </g>
   <g id="matplotlib.axis_2">
    <g id="ytick_1">
     <g id="line2d_2">
      <defs>
       <path id="mc8e0495e80" d="M 0 0 
L -3.5 0 
" style="stroke: #000000; stroke-width: 0.8"/>
      </defs>
      <g>
       <use xlink:href="#mc8e0495e80" x="74.54" y="390.44" style="stroke: #000000; stroke-width: 0.8"/>
      </g>
     </g>
     <g id="text_2">
      <text style="font-size: 26px; font-family: 'Arial'; text-anchor: end" x="67.54" y="399.745156" transform="rotate(-0 67.54 399.745156)">0</text>
     </g>
    </g>
    <g id="ytick_2">
     <g id="line2d_3">
      <g>
       <use xlink:href="#mc8e0495e80" x="74.54" y="286.494583" style="stroke: #000000; stroke-width: 0.8"/>
      </g>
     </g>
     <g id="text_3">
      <text style="font-size: 26px; font-family: 'Arial'; text-anchor: end" x="67.54" y="295.79974" transform="rotate(-0 67.54 295.79974)">20</text>
     </g>
    </g>
    <g id="ytick_3">
     <g id="line2d_4">
      <g>
       <use xlink:href="#mc8e0495e80" x="74.54" y="182.549167" style="stroke: #000000; stroke-width: 0.8"/>
      </g>
     </g>
     <g id="text_4">
      <text style="font-size: 26px; font-family: 'Arial'; text-anchor: end" x="67.54" y="191.854323" transform="rotate(-0 67.54 191.854323)">40</text>
     </g>
    </g>
    <g id="ytick_4">
     <g id="line2d_5">
      <g>
       <use xlink:href="#mc8e0495e80" x="74.54" y="78.60375" style="stroke: #000000; stroke-width: 0.8"/>
      </g>
     </g>
     <g id="text_5">
      <text style="font-size: 26px; font-family: 'Arial'; text-anchor: end" x="67.54" y="87.908906" transform="rotate(-0 67.54 87.908906)">60</text>
     </g>
    </g>
    <g id="text_6">
     <text style="font-size: 26px; font-family: 'Arial'; text-anchor: middle" x="29.150938" y="234.521875" transform="rotate(-90 29.150938 234.521875)">Freezing Time (%)</text>
    </g>
   </g>
   <g id="line2d_6">
    <path d="M 136.576 341.041737 
" clip-path="url(#pb363983c2e)" style="fill: none; stroke: #1f77b4; stroke-width: 2.7; stroke-linecap: square"/>
    <defs>
     <path id="m8f4c78cdfa" d="M 0 3.383948 
C 0.897434 3.383948 1.758231 3.027394 2.392813 2.392813 
C 3.027394 1.758231 3.383948 0.897434 3.383948 0 
C 3.383948 -0.897434 3.027394 -1.758231 2.392813 -2.392813 
C 1.758231 -3.027394 0.897434 -3.383948 0 -3.383948 
C -0.897434 -3.383948 -1.758231 -3.027394 -2.392813 -2.392813 
C -3.027394 -1.758231 -3.383948 -0.897434 -3.383948 0 
C -3.383948 0.897434 -3.027394 1.758231 -2.392813 2.392813 
C -1.758231 3.027394 -0.897434 3.383948 0 3.383948 
z
" style="stroke: #1f77b4; stroke-width: 2.025"/>
    </defs>
    <g clip-path="url(#pb363983c2e)">
     <use xlink:href="#m8f4c78cdfa" x="136.576" y="341.041737" style="fill: #1f77b4; stroke: #1f77b4; stroke-width: 2.025"/>
    </g>
   </g>
   <g id="line2d_7">
    <path d="M 136.576 366.894565 
L 136.576 306.547047 
" clip-path="url(#pb363983c2e)" style="fill: none; stroke: #1f77b4; stroke-width: 2.7; stroke-linecap: square"/>
   </g>
   <g id="line2d_8">
    <path d="M 136.576 109.843437 
" clip-path="url(#pb363983c2e)" style="fill: none; stroke: #ff7f0e; stroke-width: 2.7; stroke-linecap: square"/>
    <defs>
     <path id="m75c5e005e4" d="M 0 3.383948 
C 0.897434 3.383948 1.758231 3.027394 2.392813 2.392813 
C 3.027394 1.758231 3.383948 0.897434 3.383948 0 
C 3.383948 -0.897434 3.027394 -1.758231 2.392813 -2.392813 
C 1.758231 -3.027394 0.897434 -3.383948 0 -3.383948 
C -0.897434 -3.383948 -1.758231 -3.027394 -2.392813 -2.392813 
C -3.027394 -1.758231 -3.383948 -0.897434 -3.383948 0 
C -3.383948 0.897434 -3.027394 1.758231 -2.392813 2.392813 
C -1.758231 3.027394 -0.897434 3.383948 0 3.383948 
z
" style="stroke: #ff7f0e; stroke-width: 2.025"/>
    </defs>
    <g clip-path="url(#pb363983c2e)">
     <use xlink:href="#m75c5e005e4" x="136.576" y="109.843437" style="fill: #ff7f0e; stroke: #ff7f0e; stroke-width: 2.025"/>
    </g>
   </g>
   <g id="line2d_9">
    <path d="M 136.576 137.475678 
L 136.576 87.279283 
" clip-path="url(#pb363983c2e)" style="fill: none; stroke: #ff7f0e; stroke-width: 2.7; stroke-linecap: square"/>
   </g>
   <g id="line2d_10"/>
   <g id="line2d_11"/>
   <g id="patch_3">
    <path d="M 74.54 390.44 
L 74.54 78.60375 
" style="fill: none; stroke: #000000; stroke-width: 0.8; stroke-linejoin: miter; stroke-linecap: square"/>
   </g>
   <g id="patch_4">
    <path d="M 74.54 390.44 
L 198.612 390.44 
" style="fill: none; stroke: #000000; stroke-width: 0.8; stroke-linejoin: miter; stroke-linecap: square"/>
   </g>
  </g>
  <g id="axes_2">
   <g id="patch_5">
    <path d="M 212.912 390.44 
L 709.2 390.44 
L 709.2 78.60375 
L 212.912 78.60375 
z
" style="fill: #ffffff"/>
   </g>
   <g id="matplotlib.axis_3">
    <g id="xtick_2">
     <g id="line2d_12">
      <g>
       <use xlink:href="#m0e6e3229ba" x="262.5408" y="390.44" style="stroke: #000000; stroke-width: 0.8"/>
      </g>
     </g>
     <g id="text_7">
      <text style="font-size: 26px; font-family: 'Arial'; text-anchor: middle" x="262.5408" y="416.050313" transform="rotate(-0 262.5408 416.050313)">seflb</text>
     </g>
    </g>
    <g id="xtick_3">
     <g id="line2d_13">
      <g>
       <use xlink:href="#m0e6e3229ba" x="361.7984" y="390.44" style="stroke: #000000; stroke-width: 0.8"/>
      </g>
     </g>
     <g id="text_8">
      <text style="font-size: 26px; font-family: 'Arial'; text-anchor: middle" x="361.7984" y="416.050313" transform="rotate(-0 361.7984 416.050313)">recall1</text>
     </g>
    </g>
    <g id="xtick_4">
     <g id="line2d_14">
      <g>
       <use xlink:href="#m0e6e3229ba" x="461.056" y="390.44" style="stroke: #000000; stroke-width: 0.8"/>
      </g>
     </g>
     <g id="text_9">
      <text style="font-size: 26px; font-family: 'Arial'; text-anchor: middle" x="461.056" y="416.050313" transform="rotate(-0 461.056 416.050313)">recall2</text>
     </g>
    </g>
    <g id="xtick_5">
     <g id="line2d_15">
      <g>
       <use xlink:href="#m0e6e3229ba" x="560.3136" y="390.44" style="stroke: #000000; stroke-width: 0.8"/>
      </g>
     </g>
     <g id="text_10">
      <text style="font-size: 26px; font-family: 'Arial'; text-anchor: middle" x="560.3136" y="416.050313" transform="rotate(-0 560.3136 416.050313)">recall3</text>
     </g>
    </g>
    <g id="xtick_6">
     <g id="line2d_16">
      <g>
       <use xlink:href="#m0e6e3229ba" x="659.5712" y="390.44" style="stroke: #000000; stroke-width: 0.8"/>
      </g>
     </g>
     <g id="text_11">
      <text style="font-size: 26px; font-family: 'Arial'; text-anchor: middle" x="659.5712" y="416.050313" transform="rotate(-0 659.5712 416.050313)">recall4</text>
     </g>
    </g>
   </g>
   <g id="matplotlib.axis_4">
    <g id="ytick_5">
     <g id="line2d_17">
      <g>
       <use xlink:href="#mc8e0495e80" x="212.912" y="390.44" style="stroke: #000000; stroke-width: 0.8"/>
      </g>
     </g>
    </g>
    <g id="ytick_6">
     <g id="line2d_18">
      <g>
       <use xlink:href="#mc8e0495e80" x="212.912" y="286.494583" style="stroke: #000000; stroke-width: 0.8"/>
      </g>
     </g>
    </g>
    <g id="ytick_7">
     <g id="line2d_19">
      <g>
       <use xlink:href="#mc8e0495e80" x="212.912" y="182.549167" style="stroke: #000000; stroke-width: 0.8"/>
      </g>
     </g>
    </g>
    <g id="ytick_8">
     <g id="line2d_20">
      <g>
       <use xlink:href="#mc8e0495e80" x="212.912" y="78.60375" style="stroke: #000000; stroke-width: 0.8"/>
      </g>
     </g>
    </g>
   </g>
   <g id="line2d_21">
    <path d="M 262.5408 380.938619 
L 361.7984 294.457187 
L 461.056 346.265123 
L 560.3136 339.52715 
L 659.5712 340.434032 
" clip-path="url(#p8ce3b23fc2)" style="fill: none; stroke: #1f77b4; stroke-width: 2.7; stroke-linecap: square"/>
    <g clip-path="url(#p8ce3b23fc2)">
     <use xlink:href="#m8f4c78cdfa" x="262.5408" y="380.938619" style="fill: #1f77b4; stroke: #1f77b4; stroke-width: 2.025"/>
     <use xlink:href="#m8f4c78cdfa" x="361.7984" y="294.457187" style="fill: #1f77b4; stroke: #1f77b4; stroke-width: 2.025"/>
     <use xlink:href="#m8f4c78cdfa" x="461.056" y="346.265123" style="fill: #1f77b4; stroke: #1f77b4; stroke-width: 2.025"/>
     <use xlink:href="#m8f4c78cdfa" x="560.3136" y="339.52715" style="fill: #1f77b4; stroke: #1f77b4; stroke-width: 2.025"/>
     <use xlink:href="#m8f4c78cdfa" x="659.5712" y="340.434032" style="fill: #1f77b4; stroke: #1f77b4; stroke-width: 2.025"/>
    </g>
   </g>
   <g id="line2d_22">
    <path d="M 262.5408 385.618605 
L 262.5408 374.010609 
" clip-path="url(#p8ce3b23fc2)" style="fill: none; stroke: #1f77b4; stroke-width: 2.7; stroke-linecap: square"/>
   </g>
   <g id="line2d_23">
    <path d="M 361.7984 316.981524 
L 361.7984 271.042298 
" clip-path="url(#p8ce3b23fc2)" style="fill: none; stroke: #1f77b4; stroke-width: 2.7; stroke-linecap: square"/>
   </g>
   <g id="line2d_24">
    <path d="M 461.056 359.951096 
L 461.056 330.182717 
" clip-path="url(#p8ce3b23fc2)" style="fill: none; stroke: #1f77b4; stroke-width: 2.7; stroke-linecap: square"/>
   </g>
   <g id="line2d_25">
    <path d="M 560.3136 361.420037 
L 560.3136 314.301695 
" clip-path="url(#p8ce3b23fc2)" style="fill: none; stroke: #1f77b4; stroke-width: 2.7; stroke-linecap: square"/>
   </g>
   <g id="line2d_26">
    <path d="M 659.5712 357.379921 
L 659.5712 320.670805 
" clip-path="url(#p8ce3b23fc2)" style="fill: none; stroke: #1f77b4; stroke-width: 2.7; stroke-linecap: square"/>
   </g>
   <g id="line2d_27">
    <path d="M 262.5408 274.911921 
L 361.7984 168.754372 
L 461.056 239.435139 
L 560.3136 267.224682 
L 659.5712 271.073876 
" clip-path="url(#p8ce3b23fc2)" style="fill: none; stroke: #ff7f0e; stroke-width: 2.7; stroke-linecap: square"/>
    <g clip-path="url(#p8ce3b23fc2)">
     <use xlink:href="#m75c5e005e4" x="262.5408" y="274.911921" style="fill: #ff7f0e; stroke: #ff7f0e; stroke-width: 2.025"/>
     <use xlink:href="#m75c5e005e4" x="361.7984" y="168.754372" style="fill: #ff7f0e; stroke: #ff7f0e; stroke-width: 2.025"/>
     <use xlink:href="#m75c5e005e4" x="461.056" y="239.435139" style="fill: #ff7f0e; stroke: #ff7f0e; stroke-width: 2.025"/>
     <use xlink:href="#m75c5e005e4" x="560.3136" y="267.224682" style="fill: #ff7f0e; stroke: #ff7f0e; stroke-width: 2.025"/>
     <use xlink:href="#m75c5e005e4" x="659.5712" y="271.073876" style="fill: #ff7f0e; stroke: #ff7f0e; stroke-width: 2.025"/>
    </g>
   </g>
   <g id="line2d_28">
    <path d="M 262.5408 298.186479 
L 262.5408 250.794031 
" clip-path="url(#p8ce3b23fc2)" style="fill: none; stroke: #ff7f0e; stroke-width: 2.7; stroke-linecap: square"/>
   </g>
   <g id="line2d_29">
    <path d="M 361.7984 201.831914 
L 361.7984 136.047748 
" clip-path="url(#p8ce3b23fc2)" style="fill: none; stroke: #ff7f0e; stroke-width: 2.7; stroke-linecap: square"/>
   </g>
   <g id="line2d_30">
    <path d="M 461.056 266.821293 
L 461.056 210.500167 
" clip-path="url(#p8ce3b23fc2)" style="fill: none; stroke: #ff7f0e; stroke-width: 2.7; stroke-linecap: square"/>
   </g>
   <g id="line2d_31">
    <path d="M 560.3136 290.992488 
L 560.3136 242.116669 
" clip-path="url(#p8ce3b23fc2)" style="fill: none; stroke: #ff7f0e; stroke-width: 2.7; stroke-linecap: square"/>
   </g>
   <g id="line2d_32">
    <path d="M 659.5712 293.767646 
L 659.5712 247.825217 
" clip-path="url(#p8ce3b23fc2)" style="fill: none; stroke: #ff7f0e; stroke-width: 2.7; stroke-linecap: square"/>
   </g>
   <g id="line2d_33"/>
   <g id="line2d_34"/>
   <g id="patch_6">
    <path d="M 212.912 390.44 
L 212.912 78.60375 
" style="fill: none; stroke: #000000; stroke-width: 0.8; stroke-linejoin: miter; stroke-linecap: square"/>
   </g>
   <g id="patch_7">
    <path d="M 212.912 390.44 
L 709.2 390.44 
" style="fill: none; stroke: #000000; stroke-width: 0.8; stroke-linejoin: miter; stroke-linecap: square"/>
   </g>
   <g id="legend_1">
    <g id="patch_8">
     <path d="M 529.7675 172.959375 
L 691 172.959375 
Q 696.2 172.959375 696.2 167.759375 
L 696.2 96.80375 
Q 696.2 91.60375 691 91.60375 
L 529.7675 91.60375 
Q 524.5675 91.60375 524.5675 96.80375 
L 524.5675 167.759375 
Q 524.5675 172.959375 529.7675 172.959375 
z
" style="fill: #ffffff; opacity: 0.8; stroke: #cccccc; stroke-linejoin: miter"/>
    </g>
    <g id="line2d_35">
     <path d="M 534.9675 111.514063 
L 560.9675 111.514063 
L 586.9675 111.514063 
" style="fill: none; stroke: #1f77b4; stroke-width: 2.7; stroke-linecap: square"/>
     <g>
      <use xlink:href="#m8f4c78cdfa" x="560.9675" y="111.514063" style="fill: #1f77b4; stroke: #1f77b4; stroke-width: 2.025"/>
     </g>
    </g>
    <g id="text_12">
     <text style="font-size: 26px; font-family: 'Arial'; text-anchor: start" x="607.7675" y="120.614063" transform="rotate(-0 607.7675 120.614063)">control</text>
    </g>
    <g id="line2d_36">
     <path d="M 534.9675 148.291875 
L 560.9675 148.291875 
L 586.9675 148.291875 
" style="fill: none; stroke: #ff7f0e; stroke-width: 2.7; stroke-linecap: square"/>
     <g>
      <use xlink:href="#m75c5e005e4" x="560.9675" y="148.291875" style="fill: #ff7f0e; stroke: #ff7f0e; stroke-width: 2.025"/>
     </g>
    </g>
    <g id="text_13">
     <text style="font-size: 26px; font-family: 'Arial'; text-anchor: start" x="607.7675" y="157.391875" transform="rotate(-0 607.7675 157.391875)">sefl</text>
    </g>
   </g>
  </g>
  <g id="text_14">
   <text style="font-size: 28px; font-family: 'Arial'; text-anchor: middle" x="360" y="29.023125" transform="rotate(-0 360 29.023125)">Freezing Time by Conditions</text>
  </g>
 </g>
 <defs>
  <clipPath id="pb363983c2e">
   <rect x="74.54" y="78.60375" width="124.072" height="311.83625"/>
  </clipPath>
  <clipPath id="p8ce3b23fc2">
   <rect x="212.912" y="78.60375" width="496.288" height="311.83625"/>
  </clipPath>
 </defs>
</svg>
