<?xml version="1.0" encoding="utf-8" standalone="no"?>
<!DOCTYPE svg PUBLIC "-//W3C//DTD SVG 1.1//EN"
  "http://www.w3.org/Graphics/SVG/1.1/DTD/svg11.dtd">
<svg xmlns:xlink="http://www.w3.org/1999/xlink" width="432pt" height="324pt" viewBox="0 0 432 324" xmlns="http://www.w3.org/2000/svg" version="1.1">
 <metadata>
  <rdf:RDF xmlns:dc="http://purl.org/dc/elements/1.1/" xmlns:cc="http://creativecommons.org/ns#" xmlns:rdf="http://www.w3.org/1999/02/22-rdf-syntax-ns#">
   <cc:Work>
    <dc:type rdf:resource="http://purl.org/dc/dcmitype/StillImage"/>
    <dc:date>2026-03-18T20:41:52.493732</dc:date>
    <dc:format>image/svg+xml</dc:format>
    <dc:creator>
     <cc:Agent>
      <dc:title>Matplotlib v3.10.6, https://matplotlib.org/</dc:title>
     </cc:Agent>
    </dc:creator>
   </cc:Work>
  </rdf:RDF>
 </metadata>
 <defs>
  <style type="text/css">*{stroke-linejoin: round; stroke-linecap: butt}</style>
 </defs>
 <g id="figure_1">
  <g id="patch_1">
   <path d="M 0 324 
L 432 324 
L 432 0 
L 0 0 
z
" style="fill: #ffffff"/>
  </g>
  <g id="axes_1">
   <g id="patch_2">
    <path d="M 54 288.36 
L 388.8 288.36 
L 388.8 38.88 
L 54 38.88 
z
" style="fill: #ffffff"/>
   </g>
   <g id="FillBetweenPolyCollection_1">
    <defs>
     <path id="m01cff53cb9" d="M 137.7 -46.98 
L 136.902864 -46.98 
L 136.714009 -47.481474 
L 136.494892 -47.982947 
L 136.244572 -48.484421 
L 135.96313 -48.985895 
L 135.651877 -49.487368 
L 135.313527 -49.988842 
L 134.952303 -50.490316 
L 134.57397 -50.991789 
L 134.185776 -51.493263 
L 133.796289 -51.994737 
L 133.415128 -52.49621 
L 133.052598 -52.997684 
L 132.719249 -53.499158 
L 132.425371 -54.000631 
L 132.180473 -54.502105 
L 131.992771 -55.003579 
L 131.868727 -55.505053 
L 131.812675 -56.006526 
L 131.826565 -56.508 
L 131.909832 -57.009474 
L 132.059419 -57.510947 
L 132.269936 -58.012421 
L 132.533942 -58.513895 
L 132.842323 -59.015368 
L 133.184737 -59.516842 
L 133.550076 -60.018316 
L 133.926913 -60.519789 
L 134.303893 -61.021263 
L 134.670028 -61.522737 
L 135.014889 -62.02421 
L 135.328661 -62.525684 
L 135.602072 -63.027158 
L 135.826207 -63.528631 
L 135.992211 -64.030105 
L 136.090934 -64.531579 
L 136.112528 -65.033052 
L 136.046072 -65.534526 
L 135.879239 -66.036 
L 135.598087 -66.537473 
L 135.18699 -67.038947 
L 134.628776 -67.540421 
L 133.905098 -68.041894 
L 132.997048 -68.543368 
L 131.886035 -69.044842 
L 130.554892 -69.546315 
L 128.989189 -70.047789 
L 127.178661 -70.549263 
L 125.11868 -71.050737 
L 122.811651 -71.55221 
L 120.268196 -72.053684 
L 117.508017 -72.555158 
L 114.560288 -73.056631 
L 111.4635 -73.558105 
L 108.264682 -74.059579 
L 105.017976 -74.561052 
L 101.782615 -75.062526 
L 98.6204 -75.564 
L 95.592829 -76.065473 
L 92.758078 -76.566947 
L 90.168077 -77.068421 
L 87.865919 -77.569894 
L 85.883833 -78.071368 
L 84.241902 -78.572842 
L 82.947671 -79.074315 
L 81.99667 -79.575789 
L 81.373825 -80.077263 
L 81.055627 -80.578736 
L 81.012843 -81.08021 
L 81.21353 -81.581684 
L 81.62603 -82.083157 
L 82.221692 -82.584631 
L 82.977029 -83.086105 
L 83.875145 -83.587578 
L 84.906305 -84.089052 
L 86.067615 -84.590526 
L 87.361914 -85.091999 
L 88.795996 -85.593473 
L 90.37841 -86.094947 
L 92.117078 -86.596421 
L 94.016996 -87.097894 
L 96.07826 -87.599368 
L 98.294612 -88.100842 
L 100.652643 -88.602315 
L 103.131695 -89.103789 
L 105.704459 -89.605263 
L 108.33816 -90.106736 
L 110.996221 -90.60821 
L 113.640186 -91.109684 
L 116.23176 -91.611157 
L 118.734753 -92.112631 
L 121.116785 -92.614105 
L 123.350638 -93.115578 
L 125.415176 -93.617052 
L 127.295808 -94.118526 
L 128.984517 -94.619999 
L 130.479493 -95.121473 
L 131.784468 -95.622947 
L 132.907822 -96.12442 
L 133.86157 -96.625894 
L 137.7 -96.625894 
L 137.7 -96.625894 
L 137.7 -96.12442 
L 137.7 -95.622947 
L 137.7 -95.121473 
L 137.7 -94.619999 
L 137.7 -94.118526 
L 137.7 -93.617052 
L 137.7 -93.115578 
L 137.7 -92.614105 
L 137.7 -92.112631 
L 137.7 -91.611157 
L 137.7 -91.109684 
L 137.7 -90.60821 
L 137.7 -90.106736 
L 137.7 -89.605263 
L 137.7 -89.103789 
L 137.7 -88.602315 
L 137.7 -88.100842 
L 137.7 -87.599368 
L 137.7 -87.097894 
L 137.7 -86.596421 
L 137.7 -86.094947 
L 137.7 -85.593473 
L 137.7 -85.091999 
L 137.7 -84.590526 
L 137.7 -84.089052 
L 137.7 -83.587578 
L 137.7 -83.086105 
L 137.7 -82.584631 
L 137.7 -82.083157 
L 137.7 -81.581684 
L 137.7 -81.08021 
L 137.7 -80.578736 
L 137.7 -80.077263 
L 137.7 -79.575789 
L 137.7 -79.074315 
L 137.7 -78.572842 
L 137.7 -78.071368 
L 137.7 -77.569894 
L 137.7 -77.068421 
L 137.7 -76.566947 
L 137.7 -76.065473 
L 137.7 -75.564 
L 137.7 -75.062526 
L 137.7 -74.561052 
L 137.7 -74.059579 
L 137.7 -73.558105 
L 137.7 -73.056631 
L 137.7 -72.555158 
L 137.7 -72.053684 
L 137.7 -71.55221 
L 137.7 -71.050737 
L 137.7 -70.549263 
L 137.7 -70.047789 
L 137.7 -69.546315 
L 137.7 -69.044842 
L 137.7 -68.543368 
L 137.7 -68.041894 
L 137.7 -67.540421 
L 137.7 -67.038947 
L 137.7 -66.537473 
L 137.7 -66.036 
L 137.7 -65.534526 
L 137.7 -65.033052 
L 137.7 -64.531579 
L 137.7 -64.030105 
L 137.7 -63.528631 
L 137.7 -63.027158 
L 137.7 -62.525684 
L 137.7 -62.02421 
L 137.7 -61.522737 
L 137.7 -61.021263 
L 137.7 -60.519789 
L 137.7 -60.018316 
L 137.7 -59.516842 
L 137.7 -59.015368 
L 137.7 -58.513895 
L 137.7 -58.012421 
L 137.7 -57.510947 
L 137.7 -57.009474 
L 137.7 -56.508 
L 137.7 -56.006526 
L 137.7 -55.505053 
L 137.7 -55.003579 
L 137.7 -54.502105 
L 137.7 -54.000631 
L 137.7 -53.499158 
L 137.7 -52.997684 
L 137.7 -52.49621 
L 137.7 -51.994737 
L 137.7 -51.493263 
L 137.7 -50.991789 
L 137.7 -50.490316 
L 137.7 -49.988842 
L 137.7 -49.487368 
L 137.7 -48.985895 
L 137.7 -48.484421 
L 137.7 -47.982947 
L 137.7 -47.481474 
L 137.7 -46.98 
z
" style="stroke: #3f3f3f; stroke-width: 1.25"/>
    </defs>
    <g clip-path="url(#p82fbca4851)">
     <use xlink:href="#m01cff53cb9" x="0" y="324" style="fill: #3274a1; stroke: #3f3f3f; stroke-width: 1.25"/>
    </g>
   </g>
   <g id="FillBetweenPolyCollection_2">
    <defs>
     <path id="m7aa8bdd7f5" d="M 145.97625 -67.741245 
L 137.7 -67.741245 
L 137.7 -69.818646 
L 137.7 -71.896047 
L 137.7 -73.973449 
L 137.7 -76.05085 
L 137.7 -78.128251 
L 137.7 -80.205653 
L 137.7 -82.283054 
L 137.7 -84.360456 
L 137.7 -86.437857 
L 137.7 -88.515258 
L 137.7 -90.59266 
L 137.7 -92.670061 
L 137.7 -94.747462 
L 137.7 -96.824864 
L 137.7 -98.902265 
L 137.7 -100.979667 
L 137.7 -103.057068 
L 137.7 -105.134469 
L 137.7 -107.211871 
L 137.7 -109.289272 
L 137.7 -111.366673 
L 137.7 -113.444075 
L 137.7 -115.521476 
L 137.7 -117.598877 
L 137.7 -119.676279 
L 137.7 -121.75368 
L 137.7 -123.831082 
L 137.7 -125.908483 
L 137.7 -127.985884 
L 137.7 -130.063286 
L 137.7 -132.140687 
L 137.7 -134.218088 
L 137.7 -136.29549 
L 137.7 -138.372891 
L 137.7 -140.450293 
L 137.7 -142.527694 
L 137.7 -144.605095 
L 137.7 -146.682497 
L 137.7 -148.759898 
L 137.7 -150.837299 
L 137.7 -152.914701 
L 137.7 -154.992102 
L 137.7 -157.069504 
L 137.7 -159.146905 
L 137.7 -161.224306 
L 137.7 -163.301708 
L 137.7 -165.379109 
L 137.7 -167.45651 
L 137.7 -169.533912 
L 137.7 -171.611313 
L 137.7 -173.688714 
L 137.7 -175.766116 
L 137.7 -177.843517 
L 137.7 -179.920919 
L 137.7 -181.99832 
L 137.7 -184.075721 
L 137.7 -186.153123 
L 137.7 -188.230524 
L 137.7 -190.307925 
L 137.7 -192.385327 
L 137.7 -194.462728 
L 137.7 -196.54013 
L 137.7 -198.617531 
L 137.7 -200.694932 
L 137.7 -202.772334 
L 137.7 -204.849735 
L 137.7 -206.927136 
L 137.7 -209.004538 
L 137.7 -211.081939 
L 137.7 -213.15934 
L 137.7 -215.236742 
L 137.7 -217.314143 
L 137.7 -219.391545 
L 137.7 -221.468946 
L 137.7 -223.546347 
L 137.7 -225.623749 
L 137.7 -227.70115 
L 137.7 -229.778551 
L 137.7 -231.855953 
L 137.7 -233.933354 
L 137.7 -236.010756 
L 137.7 -238.088157 
L 137.7 -240.165558 
L 137.7 -242.24296 
L 137.7 -244.320361 
L 137.7 -246.397762 
L 137.7 -248.475164 
L 137.7 -250.552565 
L 137.7 -252.629966 
L 137.7 -254.707368 
L 137.7 -256.784769 
L 137.7 -258.862171 
L 137.7 -260.939572 
L 137.7 -263.016973 
L 137.7 -265.094375 
L 137.7 -267.171776 
L 137.7 -269.249177 
L 137.7 -271.326579 
L 137.7 -273.40398 
L 139.267251 -273.40398 
L 139.267251 -273.40398 
L 139.561532 -271.326579 
L 139.89555 -269.249177 
L 140.271358 -267.171776 
L 140.690438 -265.094375 
L 141.153566 -263.016973 
L 141.660684 -260.939572 
L 142.210785 -258.862171 
L 142.801818 -256.784769 
L 143.430625 -254.707368 
L 144.092904 -252.629966 
L 144.783222 -250.552565 
L 145.495063 -248.475164 
L 146.22093 -246.397762 
L 146.95249 -244.320361 
L 147.680761 -242.24296 
L 148.396338 -240.165558 
L 149.089658 -238.088157 
L 149.75127 -236.010756 
L 150.372127 -233.933354 
L 150.943867 -231.855953 
L 151.459081 -229.778551 
L 151.911545 -227.70115 
L 152.296416 -225.623749 
L 152.610374 -223.546347 
L 152.851706 -221.468946 
L 153.020336 -219.391545 
L 153.117784 -217.314143 
L 153.147083 -215.236742 
L 153.11264 -213.15934 
L 153.020071 -211.081939 
L 152.876002 -209.004538 
L 152.687872 -206.927136 
L 152.463744 -204.849735 
L 152.212132 -202.772334 
L 151.941871 -200.694932 
L 151.662021 -198.617531 
L 151.38183 -196.54013 
L 151.110742 -194.462728 
L 150.858455 -192.385327 
L 150.635021 -190.307925 
L 150.450963 -188.230524 
L 150.317417 -186.153123 
L 150.246256 -184.075721 
L 150.250194 -181.99832 
L 150.342833 -179.920919 
L 150.538648 -177.843517 
L 150.852883 -175.766116 
L 151.301349 -173.688714 
L 151.900107 -171.611313 
L 152.665046 -169.533912 
L 153.611349 -167.45651 
L 154.752864 -165.379109 
L 156.101388 -163.301708 
L 157.665909 -161.224306 
L 159.451821 -159.146905 
L 161.460149 -157.069504 
L 163.686837 -154.992102 
L 166.122138 -152.914701 
L 168.750137 -150.837299 
L 171.548463 -148.759898 
L 174.488215 -146.682497 
L 177.534133 -144.605095 
L 180.645024 -142.527694 
L 183.774465 -140.450293 
L 186.871752 -138.372891 
L 189.883092 -136.29549 
L 192.752994 -134.218088 
L 195.425816 -132.140687 
L 197.847406 -130.063286 
L 199.96677 -127.985884 
L 201.737706 -125.908483 
L 203.120313 -123.831082 
L 204.082331 -121.75368 
L 204.600229 -119.676279 
L 204.66 -117.598877 
L 204.257624 -115.521476 
L 203.399181 -113.444075 
L 202.100597 -111.366673 
L 200.387057 -109.289272 
L 198.292097 -107.211871 
L 195.856425 -105.134469 
L 193.126531 -103.057068 
L 190.15315 -100.979667 
L 186.989647 -98.902265 
L 183.690385 -96.824864 
L 180.309167 -94.747462 
L 176.897787 -92.670061 
L 173.504758 -90.59266 
L 170.174242 -88.515258 
L 166.94523 -86.437857 
L 163.850957 -84.360456 
L 160.918576 -82.283054 
L 158.169069 -80.205653 
L 155.617368 -78.128251 
L 153.272674 -76.05085 
L 151.138918 -73.973449 
L 149.215341 -71.896047 
L 147.497158 -69.818646 
L 145.97625 -67.741245 
z
" style="stroke: #3f3f3f; stroke-width: 1.25"/>
    </defs>
    <g clip-path="url(#p82fbca4851)">
     <use xlink:href="#m7aa8bdd7f5" x="0" y="324" style="fill: #e1812c; stroke: #3f3f3f; stroke-width: 1.25"/>
    </g>
   </g>
   <g id="FillBetweenPolyCollection_3">
    <defs>
     <path id="m4eeaf6af47" d="M 305.1 -48.993358 
L 304.461753 -48.993358 
L 304.281254 -49.454157 
L 304.066953 -49.914957 
L 303.817959 -50.375757 
L 303.535073 -50.836557 
L 303.221129 -51.297357 
L 302.881238 -51.758156 
L 302.522879 -52.218956 
L 302.155784 -52.679756 
L 301.791621 -53.140556 
L 301.443451 -53.601356 
L 301.12499 -54.062155 
L 300.849738 -54.522955 
L 300.630038 -54.983755 
L 300.476162 -55.444555 
L 300.395516 -55.905354 
L 300.392048 -56.366154 
L 300.465928 -56.826954 
L 300.613535 -57.287754 
L 300.827751 -57.748554 
L 301.098527 -58.209353 
L 301.413666 -58.670153 
L 301.759728 -59.130953 
L 302.122969 -59.591753 
L 302.49022 -60.052553 
L 302.849635 -60.513352 
L 303.191237 -60.974152 
L 303.507252 -61.434952 
L 303.792207 -61.895752 
L 304.042824 -62.356551 
L 304.257736 -62.817351 
L 304.437065 -63.278151 
L 304.581914 -63.738951 
L 304.693788 -64.199751 
L 304.773998 -64.66055 
L 304.823036 -65.12135 
L 304.839943 -65.58215 
L 304.821662 -66.04295 
L 304.762377 -66.50375 
L 304.652845 -66.964549 
L 304.479735 -67.425349 
L 304.225027 -67.886149 
L 303.865522 -68.346949 
L 303.372568 -68.807748 
L 302.71211 -69.268548 
L 301.8452 -69.729348 
L 300.72909 -70.190148 
L 299.319022 -70.650948 
L 297.570769 -71.111747 
L 295.443926 -71.572547 
L 292.905837 -72.033347 
L 289.935952 -72.494147 
L 286.530267 -72.954946 
L 282.705431 -73.415746 
L 278.502002 -73.876546 
L 273.986344 -74.337346 
L 269.250671 -74.798146 
L 264.410891 -75.258945 
L 259.602073 -75.719745 
L 254.971607 -76.180545 
L 250.670407 -76.641345 
L 246.842779 -77.102145 
L 243.615803 -77.562944 
L 241.089244 -78.023744 
L 239.327042 -78.484544 
L 238.351366 -78.945344 
L 238.14 -79.406143 
L 238.627532 -79.866943 
L 239.710413 -80.327743 
L 241.255549 -80.788543 
L 243.111665 -81.249343 
L 245.122394 -81.710142 
L 247.139784 -82.170942 
L 249.036888 -82.631742 
L 250.718151 -83.092542 
L 252.126581 -83.553342 
L 253.24699 -84.014141 
L 254.105061 -84.474941 
L 254.762439 -84.935741 
L 255.308444 -85.396541 
L 255.849402 -85.85734 
L 256.496766 -86.31814 
L 257.355331 -86.77894 
L 258.512738 -87.23974 
L 260.031298 -87.70054 
L 261.942819 -88.161339 
L 264.246774 -88.622139 
L 266.91173 -89.082939 
L 269.879622 -89.543739 
L 273.072164 -90.004539 
L 276.398544 -90.465338 
L 279.763467 -90.926138 
L 283.074718 -91.386938 
L 286.24954 -91.847738 
L 289.219373 -92.308537 
L 291.932722 -92.769337 
L 294.356186 -93.230137 
L 296.473845 -93.690937 
L 298.285363 -94.151737 
L 299.803226 -94.612536 
L 305.1 -94.612536 
L 305.1 -94.612536 
L 305.1 -94.151737 
L 305.1 -93.690937 
L 305.1 -93.230137 
L 305.1 -92.769337 
L 305.1 -92.308537 
L 305.1 -91.847738 
L 305.1 -91.386938 
L 305.1 -90.926138 
L 305.1 -90.465338 
L 305.1 -90.004539 
L 305.1 -89.543739 
L 305.1 -89.082939 
L 305.1 -88.622139 
L 305.1 -88.161339 
L 305.1 -87.70054 
L 305.1 -87.23974 
L 305.1 -86.77894 
L 305.1 -86.31814 
L 305.1 -85.85734 
L 305.1 -85.396541 
L 305.1 -84.935741 
L 305.1 -84.474941 
L 305.1 -84.014141 
L 305.1 -83.553342 
L 305.1 -83.092542 
L 305.1 -82.631742 
L 305.1 -82.170942 
L 305.1 -81.710142 
L 305.1 -81.249343 
L 305.1 -80.788543 
L 305.1 -80.327743 
L 305.1 -79.866943 
L 305.1 -79.406143 
L 305.1 -78.945344 
L 305.1 -78.484544 
L 305.1 -78.023744 
L 305.1 -77.562944 
L 305.1 -77.102145 
L 305.1 -76.641345 
L 305.1 -76.180545 
L 305.1 -75.719745 
L 305.1 -75.258945 
L 305.1 -74.798146 
L 305.1 -74.337346 
L 305.1 -73.876546 
L 305.1 -73.415746 
L 305.1 -72.954946 
L 305.1 -72.494147 
L 305.1 -72.033347 
L 305.1 -71.572547 
L 305.1 -71.111747 
L 305.1 -70.650948 
L 305.1 -70.190148 
L 305.1 -69.729348 
L 305.1 -69.268548 
L 305.1 -68.807748 
L 305.1 -68.346949 
L 305.1 -67.886149 
L 305.1 -67.425349 
L 305.1 -66.964549 
L 305.1 -66.50375 
L 305.1 -66.04295 
L 305.1 -65.58215 
L 305.1 -65.12135 
L 305.1 -64.66055 
L 305.1 -64.199751 
L 305.1 -63.738951 
L 305.1 -63.278151 
L 305.1 -62.817351 
L 305.1 -62.356551 
L 305.1 -61.895752 
L 305.1 -61.434952 
L 305.1 -60.974152 
L 305.1 -60.513352 
L 305.1 -60.052553 
L 305.1 -59.591753 
L 305.1 -59.130953 
L 305.1 -58.670153 
L 305.1 -58.209353 
L 305.1 -57.748554 
L 305.1 -57.287754 
L 305.1 -56.826954 
L 305.1 -56.366154 
L 305.1 -55.905354 
L 305.1 -55.444555 
L 305.1 -54.983755 
L 305.1 -54.522955 
L 305.1 -54.062155 
L 305.1 -53.601356 
L 305.1 -53.140556 
L 305.1 -52.679756 
L 305.1 -52.218956 
L 305.1 -51.758156 
L 305.1 -51.297357 
L 305.1 -50.836557 
L 305.1 -50.375757 
L 305.1 -49.914957 
L 305.1 -49.454157 
L 305.1 -48.993358 
z
" style="stroke: #3f3f3f; stroke-width: 1.25"/>
    </defs>
    <g clip-path="url(#p82fbca4851)">
     <use xlink:href="#m4eeaf6af47" x="0" y="324" style="fill: #3274a1; stroke: #3f3f3f; stroke-width: 1.25"/>
    </g>
   </g>
   <g id="FillBetweenPolyCollection_4">
    <defs>
     <path id="m1005f8f56e" d="M 308.374658 -57.58605 
L 305.1 -57.58605 
L 305.1 -59.769827 
L 305.1 -61.953605 
L 305.1 -64.137382 
L 305.1 -66.321159 
L 305.1 -68.504936 
L 305.1 -70.688714 
L 305.1 -72.872491 
L 305.1 -75.056268 
L 305.1 -77.240045 
L 305.1 -79.423823 
L 305.1 -81.6076 
L 305.1 -83.791377 
L 305.1 -85.975155 
L 305.1 -88.158932 
L 305.1 -90.342709 
L 305.1 -92.526486 
L 305.1 -94.710264 
L 305.1 -96.894041 
L 305.1 -99.077818 
L 305.1 -101.261595 
L 305.1 -103.445373 
L 305.1 -105.62915 
L 305.1 -107.812927 
L 305.1 -109.996705 
L 305.1 -112.180482 
L 305.1 -114.364259 
L 305.1 -116.548036 
L 305.1 -118.731814 
L 305.1 -120.915591 
L 305.1 -123.099368 
L 305.1 -125.283145 
L 305.1 -127.466923 
L 305.1 -129.6507 
L 305.1 -131.834477 
L 305.1 -134.018255 
L 305.1 -136.202032 
L 305.1 -138.385809 
L 305.1 -140.569586 
L 305.1 -142.753364 
L 305.1 -144.937141 
L 305.1 -147.120918 
L 305.1 -149.304695 
L 305.1 -151.488473 
L 305.1 -153.67225 
L 305.1 -155.856027 
L 305.1 -158.039805 
L 305.1 -160.223582 
L 305.1 -162.407359 
L 305.1 -164.591136 
L 305.1 -166.774914 
L 305.1 -168.958691 
L 305.1 -171.142468 
L 305.1 -173.326245 
L 305.1 -175.510023 
L 305.1 -177.6938 
L 305.1 -179.877577 
L 305.1 -182.061355 
L 305.1 -184.245132 
L 305.1 -186.428909 
L 305.1 -188.612686 
L 305.1 -190.796464 
L 305.1 -192.980241 
L 305.1 -195.164018 
L 305.1 -197.347795 
L 305.1 -199.531573 
L 305.1 -201.71535 
L 305.1 -203.899127 
L 305.1 -206.082905 
L 305.1 -208.266682 
L 305.1 -210.450459 
L 305.1 -212.634236 
L 305.1 -214.818014 
L 305.1 -217.001791 
L 305.1 -219.185568 
L 305.1 -221.369345 
L 305.1 -223.553123 
L 305.1 -225.7369 
L 305.1 -227.920677 
L 305.1 -230.104455 
L 305.1 -232.288232 
L 305.1 -234.472009 
L 305.1 -236.655786 
L 305.1 -238.839564 
L 305.1 -241.023341 
L 305.1 -243.207118 
L 305.1 -245.390895 
L 305.1 -247.574673 
L 305.1 -249.75845 
L 305.1 -251.942227 
L 305.1 -254.126005 
L 305.1 -256.309782 
L 305.1 -258.493559 
L 305.1 -260.677336 
L 305.1 -262.861114 
L 305.1 -265.044891 
L 305.1 -267.228668 
L 305.1 -269.412445 
L 305.1 -271.596223 
L 305.1 -273.78 
L 307.10054 -273.78 
L 307.10054 -273.78 
L 307.506049 -271.596223 
L 307.972524 -269.412445 
L 308.504372 -267.228668 
L 309.105329 -265.044891 
L 309.778227 -262.861114 
L 310.524781 -260.677336 
L 311.345363 -258.493559 
L 312.238812 -256.309782 
L 313.202268 -254.126005 
L 314.231057 -251.942227 
L 315.318619 -249.75845 
L 316.456511 -247.574673 
L 317.634475 -245.390895 
L 318.840574 -243.207118 
L 320.061407 -241.023341 
L 321.282389 -238.839564 
L 322.488092 -236.655786 
L 323.662627 -234.472009 
L 324.790074 -232.288232 
L 325.854909 -230.104455 
L 326.842442 -227.920677 
L 327.739227 -225.7369 
L 328.533436 -223.553123 
L 329.215178 -221.369345 
L 329.77675 -219.185568 
L 330.212817 -217.001791 
L 330.520518 -214.818014 
L 330.699483 -212.634236 
L 330.751801 -210.450459 
L 330.681906 -208.266682 
L 330.496433 -206.082905 
L 330.204032 -203.899127 
L 329.815164 -201.71535 
L 329.341901 -199.531573 
L 328.797729 -197.347795 
L 328.197373 -195.164018 
L 327.556642 -192.980241 
L 326.892311 -190.796464 
L 326.222007 -188.612686 
L 325.564125 -186.428909 
L 324.937736 -184.245132 
L 324.362485 -182.061355 
L 323.85846 -179.877577 
L 323.446014 -177.6938 
L 323.145528 -175.510023 
L 322.9771 -173.326245 
L 322.960149 -171.142468 
L 323.11295 -168.958691 
L 323.452069 -166.774914 
L 323.991755 -164.591136 
L 324.743269 -162.407359 
L 325.714198 -160.223582 
L 326.907781 -158.039805 
L 328.32228 -155.856027 
L 329.950444 -153.67225 
L 331.779095 -151.488473 
L 333.788886 -149.304695 
L 335.954254 -147.120918 
L 338.243608 -144.937141 
L 340.619754 -142.753364 
L 343.04057 -140.569586 
L 345.459929 -138.385809 
L 347.828833 -136.202032 
L 350.096746 -134.018255 
L 352.213052 -131.834477 
L 354.128608 -129.6507 
L 355.797304 -127.466923 
L 357.177578 -125.283145 
L 358.233806 -123.099368 
L 358.937506 -120.915591 
L 359.2683 -118.731814 
L 359.21458 -116.548036 
L 358.77386 -114.364259 
L 357.95278 -112.180482 
L 356.766781 -109.996705 
L 355.239458 -107.812927 
L 353.401633 -105.62915 
L 351.290187 -103.445373 
L 348.946722 -101.261595 
L 346.416106 -99.077818 
L 343.744975 -96.894041 
L 340.980263 -94.710264 
L 338.167811 -92.526486 
L 335.351117 -90.342709 
L 332.570266 -88.158932 
L 329.861077 -85.975155 
L 327.254471 -83.791377 
L 324.776082 -81.6076 
L 322.446091 -79.423823 
L 320.279267 -77.240045 
L 318.2852 -75.056268 
L 316.468677 -72.872491 
L 314.830184 -70.688714 
L 313.366481 -68.504936 
L 312.07123 -66.321159 
L 310.935631 -64.137382 
L 309.949047 -61.953605 
L 309.099592 -59.769827 
L 308.374658 -57.58605 
z
" style="stroke: #3f3f3f; stroke-width: 1.25"/>
    </defs>
    <g clip-path="url(#p82fbca4851)">
     <use xlink:href="#m1005f8f56e" x="0" y="324" style="fill: #e1812c; stroke: #3f3f3f; stroke-width: 1.25"/>
    </g>
   </g>
   <g id="patch_3">
    <path d="M 137.7 385.19383 
L 137.7 385.19383 
L 137.7 385.19383 
L 137.7 385.19383 
z
" clip-path="url(#p82fbca4851)" style="fill: #3274a1; stroke: #3f3f3f; stroke-width: 1.25; stroke-linejoin: miter"/>
   </g>
   <g id="patch_4">
    <path d="M 137.7 385.19383 
L 137.7 385.19383 
L 137.7 385.19383 
L 137.7 385.19383 
z
" clip-path="url(#p82fbca4851)" style="fill: #e1812c; stroke: #3f3f3f; stroke-width: 1.25; stroke-linejoin: miter"/>
   </g>
   <g id="matplotlib.axis_1">
    <g id="xtick_1">
     <g id="line2d_1">
      <defs>
       <path id="m2734a08c76" d="M 0 0 
L 0 3.5 
" style="stroke: #000000; stroke-width: 0.8"/>
      </defs>
      <g>
       <use xlink:href="#m2734a08c76" x="137.7" y="288.36" style="stroke: #000000; stroke-width: 0.8"/>
      </g>
     </g>
     <g id="text_1">
      <text style="font-size: 10px; font-family: 'Arial', 'Helvetica', 'DejaVu Sans', sans-serif; text-anchor: middle" x="137.7" y="302.517812" transform="rotate(-0 137.7 302.517812)">control</text>
     </g>
    </g>
    <g id="xtick_2">
     <g id="line2d_2">
      <g>
       <use xlink:href="#m2734a08c76" x="305.1" y="288.36" style="stroke: #000000; stroke-width: 0.8"/>
      </g>
     </g>
     <g id="text_2">
      <text style="font-size: 10px; font-family: 'Arial', 'Helvetica', 'DejaVu Sans', sans-serif; text-anchor: middle" x="305.1" y="302.517812" transform="rotate(-0 305.1 302.517812)">sefl</text>
     </g>
    </g>
    <g id="text_3">
     <text style="font-size: 10px; font-family: 'Arial', 'Helvetica', 'DejaVu Sans', sans-serif; text-anchor: middle" x="221.4" y="315.663125" transform="rotate(-0 221.4 315.663125)">Condition</text>
    </g>
   </g>
   <g id="matplotlib.axis_2">
    <g id="ytick_1">
     <g id="line2d_3">
      <defs>
       <path id="mac9acec5f6" d="M 0 0 
L -3.5 0 
" style="stroke: #000000; stroke-width: 0.8"/>
      </defs>
      <g>
       <use xlink:href="#mac9acec5f6" x="54" y="282.512495" style="stroke: #000000; stroke-width: 0.8"/>
      </g>
     </g>
     <g id="text_4">
      <text style="font-size: 10px; font-family: 'Arial', 'Helvetica', 'DejaVu Sans', sans-serif; text-anchor: end" x="47" y="286.091401" transform="rotate(-0 47 286.091401)">7.5</text>
     </g>
    </g>
    <g id="ytick_2">
     <g id="line2d_4">
      <g>
       <use xlink:href="#mac9acec5f6" x="54" y="248.285383" style="stroke: #000000; stroke-width: 0.8"/>
      </g>
     </g>
     <g id="text_5">
      <text style="font-size: 10px; font-family: 'Arial', 'Helvetica', 'DejaVu Sans', sans-serif; text-anchor: end" x="47" y="251.864289" transform="rotate(-0 47 251.864289)">10.0</text>
     </g>
    </g>
    <g id="ytick_3">
     <g id="line2d_5">
      <g>
       <use xlink:href="#mac9acec5f6" x="54" y="214.058271" style="stroke: #000000; stroke-width: 0.8"/>
      </g>
     </g>
     <g id="text_6">
      <text style="font-size: 10px; font-family: 'Arial', 'Helvetica', 'DejaVu Sans', sans-serif; text-anchor: end" x="47" y="217.637178" transform="rotate(-0 47 217.637178)">12.5</text>
     </g>
    </g>
    <g id="ytick_4">
     <g id="line2d_6">
      <g>
       <use xlink:href="#mac9acec5f6" x="54" y="179.83116" style="stroke: #000000; stroke-width: 0.8"/>
      </g>
     </g>
     <g id="text_7">
      <text style="font-size: 10px; font-family: 'Arial', 'Helvetica', 'DejaVu Sans', sans-serif; text-anchor: end" x="47" y="183.410066" transform="rotate(-0 47 183.410066)">15.0</text>
     </g>
    </g>
    <g id="ytick_5">
     <g id="line2d_7">
      <g>
       <use xlink:href="#mac9acec5f6" x="54" y="145.604048" style="stroke: #000000; stroke-width: 0.8"/>
      </g>
     </g>
     <g id="text_8">
      <text style="font-size: 10px; font-family: 'Arial', 'Helvetica', 'DejaVu Sans', sans-serif; text-anchor: end" x="47" y="149.182954" transform="rotate(-0 47 149.182954)">17.5</text>
     </g>
    </g>
    <g id="ytick_6">
     <g id="line2d_8">
      <g>
       <use xlink:href="#mac9acec5f6" x="54" y="111.376936" style="stroke: #000000; stroke-width: 0.8"/>
      </g>
     </g>
     <g id="text_9">
      <text style="font-size: 10px; font-family: 'Arial', 'Helvetica', 'DejaVu Sans', sans-serif; text-anchor: end" x="47" y="114.955842" transform="rotate(-0 47 114.955842)">20.0</text>
     </g>
    </g>
    <g id="ytick_7">
     <g id="line2d_9">
      <g>
       <use xlink:href="#mac9acec5f6" x="54" y="77.149824" style="stroke: #000000; stroke-width: 0.8"/>
      </g>
     </g>
     <g id="text_10">
      <text style="font-size: 10px; font-family: 'Arial', 'Helvetica', 'DejaVu Sans', sans-serif; text-anchor: end" x="47" y="80.72873" transform="rotate(-0 47 80.72873)">22.5</text>
     </g>
    </g>
    <g id="ytick_8">
     <g id="line2d_10">
      <g>
       <use xlink:href="#mac9acec5f6" x="54" y="42.922712" style="stroke: #000000; stroke-width: 0.8"/>
      </g>
     </g>
     <g id="text_11">
      <text style="font-size: 10px; font-family: 'Arial', 'Helvetica', 'DejaVu Sans', sans-serif; text-anchor: end" x="47" y="46.501619" transform="rotate(-0 47 46.501619)">25.0</text>
     </g>
    </g>
    <g id="text_12">
     <text style="font-size: 10px; font-family: 'Arial', 'Helvetica', 'DejaVu Sans', sans-serif; text-anchor: middle" x="21.434375" y="163.62" transform="rotate(-90 21.434375 163.62)">Age at SEFLA</text>
    </g>
   </g>
   <g id="line2d_11">
    <path d="M 134.8875 246.329548 
L 134.8875 236.550373 
" clip-path="url(#p82fbca4851)" style="fill: none; stroke: #3f3f3f; stroke-width: 1.875; stroke-linecap: square"/>
   </g>
   <g id="line2d_12">
    <path d="M 134.8875 246.329548 
L 134.8875 237.528291 
" clip-path="url(#p82fbca4851)" style="fill: none; stroke: #3f3f3f; stroke-width: 5.625; stroke-linecap: square"/>
   </g>
   <g id="line2d_13">
    <path d="M 134.8875 244.373713 
" clip-path="url(#p82fbca4851)" style="fill: none; stroke: #3f3f3f; stroke-width: 1.5; stroke-linecap: square"/>
    <defs>
     <path id="m655a8fd2fd" d="M 2.34375 0 
L -2.34375 -0 
" style="stroke: #ffffff; stroke-width: 1.125"/>
    </defs>
    <g clip-path="url(#p82fbca4851)">
     <use xlink:href="#m655a8fd2fd" x="134.8875" y="244.373713" style="fill: #ffffff; stroke: #ffffff; stroke-width: 1.125"/>
    </g>
   </g>
   <g id="line2d_14">
    <path d="M 140.5125 207.212849 
L 140.5125 199.389509 
" clip-path="url(#p82fbca4851)" style="fill: none; stroke: #3f3f3f; stroke-width: 1.875; stroke-linecap: square"/>
   </g>
   <g id="line2d_15">
    <path d="M 140.5125 207.212849 
L 140.5125 199.389509 
" clip-path="url(#p82fbca4851)" style="fill: none; stroke: #3f3f3f; stroke-width: 5.625; stroke-linecap: square"/>
   </g>
   <g id="line2d_16">
    <path d="M 140.5125 207.212849 
" clip-path="url(#p82fbca4851)" style="fill: none; stroke: #3f3f3f; stroke-width: 1.5; stroke-linecap: square"/>
    <g clip-path="url(#p82fbca4851)">
     <use xlink:href="#m655a8fd2fd" x="140.5125" y="207.212849" style="fill: #ffffff; stroke: #ffffff; stroke-width: 1.125"/>
    </g>
   </g>
   <g id="line2d_17">
    <path d="M 302.2875 246.329548 
L 302.2875 236.550373 
" clip-path="url(#p82fbca4851)" style="fill: none; stroke: #3f3f3f; stroke-width: 1.875; stroke-linecap: square"/>
   </g>
   <g id="line2d_18">
    <path d="M 302.2875 246.329548 
L 302.2875 236.550373 
" clip-path="url(#p82fbca4851)" style="fill: none; stroke: #3f3f3f; stroke-width: 5.625; stroke-linecap: square"/>
   </g>
   <g id="line2d_19">
    <path d="M 302.2875 244.373713 
" clip-path="url(#p82fbca4851)" style="fill: none; stroke: #3f3f3f; stroke-width: 1.5; stroke-linecap: square"/>
    <g clip-path="url(#p82fbca4851)">
     <use xlink:href="#m655a8fd2fd" x="302.2875" y="244.373713" style="fill: #ffffff; stroke: #ffffff; stroke-width: 1.125"/>
    </g>
   </g>
   <g id="line2d_20">
    <path d="M 307.9125 216.992024 
L 307.9125 99.641926 
" clip-path="url(#p82fbca4851)" style="fill: none; stroke: #3f3f3f; stroke-width: 1.875; stroke-linecap: square"/>
   </g>
   <g id="line2d_21">
    <path d="M 307.9125 207.212849 
L 307.9125 125.067781 
" clip-path="url(#p82fbca4851)" style="fill: none; stroke: #3f3f3f; stroke-width: 5.625; stroke-linecap: square"/>
   </g>
   <g id="line2d_22">
    <path d="M 307.9125 200.367427 
" clip-path="url(#p82fbca4851)" style="fill: none; stroke: #3f3f3f; stroke-width: 1.5; stroke-linecap: square"/>
    <g clip-path="url(#p82fbca4851)">
     <use xlink:href="#m655a8fd2fd" x="307.9125" y="200.367427" style="fill: #ffffff; stroke: #ffffff; stroke-width: 1.125"/>
    </g>
   </g>
   <g id="patch_5">
    <path d="M 54 288.36 
L 54 38.88 
" style="fill: none; stroke: #000000; stroke-width: 0.8; stroke-linejoin: miter; stroke-linecap: square"/>
   </g>
   <g id="patch_6">
    <path d="M 388.8 288.36 
L 388.8 38.88 
" style="fill: none; stroke: #000000; stroke-width: 0.8; stroke-linejoin: miter; stroke-linecap: square"/>
   </g>
   <g id="patch_7">
    <path d="M 54 288.36 
L 388.8 288.36 
" style="fill: none; stroke: #000000; stroke-width: 0.8; stroke-linejoin: miter; stroke-linecap: square"/>
   </g>
   <g id="patch_8">
    <path d="M 54 38.88 
L 388.8 38.88 
" style="fill: none; stroke: #000000; stroke-width: 0.8; stroke-linejoin: miter; stroke-linecap: square"/>
   </g>
   <g id="legend_1">
    <g id="patch_9">
     <path d="M 61 89.555 
L 120.792187 89.555 
Q 122.792187 89.555 122.792187 87.555 
L 122.792187 45.88 
Q 122.792187 43.88 120.792187 43.88 
L 61 43.88 
Q 59 43.88 59 45.88 
L 59 87.555 
Q 59 89.555 61 89.555 
z
" style="fill: #ffffff; opacity: 0.8; stroke: #cccccc; stroke-linejoin: miter"/>
    </g>
    <g id="text_13">
     <text style="font-size: 10px; font-family: 'Arial', 'Helvetica', 'DejaVu Sans', sans-serif; text-anchor: start" x="66.715625" y="55.159688" transform="rotate(-0 66.715625 55.159688)">Age Group</text>
    </g>
    <g id="patch_10">
     <path d="M 63 69.422188 
L 83 69.422188 
L 83 62.422188 
L 63 62.422188 
z
" style="fill: #3274a1; stroke: #3f3f3f; stroke-width: 1.25; stroke-linejoin: miter"/>
    </g>
    <g id="text_14">
     <text style="font-size: 10px; font-family: 'Arial', 'Helvetica', 'DejaVu Sans', sans-serif; text-anchor: start" x="91" y="69.422188" transform="rotate(-0 91 69.422188)">YA</text>
    </g>
    <g id="patch_11">
     <path d="M 63 83.5675 
L 83 83.5675 
L 83 76.5675 
L 63 76.5675 
z
" style="fill: #e1812c; stroke: #3f3f3f; stroke-width: 1.25; stroke-linejoin: miter"/>
    </g>
    <g id="text_15">
     <text style="font-size: 10px; font-family: 'Arial', 'Helvetica', 'DejaVu Sans', sans-serif; text-anchor: start" x="91" y="83.5675" transform="rotate(-0 91 83.5675)">Adults</text>
    </g>
   </g>
  </g>
 </g>
 <defs>
  <clipPath id="p82fbca4851">
   <rect x="54" y="38.88" width="334.8" height="249.48"/>
  </clipPath>
 </defs>
</svg>
