<?xml version="1.0" encoding="utf-8" standalone="no"?>
<!DOCTYPE svg PUBLIC "-//W3C//DTD SVG 1.1//EN"
  "http://www.w3.org/Graphics/SVG/1.1/DTD/svg11.dtd">
<svg xmlns:xlink="http://www.w3.org/1999/xlink" width="432pt" height="324pt" viewBox="0 0 432 324" xmlns="http://www.w3.org/2000/svg" version="1.1">
 <metadata>
  <rdf:RDF xmlns:dc="http://purl.org/dc/elements/1.1/" xmlns:cc="http://creativecommons.org/ns#" xmlns:rdf="http://www.w3.org/1999/02/22-rdf-syntax-ns#">
   <cc:Work>
    <dc:type rdf:resource="http://purl.org/dc/dcmitype/StillImage"/>
    <dc:date>2026-03-18T20:41:52.322127</dc:date>
    <dc:format>image/svg+xml</dc:format>
    <dc:creator>
     <cc:Agent>
      <dc:title>Matplotlib v3.10.6, https://matplotlib.org/</dc:title>
     </cc:Agent>
    </dc:creator>
   </cc:Work>
  </rdf:RDF>
 </metadata>
 <defs>
  <style type="text/css">*{stroke-linejoin: round; stroke-linecap: butt}</style>
 </defs>
 <g id="figure_1">
  <g id="patch_1">
   <path d="M 0 324 
L 432 324 
L 432 0 
L 0 0 
z
" style="fill: #ffffff"/>
  </g>
  <g id="axes_1">
   <g id="patch_2">
    <path d="M 54 288.36 
L 388.8 288.36 
L 388.8 38.88 
L 54 38.88 
z
" style="fill: #ffffff"/>
   </g>
   <g id="FillBetweenPolyCollection_1">
    <defs>
     <path id="mdb82b1b45b" d="M 71.596382 -222.104843 
L 71.596382 -223.395157 
L 74.622718 -223.613862 
L 77.649054 -223.895292 
L 80.675389 -224.25361 
L 83.701725 -224.704961 
L 86.728061 -225.267355 
L 89.754396 -225.960365 
L 92.780732 -226.804628 
L 95.807068 -227.821084 
L 98.833404 -229.029954 
L 101.859739 -230.449443 
L 104.886075 -232.094211 
L 107.912411 -233.973678 
L 110.938746 -236.09027 
L 113.965082 -238.437778 
L 116.991418 -240.999982 
L 120.017754 -243.749767 
L 123.044089 -246.648895 
L 126.070425 -249.648592 
L 129.096761 -252.69104 
L 132.123096 -255.711763 
L 135.149432 -258.642791 
L 138.175768 -261.416409 
L 141.202104 -263.969142 
L 144.228439 -266.245625 
L 147.254775 -268.201935 
L 150.281111 -269.808029 
L 153.307446 -271.04897 
L 156.333782 -271.924797 
L 159.360118 -272.449037 
L 162.386454 -272.646 
L 165.412789 -272.547212 
L 168.439125 -272.187398 
L 171.465461 -271.600518 
L 174.491796 -270.816355 
L 177.518132 -269.858047 
L 180.544468 -268.740849 
L 183.570804 -267.472232 
L 186.597139 -266.053231 
L 189.623475 -264.480797 
L 192.649811 -262.750786 
L 195.676146 -260.861129 
L 198.702482 -258.814738 
L 201.728818 -256.621756 
L 204.755154 -254.300863 
L 207.781489 -251.879499 
L 210.807825 -249.393008 
L 213.834161 -246.882838 
L 216.860496 -244.394061 
L 219.886832 -241.972512 
L 222.913168 -239.661879 
L 225.939504 -237.501054 
L 228.965839 -235.52198 
L 231.992175 -233.748173 
L 235.018511 -232.193968 
L 238.044846 -230.864514 
L 241.071182 -229.756402 
L 244.097518 -228.858829 
L 247.123854 -228.155127 
L 250.150189 -227.62448 
L 253.176525 -227.243705 
L 256.202861 -226.988923 
L 259.229196 -226.837032 
L 262.255532 -226.766891 
L 265.281868 -226.760172 
L 268.308204 -226.801843 
L 271.334539 -226.880293 
L 274.360875 -226.987133 
L 277.387211 -227.11671 
L 280.413546 -227.265409 
L 283.439882 -227.430831 
L 286.466218 -227.610928 
L 289.492554 -227.803203 
L 292.518889 -228.004045 
L 295.545225 -228.208291 
L 298.571561 -228.40904 
L 301.597896 -228.597767 
L 304.624232 -228.764695 
L 307.650568 -228.899405 
L 310.676904 -228.991603 
L 313.703239 -229.031955 
L 316.729575 -229.012903 
L 319.755911 -228.929359 
L 322.782246 -228.779207 
L 325.808582 -228.563555 
L 328.834918 -228.286715 
L 331.861254 -227.95592 
L 334.887589 -227.580806 
L 337.913925 -227.172732 
L 340.940261 -226.743996 
L 343.966596 -226.307035 
L 346.992932 -225.873676 
L 350.019268 -225.45451 
L 353.045604 -225.058417 
L 356.071939 -224.69227 
L 359.098275 -224.360826 
L 362.124611 -224.06677 
L 365.150946 -223.810907 
L 368.177282 -223.592437 
L 371.203618 -223.409295 
L 371.203618 -222.090705 
L 371.203618 -222.090705 
L 368.177282 -221.907563 
L 365.150946 -221.689093 
L 362.124611 -221.43323 
L 359.098275 -221.139174 
L 356.071939 -220.80773 
L 353.045604 -220.441583 
L 350.019268 -220.04549 
L 346.992932 -219.626324 
L 343.966596 -219.192965 
L 340.940261 -218.756004 
L 337.913925 -218.327268 
L 334.887589 -217.919194 
L 331.861254 -217.54408 
L 328.834918 -217.213285 
L 325.808582 -216.936445 
L 322.782246 -216.720793 
L 319.755911 -216.570641 
L 316.729575 -216.487097 
L 313.703239 -216.468045 
L 310.676904 -216.508397 
L 307.650568 -216.600595 
L 304.624232 -216.735305 
L 301.597896 -216.902233 
L 298.571561 -217.09096 
L 295.545225 -217.291709 
L 292.518889 -217.495955 
L 289.492554 -217.696797 
L 286.466218 -217.889072 
L 283.439882 -218.069169 
L 280.413546 -218.234591 
L 277.387211 -218.38329 
L 274.360875 -218.512867 
L 271.334539 -218.619707 
L 268.308204 -218.698157 
L 265.281868 -218.739828 
L 262.255532 -218.733109 
L 259.229196 -218.662968 
L 256.202861 -218.511077 
L 253.176525 -218.256295 
L 250.150189 -217.87552 
L 247.123854 -217.344873 
L 244.097518 -216.641171 
L 241.071182 -215.743598 
L 238.044846 -214.635486 
L 235.018511 -213.306032 
L 231.992175 -211.751827 
L 228.965839 -209.97802 
L 225.939504 -207.998946 
L 222.913168 -205.838121 
L 219.886832 -203.527488 
L 216.860496 -201.105939 
L 213.834161 -198.617162 
L 210.807825 -196.106992 
L 207.781489 -193.620501 
L 204.755154 -191.199137 
L 201.728818 -188.878244 
L 198.702482 -186.685262 
L 195.676146 -184.638871 
L 192.649811 -182.749214 
L 189.623475 -181.019203 
L 186.597139 -179.446769 
L 183.570804 -178.027768 
L 180.544468 -176.759151 
L 177.518132 -175.641953 
L 174.491796 -174.683645 
L 171.465461 -173.899482 
L 168.439125 -173.312602 
L 165.412789 -172.952788 
L 162.386454 -172.854 
L 159.360118 -173.050963 
L 156.333782 -173.575203 
L 153.307446 -174.45103 
L 150.281111 -175.691971 
L 147.254775 -177.298065 
L 144.228439 -179.254375 
L 141.202104 -181.530858 
L 138.175768 -184.083591 
L 135.149432 -186.857209 
L 132.123096 -189.788237 
L 129.096761 -192.80896 
L 126.070425 -195.851408 
L 123.044089 -198.851105 
L 120.017754 -201.750233 
L 116.991418 -204.500018 
L 113.965082 -207.062222 
L 110.938746 -209.40973 
L 107.912411 -211.526322 
L 104.886075 -213.405789 
L 101.859739 -215.050557 
L 98.833404 -216.470046 
L 95.807068 -217.678916 
L 92.780732 -218.695372 
L 89.754396 -219.539635 
L 86.728061 -220.232645 
L 83.701725 -220.795039 
L 80.675389 -221.24639 
L 77.649054 -221.604708 
L 74.622718 -221.886138 
L 71.596382 -222.104843 
z
" style="stroke: #3f3f3f; stroke-width: 1.25"/>
    </defs>
    <g clip-path="url(#pc0795a99da)">
     <use xlink:href="#mdb82b1b45b" x="0" y="324" style="fill: #3274a1; stroke: #3f3f3f; stroke-width: 1.25"/>
    </g>
   </g>
   <g id="FillBetweenPolyCollection_2">
    <defs>
     <path id="mcebf1cb106" d="M 69.218182 -97.495796 
L 69.218182 -98.524204 
L 72.292562 -98.70552 
L 75.366942 -98.941725 
L 78.441322 -99.246073 
L 81.515702 -99.633835 
L 84.590083 -100.122203 
L 87.664463 -100.730014 
L 90.738843 -101.477282 
L 93.813223 -102.384481 
L 96.887603 -103.471584 
L 99.961983 -104.756851 
L 103.036364 -106.255412 
L 106.110744 -107.977694 
L 109.185124 -109.927816 
L 112.259504 -112.102058 
L 115.333884 -114.487572 
L 118.408264 -117.061498 
L 121.482645 -119.790623 
L 124.557025 -122.631723 
L 127.631405 -125.532655 
L 130.705785 -128.434208 
L 133.780165 -131.272634 
L 136.854545 -133.982719 
L 139.928926 -136.501159 
L 143.003306 -138.76996 
L 146.077686 -140.739567 
L 149.152066 -142.371422 
L 152.226446 -143.639702 
L 155.300826 -144.532082 
L 158.375207 -145.049438 
L 161.449587 -145.204569 
L 164.523967 -145.020082 
L 167.598347 -144.525692 
L 170.672727 -143.755273 
L 173.747107 -142.743962 
L 176.821488 -141.52565 
L 179.895868 -140.131093 
L 182.970248 -138.586788 
L 186.044628 -136.914684 
L 189.119008 -135.132633 
L 192.193388 -133.255447 
L 195.267769 -131.296335 
L 198.342149 -129.268455 
L 201.416529 -127.186346 
L 204.490909 -125.067024 
L 207.565289 -122.930589 
L 210.639669 -120.800285 
L 213.71405 -118.702013 
L 216.78843 -116.663378 
L 219.86281 -114.712402 
L 222.93719 -112.876075 
L 226.01157 -111.178897 
L 229.08595 -109.641586 
L 232.160331 -108.280061 
L 235.234711 -107.104787 
L 238.309091 -106.12052 
L 241.383471 -105.326439 
L 244.457851 -104.716619 
L 247.532231 -104.28077 
L 250.606612 -104.005155 
L 253.680992 -103.873595 
L 256.755372 -103.868451 
L 259.829752 -103.971531 
L 262.904132 -104.16484 
L 265.978512 -104.431139 
L 269.052893 -104.754303 
L 272.127273 -105.11947 
L 275.201653 -105.513013 
L 278.276033 -105.922373 
L 281.350413 -106.335811 
L 284.424793 -106.742119 
L 287.499174 -107.130372 
L 290.573554 -107.489755 
L 293.647934 -107.809505 
L 296.722314 -108.079005 
L 299.796694 -108.288016 
L 302.871074 -108.427041 
L 305.945455 -108.487787 
L 309.019835 -108.463673 
L 312.094215 -108.350323 
L 315.168595 -108.145996 
L 318.242975 -107.851885 
L 321.317355 -107.472249 
L 324.391736 -107.01435 
L 327.466116 -106.488191 
L 330.540496 -105.90607 
L 333.614876 -105.281976 
L 336.689256 -104.630888 
L 339.763636 -103.968023 
L 342.838017 -103.308104 
L 345.912397 -102.664686 
L 348.986777 -102.049612 
L 352.061157 -101.472612 
L 355.135537 -100.941062 
L 358.209917 -100.459916 
L 361.284298 -100.031789 
L 364.358678 -99.657166 
L 367.433058 -99.334702 
L 370.507438 -99.061585 
L 373.581818 -98.83392 
L 373.581818 -97.18608 
L 373.581818 -97.18608 
L 370.507438 -96.958415 
L 367.433058 -96.685298 
L 364.358678 -96.362834 
L 361.284298 -95.988211 
L 358.209917 -95.560084 
L 355.135537 -95.078938 
L 352.061157 -94.547388 
L 348.986777 -93.970388 
L 345.912397 -93.355314 
L 342.838017 -92.711896 
L 339.763636 -92.051977 
L 336.689256 -91.389112 
L 333.614876 -90.738024 
L 330.540496 -90.11393 
L 327.466116 -89.531809 
L 324.391736 -89.00565 
L 321.317355 -88.547751 
L 318.242975 -88.168115 
L 315.168595 -87.874004 
L 312.094215 -87.669677 
L 309.019835 -87.556327 
L 305.945455 -87.532213 
L 302.871074 -87.592959 
L 299.796694 -87.731984 
L 296.722314 -87.940995 
L 293.647934 -88.210495 
L 290.573554 -88.530245 
L 287.499174 -88.889628 
L 284.424793 -89.277881 
L 281.350413 -89.684189 
L 278.276033 -90.097627 
L 275.201653 -90.506987 
L 272.127273 -90.90053 
L 269.052893 -91.265697 
L 265.978512 -91.588861 
L 262.904132 -91.85516 
L 259.829752 -92.048469 
L 256.755372 -92.151549 
L 253.680992 -92.146405 
L 250.606612 -92.014845 
L 247.532231 -91.73923 
L 244.457851 -91.303381 
L 241.383471 -90.693561 
L 238.309091 -89.89948 
L 235.234711 -88.915213 
L 232.160331 -87.739939 
L 229.08595 -86.378414 
L 226.01157 -84.841103 
L 222.93719 -83.143925 
L 219.86281 -81.307598 
L 216.78843 -79.356622 
L 213.71405 -77.317987 
L 210.639669 -75.219715 
L 207.565289 -73.089411 
L 204.490909 -70.952976 
L 201.416529 -68.833654 
L 198.342149 -66.751545 
L 195.267769 -64.723665 
L 192.193388 -62.764553 
L 189.119008 -60.887367 
L 186.044628 -59.105316 
L 182.970248 -57.433212 
L 179.895868 -55.888907 
L 176.821488 -54.49435 
L 173.747107 -53.276038 
L 170.672727 -52.264727 
L 167.598347 -51.494308 
L 164.523967 -50.999918 
L 161.449587 -50.815431 
L 158.375207 -50.970562 
L 155.300826 -51.487918 
L 152.226446 -52.380298 
L 149.152066 -53.648578 
L 146.077686 -55.280433 
L 143.003306 -57.25004 
L 139.928926 -59.518841 
L 136.854545 -62.037281 
L 133.780165 -64.747366 
L 130.705785 -67.585792 
L 127.631405 -70.487345 
L 124.557025 -73.388277 
L 121.482645 -76.229377 
L 118.408264 -78.958502 
L 115.333884 -81.532428 
L 112.259504 -83.917942 
L 109.185124 -86.092184 
L 106.110744 -88.042306 
L 103.036364 -89.764588 
L 99.961983 -91.263149 
L 96.887603 -92.548416 
L 93.813223 -93.635519 
L 90.738843 -94.542718 
L 87.664463 -95.289986 
L 84.590083 -95.897797 
L 81.515702 -96.386165 
L 78.441322 -96.773927 
L 75.366942 -97.078275 
L 72.292562 -97.31448 
L 69.218182 -97.495796 
z
" style="stroke: #3f3f3f; stroke-width: 1.25"/>
    </defs>
    <g clip-path="url(#pc0795a99da)">
     <use xlink:href="#mcebf1cb106" x="0" y="324" style="fill: #3274a1; stroke: #3f3f3f; stroke-width: 1.25"/>
    </g>
   </g>
   <g id="matplotlib.axis_1">
    <g id="xtick_1">
     <g id="line2d_1">
      <defs>
       <path id="m6e9e05e486" d="M 0 0 
L 0 3.5 
" style="stroke: #000000; stroke-width: 0.8"/>
      </defs>
      <g>
       <use xlink:href="#m6e9e05e486" x="63.290131" y="288.36" style="stroke: #000000; stroke-width: 0.8"/>
      </g>
     </g>
     <g id="text_1">
      <text style="font-size: 10px; font-family: 'Arial', 'Helvetica', 'DejaVu Sans', sans-serif; text-anchor: middle" x="63.290131" y="302.517812" transform="rotate(-0 63.290131 302.517812)">5</text>
     </g>
    </g>
    <g id="xtick_2">
     <g id="line2d_2">
      <g>
       <use xlink:href="#m6e9e05e486" x="144.670211" y="288.36" style="stroke: #000000; stroke-width: 0.8"/>
      </g>
     </g>
     <g id="text_2">
      <text style="font-size: 10px; font-family: 'Arial', 'Helvetica', 'DejaVu Sans', sans-serif; text-anchor: middle" x="144.670211" y="302.517812" transform="rotate(-0 144.670211 302.517812)">10</text>
     </g>
    </g>
    <g id="xtick_3">
     <g id="line2d_3">
      <g>
       <use xlink:href="#m6e9e05e486" x="226.05029" y="288.36" style="stroke: #000000; stroke-width: 0.8"/>
      </g>
     </g>
     <g id="text_3">
      <text style="font-size: 10px; font-family: 'Arial', 'Helvetica', 'DejaVu Sans', sans-serif; text-anchor: middle" x="226.05029" y="302.517812" transform="rotate(-0 226.05029 302.517812)">15</text>
     </g>
    </g>
    <g id="xtick_4">
     <g id="line2d_4">
      <g>
       <use xlink:href="#m6e9e05e486" x="307.43037" y="288.36" style="stroke: #000000; stroke-width: 0.8"/>
      </g>
     </g>
     <g id="text_4">
      <text style="font-size: 10px; font-family: 'Arial', 'Helvetica', 'DejaVu Sans', sans-serif; text-anchor: middle" x="307.43037" y="302.517812" transform="rotate(-0 307.43037 302.517812)">20</text>
     </g>
    </g>
    <g id="text_5">
     <text style="font-size: 10px; font-family: 'Arial', 'Helvetica', 'DejaVu Sans', sans-serif; text-anchor: middle" x="221.4" y="315.785" transform="rotate(-0 221.4 315.785)">Age at SEFLA (weeks)</text>
    </g>
   </g>
   <g id="matplotlib.axis_2">
    <g id="ytick_1">
     <g id="line2d_5">
      <defs>
       <path id="m96f8cb9b90" d="M 0 0 
L -3.5 0 
" style="stroke: #000000; stroke-width: 0.8"/>
      </defs>
      <g>
       <use xlink:href="#m96f8cb9b90" x="54" y="101.25" style="stroke: #000000; stroke-width: 0.8"/>
      </g>
     </g>
     <g id="text_6">
      <text style="font-size: 10px; font-family: 'Arial', 'Helvetica', 'DejaVu Sans', sans-serif; text-anchor: end" x="47" y="104.828906" transform="rotate(-0 47 104.828906)">control</text>
     </g>
    </g>
    <g id="ytick_2">
     <g id="line2d_6">
      <g>
       <use xlink:href="#m96f8cb9b90" x="54" y="225.99" style="stroke: #000000; stroke-width: 0.8"/>
      </g>
     </g>
     <g id="text_7">
      <text style="font-size: 10px; font-family: 'Arial', 'Helvetica', 'DejaVu Sans', sans-serif; text-anchor: end" x="47" y="229.568906" transform="rotate(-0 47 229.568906)">sefl</text>
     </g>
    </g>
    <g id="text_8">
     <text style="font-size: 10px; font-family: 'Arial', 'Helvetica', 'DejaVu Sans', sans-serif; text-anchor: middle" x="11" y="163.62" transform="rotate(-90 11 163.62)">Condition</text>
    </g>
   </g>
   <g id="line2d_7">
    <path d="M 121.418759 101.25 
L 202.798839 101.25 
" clip-path="url(#pc0795a99da)" style="fill: none; stroke: #3f3f3f; stroke-width: 1.875; stroke-linecap: square"/>
   </g>
   <g id="line2d_8">
    <path d="M 149.320501 101.25 
L 193.498258 101.25 
" clip-path="url(#pc0795a99da)" style="fill: none; stroke: #3f3f3f; stroke-width: 5.625; stroke-linecap: square"/>
   </g>
   <g id="line2d_9">
    <path d="M 158.621081 101.25 
" clip-path="url(#pc0795a99da)" style="fill: none; stroke: #3f3f3f; stroke-width: 1.5; stroke-linecap: square"/>
    <defs>
     <path id="mc49b231329" d="M 0 2.34375 
L 0 -2.34375 
" style="stroke: #ffffff; stroke-width: 1.125"/>
    </defs>
    <g clip-path="url(#pc0795a99da)">
     <use xlink:href="#mc49b231329" x="158.621081" y="101.25" style="fill: #ffffff; stroke: #ffffff; stroke-width: 1.125"/>
    </g>
   </g>
   <g id="line2d_10">
    <path d="M 121.418759 225.99 
L 270.228048 225.99 
" clip-path="url(#pc0795a99da)" style="fill: none; stroke: #3f3f3f; stroke-width: 1.875; stroke-linecap: square"/>
   </g>
   <g id="line2d_11">
    <path d="M 149.320501 225.99 
L 198.729835 225.99 
" clip-path="url(#pc0795a99da)" style="fill: none; stroke: #3f3f3f; stroke-width: 5.625; stroke-linecap: square"/>
   </g>
   <g id="line2d_12">
    <path d="M 158.621081 225.99 
" clip-path="url(#pc0795a99da)" style="fill: none; stroke: #3f3f3f; stroke-width: 1.5; stroke-linecap: square"/>
    <g clip-path="url(#pc0795a99da)">
     <use xlink:href="#mc49b231329" x="158.621081" y="225.99" style="fill: #ffffff; stroke: #ffffff; stroke-width: 1.125"/>
    </g>
   </g>
   <g id="patch_3">
    <path d="M 54 288.36 
L 54 38.88 
" style="fill: none; stroke: #000000; stroke-width: 0.8; stroke-linejoin: miter; stroke-linecap: square"/>
   </g>
   <g id="patch_4">
    <path d="M 388.8 288.36 
L 388.8 38.88 
" style="fill: none; stroke: #000000; stroke-width: 0.8; stroke-linejoin: miter; stroke-linecap: square"/>
   </g>
   <g id="patch_5">
    <path d="M 54 288.36 
L 388.8 288.36 
" style="fill: none; stroke: #000000; stroke-width: 0.8; stroke-linejoin: miter; stroke-linecap: square"/>
   </g>
   <g id="patch_6">
    <path d="M 54 38.88 
L 388.8 38.88 
" style="fill: none; stroke: #000000; stroke-width: 0.8; stroke-linejoin: miter; stroke-linecap: square"/>
   </g>
   <g id="text_9">
    <text style="font-size: 12px; font-family: 'Arial', 'Helvetica', 'DejaVu Sans', sans-serif; text-anchor: middle" x="221.4" y="32.88" transform="rotate(-0 221.4 32.88)">Age Distribution by Conditions</text>
   </g>
  </g>
 </g>
 <defs>
  <clipPath id="pc0795a99da">
   <rect x="54" y="38.88" width="334.8" height="249.48"/>
  </clipPath>
 </defs>
</svg>
