<?xml version="1.0" encoding="utf-8" standalone="no"?>
<!DOCTYPE svg PUBLIC "-//W3C//DTD SVG 1.1//EN"
  "http://www.w3.org/Graphics/SVG/1.1/DTD/svg11.dtd">
<svg xmlns:xlink="http://www.w3.org/1999/xlink" width="432pt" height="324pt" viewBox="0 0 432 324" xmlns="http://www.w3.org/2000/svg" version="1.1">
 <metadata>
  <rdf:RDF xmlns:dc="http://purl.org/dc/elements/1.1/" xmlns:cc="http://creativecommons.org/ns#" xmlns:rdf="http://www.w3.org/1999/02/22-rdf-syntax-ns#">
   <cc:Work>
    <dc:type rdf:resource="http://purl.org/dc/dcmitype/StillImage"/>
    <dc:date>2025-04-08T10:19:02.708372</dc:date>
    <dc:format>image/svg+xml</dc:format>
    <dc:creator>
     <cc:Agent>
      <dc:title>Matplotlib v3.9.2, https://matplotlib.org/</dc:title>
     </cc:Agent>
    </dc:creator>
   </cc:Work>
  </rdf:RDF>
 </metadata>
 <defs>
  <style type="text/css">*{stroke-linejoin: round; stroke-linecap: butt}</style>
 </defs>
 <g id="figure_1">
  <g id="patch_1">
   <path d="M 0 324 
L 432 324 
L 432 0 
L 0 0 
z
" style="fill: #ffffff"/>
  </g>
  <g id="axes_1">
   <g id="patch_2">
    <path d="M 54 288.36 
L 388.8 288.36 
L 388.8 38.88 
L 54 38.88 
z
" style="fill: #ffffff"/>
   </g>
   <g id="PolyCollection_1">
    <defs>
     <path id="m2acbd03480" d="M 137.7 -46.98 
L 136.902864 -46.98 
L 136.714009 -47.481474 
L 136.494892 -47.982947 
L 136.244572 -48.484421 
L 135.96313 -48.985895 
L 135.651877 -49.487368 
L 135.313527 -49.988842 
L 134.952303 -50.490316 
L 134.57397 -50.991789 
L 134.185776 -51.493263 
L 133.796289 -51.994737 
L 133.415128 -52.49621 
L 133.052598 -52.997684 
L 132.719249 -53.499158 
L 132.425371 -54.000631 
L 132.180473 -54.502105 
L 131.992771 -55.003579 
L 131.868727 -55.505053 
L 131.812675 -56.006526 
L 131.826565 -56.508 
L 131.909832 -57.009474 
L 132.059419 -57.510947 
L 132.269936 -58.012421 
L 132.533942 -58.513895 
L 132.842323 -59.015368 
L 133.184737 -59.516842 
L 133.550076 -60.018316 
L 133.926913 -60.519789 
L 134.303893 -61.021263 
L 134.670028 -61.522737 
L 135.014889 -62.02421 
L 135.328661 -62.525684 
L 135.602072 -63.027158 
L 135.826207 -63.528631 
L 135.992211 -64.030105 
L 136.090934 -64.531579 
L 136.112528 -65.033052 
L 136.046072 -65.534526 
L 135.879239 -66.036 
L 135.598087 -66.537473 
L 135.18699 -67.038947 
L 134.628776 -67.540421 
L 133.905098 -68.041894 
L 132.997048 -68.543368 
L 131.886035 -69.044842 
L 130.554892 -69.546315 
L 128.989189 -70.047789 
L 127.178661 -70.549263 
L 125.11868 -71.050737 
L 122.811651 -71.55221 
L 120.268196 -72.053684 
L 117.508017 -72.555158 
L 114.560288 -73.056631 
L 111.4635 -73.558105 
L 108.264682 -74.059579 
L 105.017976 -74.561052 
L 101.782615 -75.062526 
L 98.6204 -75.564 
L 95.592829 -76.065473 
L 92.758078 -76.566947 
L 90.168077 -77.068421 
L 87.865919 -77.569894 
L 85.883833 -78.071368 
L 84.241902 -78.572842 
L 82.947671 -79.074315 
L 81.99667 -79.575789 
L 81.373825 -80.077263 
L 81.055627 -80.578736 
L 81.012843 -81.08021 
L 81.21353 -81.581684 
L 81.62603 -82.083157 
L 82.221692 -82.584631 
L 82.977029 -83.086105 
L 83.875145 -83.587578 
L 84.906305 -84.089052 
L 86.067615 -84.590526 
L 87.361914 -85.091999 
L 88.795996 -85.593473 
L 90.37841 -86.094947 
L 92.117078 -86.596421 
L 94.016996 -87.097894 
L 96.07826 -87.599368 
L 98.294612 -88.100842 
L 100.652643 -88.602315 
L 103.131695 -89.103789 
L 105.704459 -89.605263 
L 108.33816 -90.106736 
L 110.996221 -90.60821 
L 113.640186 -91.109684 
L 116.23176 -91.611157 
L 118.734753 -92.112631 
L 121.116785 -92.614105 
L 123.350638 -93.115578 
L 125.415176 -93.617052 
L 127.295808 -94.118526 
L 128.984517 -94.619999 
L 130.479493 -95.121473 
L 131.784468 -95.622947 
L 132.907822 -96.12442 
L 133.86157 -96.625894 
L 137.7 -96.625894 
L 137.7 -96.625894 
L 137.7 -96.12442 
L 137.7 -95.622947 
L 137.7 -95.121473 
L 137.7 -94.619999 
L 137.7 -94.118526 
L 137.7 -93.617052 
L 137.7 -93.115578 
L 137.7 -92.614105 
L 137.7 -92.112631 
L 137.7 -91.611157 
L 137.7 -91.109684 
L 137.7 -90.60821 
L 137.7 -90.106736 
L 137.7 -89.605263 
L 137.7 -89.103789 
L 137.7 -88.602315 
L 137.7 -88.100842 
L 137.7 -87.599368 
L 137.7 -87.097894 
L 137.7 -86.596421 
L 137.7 -86.094947 
L 137.7 -85.593473 
L 137.7 -85.091999 
L 137.7 -84.590526 
L 137.7 -84.089052 
L 137.7 -83.587578 
L 137.7 -83.086105 
L 137.7 -82.584631 
L 137.7 -82.083157 
L 137.7 -81.581684 
L 137.7 -81.08021 
L 137.7 -80.578736 
L 137.7 -80.077263 
L 137.7 -79.575789 
L 137.7 -79.074315 
L 137.7 -78.572842 
L 137.7 -78.071368 
L 137.7 -77.569894 
L 137.7 -77.068421 
L 137.7 -76.566947 
L 137.7 -76.065473 
L 137.7 -75.564 
L 137.7 -75.062526 
L 137.7 -74.561052 
L 137.7 -74.059579 
L 137.7 -73.558105 
L 137.7 -73.056631 
L 137.7 -72.555158 
L 137.7 -72.053684 
L 137.7 -71.55221 
L 137.7 -71.050737 
L 137.7 -70.549263 
L 137.7 -70.047789 
L 137.7 -69.546315 
L 137.7 -69.044842 
L 137.7 -68.543368 
L 137.7 -68.041894 
L 137.7 -67.540421 
L 137.7 -67.038947 
L 137.7 -66.537473 
L 137.7 -66.036 
L 137.7 -65.534526 
L 137.7 -65.033052 
L 137.7 -64.531579 
L 137.7 -64.030105 
L 137.7 -63.528631 
L 137.7 -63.027158 
L 137.7 -62.525684 
L 137.7 -62.02421 
L 137.7 -61.522737 
L 137.7 -61.021263 
L 137.7 -60.519789 
L 137.7 -60.018316 
L 137.7 -59.516842 
L 137.7 -59.015368 
L 137.7 -58.513895 
L 137.7 -58.012421 
L 137.7 -57.510947 
L 137.7 -57.009474 
L 137.7 -56.508 
L 137.7 -56.006526 
L 137.7 -55.505053 
L 137.7 -55.003579 
L 137.7 -54.502105 
L 137.7 -54.000631 
L 137.7 -53.499158 
L 137.7 -52.997684 
L 137.7 -52.49621 
L 137.7 -51.994737 
L 137.7 -51.493263 
L 137.7 -50.991789 
L 137.7 -50.490316 
L 137.7 -49.988842 
L 137.7 -49.487368 
L 137.7 -48.985895 
L 137.7 -48.484421 
L 137.7 -47.982947 
L 137.7 -47.481474 
L 137.7 -46.98 
z
" style="stroke: #3f3f3f; stroke-width: 1.25"/>
    </defs>
    <g clip-path="url(#pf5c1182042)">
     <use xlink:href="#m2acbd03480" x="0" y="324" style="fill: #3274a1; stroke: #3f3f3f; stroke-width: 1.25"/>
    </g>
   </g>
   <g id="PolyCollection_2">
    <defs>
     <path id="mf614d15c13" d="M 145.97625 -67.741245 
L 137.7 -67.741245 
L 137.7 -69.818646 
L 137.7 -71.896047 
L 137.7 -73.973449 
L 137.7 -76.05085 
L 137.7 -78.128251 
L 137.7 -80.205653 
L 137.7 -82.283054 
L 137.7 -84.360456 
L 137.7 -86.437857 
L 137.7 -88.515258 
L 137.7 -90.59266 
L 137.7 -92.670061 
L 137.7 -94.747462 
L 137.7 -96.824864 
L 137.7 -98.902265 
L 137.7 -100.979667 
L 137.7 -103.057068 
L 137.7 -105.134469 
L 137.7 -107.211871 
L 137.7 -109.289272 
L 137.7 -111.366673 
L 137.7 -113.444075 
L 137.7 -115.521476 
L 137.7 -117.598877 
L 137.7 -119.676279 
L 137.7 -121.75368 
L 137.7 -123.831082 
L 137.7 -125.908483 
L 137.7 -127.985884 
L 137.7 -130.063286 
L 137.7 -132.140687 
L 137.7 -134.218088 
L 137.7 -136.29549 
L 137.7 -138.372891 
L 137.7 -140.450293 
L 137.7 -142.527694 
L 137.7 -144.605095 
L 137.7 -146.682497 
L 137.7 -148.759898 
L 137.7 -150.837299 
L 137.7 -152.914701 
L 137.7 -154.992102 
L 137.7 -157.069504 
L 137.7 -159.146905 
L 137.7 -161.224306 
L 137.7 -163.301708 
L 137.7 -165.379109 
L 137.7 -167.45651 
L 137.7 -169.533912 
L 137.7 -171.611313 
L 137.7 -173.688714 
L 137.7 -175.766116 
L 137.7 -177.843517 
L 137.7 -179.920919 
L 137.7 -181.99832 
L 137.7 -184.075721 
L 137.7 -186.153123 
L 137.7 -188.230524 
L 137.7 -190.307925 
L 137.7 -192.385327 
L 137.7 -194.462728 
L 137.7 -196.54013 
L 137.7 -198.617531 
L 137.7 -200.694932 
L 137.7 -202.772334 
L 137.7 -204.849735 
L 137.7 -206.927136 
L 137.7 -209.004538 
L 137.7 -211.081939 
L 137.7 -213.15934 
L 137.7 -215.236742 
L 137.7 -217.314143 
L 137.7 -219.391545 
L 137.7 -221.468946 
L 137.7 -223.546347 
L 137.7 -225.623749 
L 137.7 -227.70115 
L 137.7 -229.778551 
L 137.7 -231.855953 
L 137.7 -233.933354 
L 137.7 -236.010756 
L 137.7 -238.088157 
L 137.7 -240.165558 
L 137.7 -242.24296 
L 137.7 -244.320361 
L 137.7 -246.397762 
L 137.7 -248.475164 
L 137.7 -250.552565 
L 137.7 -252.629966 
L 137.7 -254.707368 
L 137.7 -256.784769 
L 137.7 -258.862171 
L 137.7 -260.939572 
L 137.7 -263.016973 
L 137.7 -265.094375 
L 137.7 -267.171776 
L 137.7 -269.249177 
L 137.7 -271.326579 
L 137.7 -273.40398 
L 139.267251 -273.40398 
L 139.267251 -273.40398 
L 139.561532 -271.326579 
L 139.89555 -269.249177 
L 140.271358 -267.171776 
L 140.690438 -265.094375 
L 141.153566 -263.016973 
L 141.660684 -260.939572 
L 142.210785 -258.862171 
L 142.801818 -256.784769 
L 143.430625 -254.707368 
L 144.092904 -252.629966 
L 144.783222 -250.552565 
L 145.495063 -248.475164 
L 146.22093 -246.397762 
L 146.95249 -244.320361 
L 147.680761 -242.24296 
L 148.396338 -240.165558 
L 149.089658 -238.088157 
L 149.75127 -236.010756 
L 150.372127 -233.933354 
L 150.943867 -231.855953 
L 151.459081 -229.778551 
L 151.911545 -227.70115 
L 152.296416 -225.623749 
L 152.610374 -223.546347 
L 152.851706 -221.468946 
L 153.020336 -219.391545 
L 153.117784 -217.314143 
L 153.147083 -215.236742 
L 153.11264 -213.15934 
L 153.020071 -211.081939 
L 152.876002 -209.004538 
L 152.687872 -206.927136 
L 152.463744 -204.849735 
L 152.212132 -202.772334 
L 151.941871 -200.694932 
L 151.662021 -198.617531 
L 151.38183 -196.54013 
L 151.110742 -194.462728 
L 150.858455 -192.385327 
L 150.635021 -190.307925 
L 150.450963 -188.230524 
L 150.317417 -186.153123 
L 150.246256 -184.075721 
L 150.250194 -181.99832 
L 150.342833 -179.920919 
L 150.538648 -177.843517 
L 150.852883 -175.766116 
L 151.301349 -173.688714 
L 151.900107 -171.611313 
L 152.665046 -169.533912 
L 153.611349 -167.45651 
L 154.752864 -165.379109 
L 156.101388 -163.301708 
L 157.665909 -161.224306 
L 159.451821 -159.146905 
L 161.460149 -157.069504 
L 163.686837 -154.992102 
L 166.122138 -152.914701 
L 168.750137 -150.837299 
L 171.548463 -148.759898 
L 174.488215 -146.682497 
L 177.534133 -144.605095 
L 180.645024 -142.527694 
L 183.774465 -140.450293 
L 186.871752 -138.372891 
L 189.883092 -136.29549 
L 192.752994 -134.218088 
L 195.425816 -132.140687 
L 197.847406 -130.063286 
L 199.96677 -127.985884 
L 201.737706 -125.908483 
L 203.120313 -123.831082 
L 204.082331 -121.75368 
L 204.600229 -119.676279 
L 204.66 -117.598877 
L 204.257624 -115.521476 
L 203.399181 -113.444075 
L 202.100597 -111.366673 
L 200.387057 -109.289272 
L 198.292097 -107.211871 
L 195.856425 -105.134469 
L 193.126531 -103.057068 
L 190.15315 -100.979667 
L 186.989647 -98.902265 
L 183.690385 -96.824864 
L 180.309167 -94.747462 
L 176.897787 -92.670061 
L 173.504758 -90.59266 
L 170.174242 -88.515258 
L 166.94523 -86.437857 
L 163.850957 -84.360456 
L 160.918576 -82.283054 
L 158.169069 -80.205653 
L 155.617368 -78.128251 
L 153.272674 -76.05085 
L 151.138918 -73.973449 
L 149.215341 -71.896047 
L 147.497158 -69.818646 
L 145.97625 -67.741245 
z
" style="stroke: #3f3f3f; stroke-width: 1.25"/>
    </defs>
    <g clip-path="url(#pf5c1182042)">
     <use xlink:href="#mf614d15c13" x="0" y="324" style="fill: #e1812c; stroke: #3f3f3f; stroke-width: 1.25"/>
    </g>
   </g>
   <g id="PolyCollection_3">
    <defs>
     <path id="m3da9b00ba3" d="M 305.1 -48.993358 
L 304.461753 -48.993358 
L 304.281254 -49.454157 
L 304.066953 -49.914957 
L 303.817959 -50.375757 
L 303.535073 -50.836557 
L 303.221129 -51.297357 
L 302.881238 -51.758156 
L 302.522879 -52.218956 
L 302.155784 -52.679756 
L 301.791621 -53.140556 
L 301.443451 -53.601356 
L 301.12499 -54.062155 
L 300.849738 -54.522955 
L 300.630038 -54.983755 
L 300.476162 -55.444555 
L 300.395516 -55.905354 
L 300.392048 -56.366154 
L 300.465928 -56.826954 
L 300.613535 -57.287754 
L 300.827751 -57.748554 
L 301.098527 -58.209353 
L 301.413666 -58.670153 
L 301.759728 -59.130953 
L 302.122969 -59.591753 
L 302.49022 -60.052553 
L 302.849635 -60.513352 
L 303.191237 -60.974152 
L 303.507252 -61.434952 
L 303.792207 -61.895752 
L 304.042824 -62.356551 
L 304.257736 -62.817351 
L 304.437065 -63.278151 
L 304.581914 -63.738951 
L 304.693788 -64.199751 
L 304.773998 -64.66055 
L 304.823036 -65.12135 
L 304.839943 -65.58215 
L 304.821662 -66.04295 
L 304.762377 -66.50375 
L 304.652845 -66.964549 
L 304.479735 -67.425349 
L 304.225027 -67.886149 
L 303.865522 -68.346949 
L 303.372568 -68.807748 
L 302.71211 -69.268548 
L 301.8452 -69.729348 
L 300.72909 -70.190148 
L 299.319022 -70.650948 
L 297.570769 -71.111747 
L 295.443926 -71.572547 
L 292.905837 -72.033347 
L 289.935952 -72.494147 
L 286.530267 -72.954946 
L 282.705431 -73.415746 
L 278.502002 -73.876546 
L 273.986344 -74.337346 
L 269.250671 -74.798146 
L 264.410891 -75.258945 
L 259.602073 -75.719745 
L 254.971607 -76.180545 
L 250.670407 -76.641345 
L 246.842779 -77.102145 
L 243.615803 -77.562944 
L 241.089244 -78.023744 
L 239.327042 -78.484544 
L 238.351366 -78.945344 
L 238.14 -79.406143 
L 238.627532 -79.866943 
L 239.710413 -80.327743 
L 241.255549 -80.788543 
L 243.111665 -81.249343 
L 245.122394 -81.710142 
L 247.139784 -82.170942 
L 249.036888 -82.631742 
L 250.718151 -83.092542 
L 252.126581 -83.553342 
L 253.24699 -84.014141 
L 254.105061 -84.474941 
L 254.762439 -84.935741 
L 255.308444 -85.396541 
L 255.849402 -85.85734 
L 256.496766 -86.31814 
L 257.355331 -86.77894 
L 258.512738 -87.23974 
L 260.031298 -87.70054 
L 261.942819 -88.161339 
L 264.246774 -88.622139 
L 266.91173 -89.082939 
L 269.879622 -89.543739 
L 273.072164 -90.004539 
L 276.398544 -90.465338 
L 279.763467 -90.926138 
L 283.074718 -91.386938 
L 286.24954 -91.847738 
L 289.219373 -92.308537 
L 291.932722 -92.769337 
L 294.356186 -93.230137 
L 296.473845 -93.690937 
L 298.285363 -94.151737 
L 299.803226 -94.612536 
L 305.1 -94.612536 
L 305.1 -94.612536 
L 305.1 -94.151737 
L 305.1 -93.690937 
L 305.1 -93.230137 
L 305.1 -92.769337 
L 305.1 -92.308537 
L 305.1 -91.847738 
L 305.1 -91.386938 
L 305.1 -90.926138 
L 305.1 -90.465338 
L 305.1 -90.004539 
L 305.1 -89.543739 
L 305.1 -89.082939 
L 305.1 -88.622139 
L 305.1 -88.161339 
L 305.1 -87.70054 
L 305.1 -87.23974 
L 305.1 -86.77894 
L 305.1 -86.31814 
L 305.1 -85.85734 
L 305.1 -85.396541 
L 305.1 -84.935741 
L 305.1 -84.474941 
L 305.1 -84.014141 
L 305.1 -83.553342 
L 305.1 -83.092542 
L 305.1 -82.631742 
L 305.1 -82.170942 
L 305.1 -81.710142 
L 305.1 -81.249343 
L 305.1 -80.788543 
L 305.1 -80.327743 
L 305.1 -79.866943 
L 305.1 -79.406143 
L 305.1 -78.945344 
L 305.1 -78.484544 
L 305.1 -78.023744 
L 305.1 -77.562944 
L 305.1 -77.102145 
L 305.1 -76.641345 
L 305.1 -76.180545 
L 305.1 -75.719745 
L 305.1 -75.258945 
L 305.1 -74.798146 
L 305.1 -74.337346 
L 305.1 -73.876546 
L 305.1 -73.415746 
L 305.1 -72.954946 
L 305.1 -72.494147 
L 305.1 -72.033347 
L 305.1 -71.572547 
L 305.1 -71.111747 
L 305.1 -70.650948 
L 305.1 -70.190148 
L 305.1 -69.729348 
L 305.1 -69.268548 
L 305.1 -68.807748 
L 305.1 -68.346949 
L 305.1 -67.886149 
L 305.1 -67.425349 
L 305.1 -66.964549 
L 305.1 -66.50375 
L 305.1 -66.04295 
L 305.1 -65.58215 
L 305.1 -65.12135 
L 305.1 -64.66055 
L 305.1 -64.199751 
L 305.1 -63.738951 
L 305.1 -63.278151 
L 305.1 -62.817351 
L 305.1 -62.356551 
L 305.1 -61.895752 
L 305.1 -61.434952 
L 305.1 -60.974152 
L 305.1 -60.513352 
L 305.1 -60.052553 
L 305.1 -59.591753 
L 305.1 -59.130953 
L 305.1 -58.670153 
L 305.1 -58.209353 
L 305.1 -57.748554 
L 305.1 -57.287754 
L 305.1 -56.826954 
L 305.1 -56.366154 
L 305.1 -55.905354 
L 305.1 -55.444555 
L 305.1 -54.983755 
L 305.1 -54.522955 
L 305.1 -54.062155 
L 305.1 -53.601356 
L 305.1 -53.140556 
L 305.1 -52.679756 
L 305.1 -52.218956 
L 305.1 -51.758156 
L 305.1 -51.297357 
L 305.1 -50.836557 
L 305.1 -50.375757 
L 305.1 -49.914957 
L 305.1 -49.454157 
L 305.1 -48.993358 
z
" style="stroke: #3f3f3f; stroke-width: 1.25"/>
    </defs>
    <g clip-path="url(#pf5c1182042)">
     <use xlink:href="#m3da9b00ba3" x="0" y="324" style="fill: #3274a1; stroke: #3f3f3f; stroke-width: 1.25"/>
    </g>
   </g>
   <g id="PolyCollection_4">
    <defs>
     <path id="m79743f20e6" d="M 308.374658 -57.58605 
L 305.1 -57.58605 
L 305.1 -59.769827 
L 305.1 -61.953605 
L 305.1 -64.137382 
L 305.1 -66.321159 
L 305.1 -68.504936 
L 305.1 -70.688714 
L 305.1 -72.872491 
L 305.1 -75.056268 
L 305.1 -77.240045 
L 305.1 -79.423823 
L 305.1 -81.6076 
L 305.1 -83.791377 
L 305.1 -85.975155 
L 305.1 -88.158932 
L 305.1 -90.342709 
L 305.1 -92.526486 
L 305.1 -94.710264 
L 305.1 -96.894041 
L 305.1 -99.077818 
L 305.1 -101.261595 
L 305.1 -103.445373 
L 305.1 -105.62915 
L 305.1 -107.812927 
L 305.1 -109.996705 
L 305.1 -112.180482 
L 305.1 -114.364259 
L 305.1 -116.548036 
L 305.1 -118.731814 
L 305.1 -120.915591 
L 305.1 -123.099368 
L 305.1 -125.283145 
L 305.1 -127.466923 
L 305.1 -129.6507 
L 305.1 -131.834477 
L 305.1 -134.018255 
L 305.1 -136.202032 
L 305.1 -138.385809 
L 305.1 -140.569586 
L 305.1 -142.753364 
L 305.1 -144.937141 
L 305.1 -147.120918 
L 305.1 -149.304695 
L 305.1 -151.488473 
L 305.1 -153.67225 
L 305.1 -155.856027 
L 305.1 -158.039805 
L 305.1 -160.223582 
L 305.1 -162.407359 
L 305.1 -164.591136 
L 305.1 -166.774914 
L 305.1 -168.958691 
L 305.1 -171.142468 
L 305.1 -173.326245 
L 305.1 -175.510023 
L 305.1 -177.6938 
L 305.1 -179.877577 
L 305.1 -182.061355 
L 305.1 -184.245132 
L 305.1 -186.428909 
L 305.1 -188.612686 
L 305.1 -190.796464 
L 305.1 -192.980241 
L 305.1 -195.164018 
L 305.1 -197.347795 
L 305.1 -199.531573 
L 305.1 -201.71535 
L 305.1 -203.899127 
L 305.1 -206.082905 
L 305.1 -208.266682 
L 305.1 -210.450459 
L 305.1 -212.634236 
L 305.1 -214.818014 
L 305.1 -217.001791 
L 305.1 -219.185568 
L 305.1 -221.369345 
L 305.1 -223.553123 
L 305.1 -225.7369 
L 305.1 -227.920677 
L 305.1 -230.104455 
L 305.1 -232.288232 
L 305.1 -234.472009 
L 305.1 -236.655786 
L 305.1 -238.839564 
L 305.1 -241.023341 
L 305.1 -243.207118 
L 305.1 -245.390895 
L 305.1 -247.574673 
L 305.1 -249.75845 
L 305.1 -251.942227 
L 305.1 -254.126005 
L 305.1 -256.309782 
L 305.1 -258.493559 
L 305.1 -260.677336 
L 305.1 -262.861114 
L 305.1 -265.044891 
L 305.1 -267.228668 
L 305.1 -269.412445 
L 305.1 -271.596223 
L 305.1 -273.78 
L 307.10054 -273.78 
L 307.10054 -273.78 
L 307.506049 -271.596223 
L 307.972524 -269.412445 
L 308.504372 -267.228668 
L 309.105329 -265.044891 
L 309.778227 -262.861114 
L 310.524781 -260.677336 
L 311.345363 -258.493559 
L 312.238812 -256.309782 
L 313.202268 -254.126005 
L 314.231057 -251.942227 
L 315.318619 -249.75845 
L 316.456511 -247.574673 
L 317.634475 -245.390895 
L 318.840574 -243.207118 
L 320.061407 -241.023341 
L 321.282389 -238.839564 
L 322.488092 -236.655786 
L 323.662627 -234.472009 
L 324.790074 -232.288232 
L 325.854909 -230.104455 
L 326.842442 -227.920677 
L 327.739227 -225.7369 
L 328.533436 -223.553123 
L 329.215178 -221.369345 
L 329.77675 -219.185568 
L 330.212817 -217.001791 
L 330.520518 -214.818014 
L 330.699483 -212.634236 
L 330.751801 -210.450459 
L 330.681906 -208.266682 
L 330.496433 -206.082905 
L 330.204032 -203.899127 
L 329.815164 -201.71535 
L 329.341901 -199.531573 
L 328.797729 -197.347795 
L 328.197373 -195.164018 
L 327.556642 -192.980241 
L 326.892311 -190.796464 
L 326.222007 -188.612686 
L 325.564125 -186.428909 
L 324.937736 -184.245132 
L 324.362485 -182.061355 
L 323.85846 -179.877577 
L 323.446014 -177.6938 
L 323.145528 -175.510023 
L 322.9771 -173.326245 
L 322.960149 -171.142468 
L 323.11295 -168.958691 
L 323.452069 -166.774914 
L 323.991755 -164.591136 
L 324.743269 -162.407359 
L 325.714198 -160.223582 
L 326.907781 -158.039805 
L 328.32228 -155.856027 
L 329.950444 -153.67225 
L 331.779095 -151.488473 
L 333.788886 -149.304695 
L 335.954254 -147.120918 
L 338.243608 -144.937141 
L 340.619754 -142.753364 
L 343.04057 -140.569586 
L 345.459929 -138.385809 
L 347.828833 -136.202032 
L 350.096746 -134.018255 
L 352.213052 -131.834477 
L 354.128608 -129.6507 
L 355.797304 -127.466923 
L 357.177578 -125.283145 
L 358.233806 -123.099368 
L 358.937506 -120.915591 
L 359.2683 -118.731814 
L 359.21458 -116.548036 
L 358.77386 -114.364259 
L 357.95278 -112.180482 
L 356.766781 -109.996705 
L 355.239458 -107.812927 
L 353.401633 -105.62915 
L 351.290187 -103.445373 
L 348.946722 -101.261595 
L 346.416106 -99.077818 
L 343.744975 -96.894041 
L 340.980263 -94.710264 
L 338.167811 -92.526486 
L 335.351117 -90.342709 
L 332.570266 -88.158932 
L 329.861077 -85.975155 
L 327.254471 -83.791377 
L 324.776082 -81.6076 
L 322.446091 -79.423823 
L 320.279267 -77.240045 
L 318.2852 -75.056268 
L 316.468677 -72.872491 
L 314.830184 -70.688714 
L 313.366481 -68.504936 
L 312.07123 -66.321159 
L 310.935631 -64.137382 
L 309.949047 -61.953605 
L 309.099592 -59.769827 
L 308.374658 -57.58605 
z
" style="stroke: #3f3f3f; stroke-width: 1.25"/>
    </defs>
    <g clip-path="url(#pf5c1182042)">
     <use xlink:href="#m79743f20e6" x="0" y="324" style="fill: #e1812c; stroke: #3f3f3f; stroke-width: 1.25"/>
    </g>
   </g>
   <g id="patch_3">
    <path d="M 137.7 385.19383 
L 137.7 385.19383 
L 137.7 385.19383 
L 137.7 385.19383 
z
" clip-path="url(#pf5c1182042)" style="fill: #3274a1; stroke: #3f3f3f; stroke-width: 1.25; stroke-linejoin: miter"/>
   </g>
   <g id="patch_4">
    <path d="M 137.7 385.19383 
L 137.7 385.19383 
L 137.7 385.19383 
L 137.7 385.19383 
z
" clip-path="url(#pf5c1182042)" style="fill: #e1812c; stroke: #3f3f3f; stroke-width: 1.25; stroke-linejoin: miter"/>
   </g>
   <g id="matplotlib.axis_1">
    <g id="xtick_1">
     <g id="line2d_1">
      <defs>
       <path id="mf86b22b5f2" d="M 0 0 
L 0 3.5 
" style="stroke: #000000; stroke-width: 0.8"/>
      </defs>
      <g>
       <use xlink:href="#mf86b22b5f2" x="137.7" y="288.36" style="stroke: #000000; stroke-width: 0.8"/>
      </g>
     </g>
     <g id="text_1">
      <!-- control -->
      <g transform="translate(120.371094 302.958438) scale(0.1 -0.1)">
       <defs>
        <path id="DejaVuSans-63" d="M 3122 3366 
L 3122 2828 
Q 2878 2963 2633 3030 
Q 2388 3097 2138 3097 
Q 1578 3097 1268 2742 
Q 959 2388 959 1747 
Q 959 1106 1268 751 
Q 1578 397 2138 397 
Q 2388 397 2633 464 
Q 2878 531 3122 666 
L 3122 134 
Q 2881 22 2623 -34 
Q 2366 -91 2075 -91 
Q 1284 -91 818 406 
Q 353 903 353 1747 
Q 353 2603 823 3093 
Q 1294 3584 2113 3584 
Q 2378 3584 2631 3529 
Q 2884 3475 3122 3366 
z
" transform="scale(0.015625)"/>
        <path id="DejaVuSans-6f" d="M 1959 3097 
Q 1497 3097 1228 2736 
Q 959 2375 959 1747 
Q 959 1119 1226 758 
Q 1494 397 1959 397 
Q 2419 397 2687 759 
Q 2956 1122 2956 1747 
Q 2956 2369 2687 2733 
Q 2419 3097 1959 3097 
z
M 1959 3584 
Q 2709 3584 3137 3096 
Q 3566 2609 3566 1747 
Q 3566 888 3137 398 
Q 2709 -91 1959 -91 
Q 1206 -91 779 398 
Q 353 888 353 1747 
Q 353 2609 779 3096 
Q 1206 3584 1959 3584 
z
" transform="scale(0.015625)"/>
        <path id="DejaVuSans-6e" d="M 3513 2113 
L 3513 0 
L 2938 0 
L 2938 2094 
Q 2938 2591 2744 2837 
Q 2550 3084 2163 3084 
Q 1697 3084 1428 2787 
Q 1159 2491 1159 1978 
L 1159 0 
L 581 0 
L 581 3500 
L 1159 3500 
L 1159 2956 
Q 1366 3272 1645 3428 
Q 1925 3584 2291 3584 
Q 2894 3584 3203 3211 
Q 3513 2838 3513 2113 
z
" transform="scale(0.015625)"/>
        <path id="DejaVuSans-74" d="M 1172 4494 
L 1172 3500 
L 2356 3500 
L 2356 3053 
L 1172 3053 
L 1172 1153 
Q 1172 725 1289 603 
Q 1406 481 1766 481 
L 2356 481 
L 2356 0 
L 1766 0 
Q 1100 0 847 248 
Q 594 497 594 1153 
L 594 3053 
L 172 3053 
L 172 3500 
L 594 3500 
L 594 4494 
L 1172 4494 
z
" transform="scale(0.015625)"/>
        <path id="DejaVuSans-72" d="M 2631 2963 
Q 2534 3019 2420 3045 
Q 2306 3072 2169 3072 
Q 1681 3072 1420 2755 
Q 1159 2438 1159 1844 
L 1159 0 
L 581 0 
L 581 3500 
L 1159 3500 
L 1159 2956 
Q 1341 3275 1631 3429 
Q 1922 3584 2338 3584 
Q 2397 3584 2469 3576 
Q 2541 3569 2628 3553 
L 2631 2963 
z
" transform="scale(0.015625)"/>
        <path id="DejaVuSans-6c" d="M 603 4863 
L 1178 4863 
L 1178 0 
L 603 0 
L 603 4863 
z
" transform="scale(0.015625)"/>
       </defs>
       <use xlink:href="#DejaVuSans-63"/>
       <use xlink:href="#DejaVuSans-6f" x="54.980469"/>
       <use xlink:href="#DejaVuSans-6e" x="116.162109"/>
       <use xlink:href="#DejaVuSans-74" x="179.541016"/>
       <use xlink:href="#DejaVuSans-72" x="218.75"/>
       <use xlink:href="#DejaVuSans-6f" x="257.613281"/>
       <use xlink:href="#DejaVuSans-6c" x="318.794922"/>
      </g>
     </g>
    </g>
    <g id="xtick_2">
     <g id="line2d_2">
      <g>
       <use xlink:href="#mf86b22b5f2" x="305.1" y="288.36" style="stroke: #000000; stroke-width: 0.8"/>
      </g>
     </g>
     <g id="text_2">
      <!-- sefl -->
      <g transform="translate(296.269531 302.958438) scale(0.1 -0.1)">
       <defs>
        <path id="DejaVuSans-73" d="M 2834 3397 
L 2834 2853 
Q 2591 2978 2328 3040 
Q 2066 3103 1784 3103 
Q 1356 3103 1142 2972 
Q 928 2841 928 2578 
Q 928 2378 1081 2264 
Q 1234 2150 1697 2047 
L 1894 2003 
Q 2506 1872 2764 1633 
Q 3022 1394 3022 966 
Q 3022 478 2636 193 
Q 2250 -91 1575 -91 
Q 1294 -91 989 -36 
Q 684 19 347 128 
L 347 722 
Q 666 556 975 473 
Q 1284 391 1588 391 
Q 1994 391 2212 530 
Q 2431 669 2431 922 
Q 2431 1156 2273 1281 
Q 2116 1406 1581 1522 
L 1381 1569 
Q 847 1681 609 1914 
Q 372 2147 372 2553 
Q 372 3047 722 3315 
Q 1072 3584 1716 3584 
Q 2034 3584 2315 3537 
Q 2597 3491 2834 3397 
z
" transform="scale(0.015625)"/>
        <path id="DejaVuSans-65" d="M 3597 1894 
L 3597 1613 
L 953 1613 
Q 991 1019 1311 708 
Q 1631 397 2203 397 
Q 2534 397 2845 478 
Q 3156 559 3463 722 
L 3463 178 
Q 3153 47 2828 -22 
Q 2503 -91 2169 -91 
Q 1331 -91 842 396 
Q 353 884 353 1716 
Q 353 2575 817 3079 
Q 1281 3584 2069 3584 
Q 2775 3584 3186 3129 
Q 3597 2675 3597 1894 
z
M 3022 2063 
Q 3016 2534 2758 2815 
Q 2500 3097 2075 3097 
Q 1594 3097 1305 2825 
Q 1016 2553 972 2059 
L 3022 2063 
z
" transform="scale(0.015625)"/>
        <path id="DejaVuSans-66" d="M 2375 4863 
L 2375 4384 
L 1825 4384 
Q 1516 4384 1395 4259 
Q 1275 4134 1275 3809 
L 1275 3500 
L 2222 3500 
L 2222 3053 
L 1275 3053 
L 1275 0 
L 697 0 
L 697 3053 
L 147 3053 
L 147 3500 
L 697 3500 
L 697 3744 
Q 697 4328 969 4595 
Q 1241 4863 1831 4863 
L 2375 4863 
z
" transform="scale(0.015625)"/>
       </defs>
       <use xlink:href="#DejaVuSans-73"/>
       <use xlink:href="#DejaVuSans-65" x="52.099609"/>
       <use xlink:href="#DejaVuSans-66" x="113.623047"/>
       <use xlink:href="#DejaVuSans-6c" x="148.828125"/>
      </g>
     </g>
    </g>
    <g id="text_3">
     <!-- Condition -->
     <g transform="translate(197.539844 316.636563) scale(0.1 -0.1)">
      <defs>
       <path id="DejaVuSans-43" d="M 4122 4306 
L 4122 3641 
Q 3803 3938 3442 4084 
Q 3081 4231 2675 4231 
Q 1875 4231 1450 3742 
Q 1025 3253 1025 2328 
Q 1025 1406 1450 917 
Q 1875 428 2675 428 
Q 3081 428 3442 575 
Q 3803 722 4122 1019 
L 4122 359 
Q 3791 134 3420 21 
Q 3050 -91 2638 -91 
Q 1578 -91 968 557 
Q 359 1206 359 2328 
Q 359 3453 968 4101 
Q 1578 4750 2638 4750 
Q 3056 4750 3426 4639 
Q 3797 4528 4122 4306 
z
" transform="scale(0.015625)"/>
       <path id="DejaVuSans-64" d="M 2906 2969 
L 2906 4863 
L 3481 4863 
L 3481 0 
L 2906 0 
L 2906 525 
Q 2725 213 2448 61 
Q 2172 -91 1784 -91 
Q 1150 -91 751 415 
Q 353 922 353 1747 
Q 353 2572 751 3078 
Q 1150 3584 1784 3584 
Q 2172 3584 2448 3432 
Q 2725 3281 2906 2969 
z
M 947 1747 
Q 947 1113 1208 752 
Q 1469 391 1925 391 
Q 2381 391 2643 752 
Q 2906 1113 2906 1747 
Q 2906 2381 2643 2742 
Q 2381 3103 1925 3103 
Q 1469 3103 1208 2742 
Q 947 2381 947 1747 
z
" transform="scale(0.015625)"/>
       <path id="DejaVuSans-69" d="M 603 3500 
L 1178 3500 
L 1178 0 
L 603 0 
L 603 3500 
z
M 603 4863 
L 1178 4863 
L 1178 4134 
L 603 4134 
L 603 4863 
z
" transform="scale(0.015625)"/>
      </defs>
      <use xlink:href="#DejaVuSans-43"/>
      <use xlink:href="#DejaVuSans-6f" x="69.824219"/>
      <use xlink:href="#DejaVuSans-6e" x="131.005859"/>
      <use xlink:href="#DejaVuSans-64" x="194.384766"/>
      <use xlink:href="#DejaVuSans-69" x="257.861328"/>
      <use xlink:href="#DejaVuSans-74" x="285.644531"/>
      <use xlink:href="#DejaVuSans-69" x="324.853516"/>
      <use xlink:href="#DejaVuSans-6f" x="352.636719"/>
      <use xlink:href="#DejaVuSans-6e" x="413.818359"/>
     </g>
    </g>
   </g>
   <g id="matplotlib.axis_2">
    <g id="ytick_1">
     <g id="line2d_3">
      <defs>
       <path id="m7771a0c721" d="M 0 0 
L -3.5 0 
" style="stroke: #000000; stroke-width: 0.8"/>
      </defs>
      <g>
       <use xlink:href="#m7771a0c721" x="54" y="282.512495" style="stroke: #000000; stroke-width: 0.8"/>
      </g>
     </g>
     <g id="text_4">
      <!-- 7.5 -->
      <g transform="translate(31.096875 286.311714) scale(0.1 -0.1)">
       <defs>
        <path id="DejaVuSans-37" d="M 525 4666 
L 3525 4666 
L 3525 4397 
L 1831 0 
L 1172 0 
L 2766 4134 
L 525 4134 
L 525 4666 
z
" transform="scale(0.015625)"/>
        <path id="DejaVuSans-2e" d="M 684 794 
L 1344 794 
L 1344 0 
L 684 0 
L 684 794 
z
" transform="scale(0.015625)"/>
        <path id="DejaVuSans-35" d="M 691 4666 
L 3169 4666 
L 3169 4134 
L 1269 4134 
L 1269 2991 
Q 1406 3038 1543 3061 
Q 1681 3084 1819 3084 
Q 2600 3084 3056 2656 
Q 3513 2228 3513 1497 
Q 3513 744 3044 326 
Q 2575 -91 1722 -91 
Q 1428 -91 1123 -41 
Q 819 9 494 109 
L 494 744 
Q 775 591 1075 516 
Q 1375 441 1709 441 
Q 2250 441 2565 725 
Q 2881 1009 2881 1497 
Q 2881 1984 2565 2268 
Q 2250 2553 1709 2553 
Q 1456 2553 1204 2497 
Q 953 2441 691 2322 
L 691 4666 
z
" transform="scale(0.015625)"/>
       </defs>
       <use xlink:href="#DejaVuSans-37"/>
       <use xlink:href="#DejaVuSans-2e" x="63.623047"/>
       <use xlink:href="#DejaVuSans-35" x="95.410156"/>
      </g>
     </g>
    </g>
    <g id="ytick_2">
     <g id="line2d_4">
      <g>
       <use xlink:href="#m7771a0c721" x="54" y="248.285383" style="stroke: #000000; stroke-width: 0.8"/>
      </g>
     </g>
     <g id="text_5">
      <!-- 10.0 -->
      <g transform="translate(24.734375 252.084602) scale(0.1 -0.1)">
       <defs>
        <path id="DejaVuSans-31" d="M 794 531 
L 1825 531 
L 1825 4091 
L 703 3866 
L 703 4441 
L 1819 4666 
L 2450 4666 
L 2450 531 
L 3481 531 
L 3481 0 
L 794 0 
L 794 531 
z
" transform="scale(0.015625)"/>
        <path id="DejaVuSans-30" d="M 2034 4250 
Q 1547 4250 1301 3770 
Q 1056 3291 1056 2328 
Q 1056 1369 1301 889 
Q 1547 409 2034 409 
Q 2525 409 2770 889 
Q 3016 1369 3016 2328 
Q 3016 3291 2770 3770 
Q 2525 4250 2034 4250 
z
M 2034 4750 
Q 2819 4750 3233 4129 
Q 3647 3509 3647 2328 
Q 3647 1150 3233 529 
Q 2819 -91 2034 -91 
Q 1250 -91 836 529 
Q 422 1150 422 2328 
Q 422 3509 836 4129 
Q 1250 4750 2034 4750 
z
" transform="scale(0.015625)"/>
       </defs>
       <use xlink:href="#DejaVuSans-31"/>
       <use xlink:href="#DejaVuSans-30" x="63.623047"/>
       <use xlink:href="#DejaVuSans-2e" x="127.246094"/>
       <use xlink:href="#DejaVuSans-30" x="159.033203"/>
      </g>
     </g>
    </g>
    <g id="ytick_3">
     <g id="line2d_5">
      <g>
       <use xlink:href="#m7771a0c721" x="54" y="214.058271" style="stroke: #000000; stroke-width: 0.8"/>
      </g>
     </g>
     <g id="text_6">
      <!-- 12.5 -->
      <g transform="translate(24.734375 217.85749) scale(0.1 -0.1)">
       <defs>
        <path id="DejaVuSans-32" d="M 1228 531 
L 3431 531 
L 3431 0 
L 469 0 
L 469 531 
Q 828 903 1448 1529 
Q 2069 2156 2228 2338 
Q 2531 2678 2651 2914 
Q 2772 3150 2772 3378 
Q 2772 3750 2511 3984 
Q 2250 4219 1831 4219 
Q 1534 4219 1204 4116 
Q 875 4013 500 3803 
L 500 4441 
Q 881 4594 1212 4672 
Q 1544 4750 1819 4750 
Q 2544 4750 2975 4387 
Q 3406 4025 3406 3419 
Q 3406 3131 3298 2873 
Q 3191 2616 2906 2266 
Q 2828 2175 2409 1742 
Q 1991 1309 1228 531 
z
" transform="scale(0.015625)"/>
       </defs>
       <use xlink:href="#DejaVuSans-31"/>
       <use xlink:href="#DejaVuSans-32" x="63.623047"/>
       <use xlink:href="#DejaVuSans-2e" x="127.246094"/>
       <use xlink:href="#DejaVuSans-35" x="159.033203"/>
      </g>
     </g>
    </g>
    <g id="ytick_4">
     <g id="line2d_6">
      <g>
       <use xlink:href="#m7771a0c721" x="54" y="179.83116" style="stroke: #000000; stroke-width: 0.8"/>
      </g>
     </g>
     <g id="text_7">
      <!-- 15.0 -->
      <g transform="translate(24.734375 183.630378) scale(0.1 -0.1)">
       <use xlink:href="#DejaVuSans-31"/>
       <use xlink:href="#DejaVuSans-35" x="63.623047"/>
       <use xlink:href="#DejaVuSans-2e" x="127.246094"/>
       <use xlink:href="#DejaVuSans-30" x="159.033203"/>
      </g>
     </g>
    </g>
    <g id="ytick_5">
     <g id="line2d_7">
      <g>
       <use xlink:href="#m7771a0c721" x="54" y="145.604048" style="stroke: #000000; stroke-width: 0.8"/>
      </g>
     </g>
     <g id="text_8">
      <!-- 17.5 -->
      <g transform="translate(24.734375 149.403267) scale(0.1 -0.1)">
       <use xlink:href="#DejaVuSans-31"/>
       <use xlink:href="#DejaVuSans-37" x="63.623047"/>
       <use xlink:href="#DejaVuSans-2e" x="127.246094"/>
       <use xlink:href="#DejaVuSans-35" x="159.033203"/>
      </g>
     </g>
    </g>
    <g id="ytick_6">
     <g id="line2d_8">
      <g>
       <use xlink:href="#m7771a0c721" x="54" y="111.376936" style="stroke: #000000; stroke-width: 0.8"/>
      </g>
     </g>
     <g id="text_9">
      <!-- 20.0 -->
      <g transform="translate(24.734375 115.176155) scale(0.1 -0.1)">
       <use xlink:href="#DejaVuSans-32"/>
       <use xlink:href="#DejaVuSans-30" x="63.623047"/>
       <use xlink:href="#DejaVuSans-2e" x="127.246094"/>
       <use xlink:href="#DejaVuSans-30" x="159.033203"/>
      </g>
     </g>
    </g>
    <g id="ytick_7">
     <g id="line2d_9">
      <g>
       <use xlink:href="#m7771a0c721" x="54" y="77.149824" style="stroke: #000000; stroke-width: 0.8"/>
      </g>
     </g>
     <g id="text_10">
      <!-- 22.5 -->
      <g transform="translate(24.734375 80.949043) scale(0.1 -0.1)">
       <use xlink:href="#DejaVuSans-32"/>
       <use xlink:href="#DejaVuSans-32" x="63.623047"/>
       <use xlink:href="#DejaVuSans-2e" x="127.246094"/>
       <use xlink:href="#DejaVuSans-35" x="159.033203"/>
      </g>
     </g>
    </g>
    <g id="ytick_8">
     <g id="line2d_10">
      <g>
       <use xlink:href="#m7771a0c721" x="54" y="42.922712" style="stroke: #000000; stroke-width: 0.8"/>
      </g>
     </g>
     <g id="text_11">
      <!-- 25.0 -->
      <g transform="translate(24.734375 46.721931) scale(0.1 -0.1)">
       <use xlink:href="#DejaVuSans-32"/>
       <use xlink:href="#DejaVuSans-35" x="63.623047"/>
       <use xlink:href="#DejaVuSans-2e" x="127.246094"/>
       <use xlink:href="#DejaVuSans-30" x="159.033203"/>
      </g>
     </g>
    </g>
    <g id="text_12">
     <!-- Age at SEFLA -->
     <g transform="translate(18.654687 197.021563) rotate(-90) scale(0.1 -0.1)">
      <defs>
       <path id="DejaVuSans-41" d="M 2188 4044 
L 1331 1722 
L 3047 1722 
L 2188 4044 
z
M 1831 4666 
L 2547 4666 
L 4325 0 
L 3669 0 
L 3244 1197 
L 1141 1197 
L 716 0 
L 50 0 
L 1831 4666 
z
" transform="scale(0.015625)"/>
       <path id="DejaVuSans-67" d="M 2906 1791 
Q 2906 2416 2648 2759 
Q 2391 3103 1925 3103 
Q 1463 3103 1205 2759 
Q 947 2416 947 1791 
Q 947 1169 1205 825 
Q 1463 481 1925 481 
Q 2391 481 2648 825 
Q 2906 1169 2906 1791 
z
M 3481 434 
Q 3481 -459 3084 -895 
Q 2688 -1331 1869 -1331 
Q 1566 -1331 1297 -1286 
Q 1028 -1241 775 -1147 
L 775 -588 
Q 1028 -725 1275 -790 
Q 1522 -856 1778 -856 
Q 2344 -856 2625 -561 
Q 2906 -266 2906 331 
L 2906 616 
Q 2728 306 2450 153 
Q 2172 0 1784 0 
Q 1141 0 747 490 
Q 353 981 353 1791 
Q 353 2603 747 3093 
Q 1141 3584 1784 3584 
Q 2172 3584 2450 3431 
Q 2728 3278 2906 2969 
L 2906 3500 
L 3481 3500 
L 3481 434 
z
" transform="scale(0.015625)"/>
       <path id="DejaVuSans-20" transform="scale(0.015625)"/>
       <path id="DejaVuSans-61" d="M 2194 1759 
Q 1497 1759 1228 1600 
Q 959 1441 959 1056 
Q 959 750 1161 570 
Q 1363 391 1709 391 
Q 2188 391 2477 730 
Q 2766 1069 2766 1631 
L 2766 1759 
L 2194 1759 
z
M 3341 1997 
L 3341 0 
L 2766 0 
L 2766 531 
Q 2569 213 2275 61 
Q 1981 -91 1556 -91 
Q 1019 -91 701 211 
Q 384 513 384 1019 
Q 384 1609 779 1909 
Q 1175 2209 1959 2209 
L 2766 2209 
L 2766 2266 
Q 2766 2663 2505 2880 
Q 2244 3097 1772 3097 
Q 1472 3097 1187 3025 
Q 903 2953 641 2809 
L 641 3341 
Q 956 3463 1253 3523 
Q 1550 3584 1831 3584 
Q 2591 3584 2966 3190 
Q 3341 2797 3341 1997 
z
" transform="scale(0.015625)"/>
       <path id="DejaVuSans-53" d="M 3425 4513 
L 3425 3897 
Q 3066 4069 2747 4153 
Q 2428 4238 2131 4238 
Q 1616 4238 1336 4038 
Q 1056 3838 1056 3469 
Q 1056 3159 1242 3001 
Q 1428 2844 1947 2747 
L 2328 2669 
Q 3034 2534 3370 2195 
Q 3706 1856 3706 1288 
Q 3706 609 3251 259 
Q 2797 -91 1919 -91 
Q 1588 -91 1214 -16 
Q 841 59 441 206 
L 441 856 
Q 825 641 1194 531 
Q 1563 422 1919 422 
Q 2459 422 2753 634 
Q 3047 847 3047 1241 
Q 3047 1584 2836 1778 
Q 2625 1972 2144 2069 
L 1759 2144 
Q 1053 2284 737 2584 
Q 422 2884 422 3419 
Q 422 4038 858 4394 
Q 1294 4750 2059 4750 
Q 2388 4750 2728 4690 
Q 3069 4631 3425 4513 
z
" transform="scale(0.015625)"/>
       <path id="DejaVuSans-45" d="M 628 4666 
L 3578 4666 
L 3578 4134 
L 1259 4134 
L 1259 2753 
L 3481 2753 
L 3481 2222 
L 1259 2222 
L 1259 531 
L 3634 531 
L 3634 0 
L 628 0 
L 628 4666 
z
" transform="scale(0.015625)"/>
       <path id="DejaVuSans-46" d="M 628 4666 
L 3309 4666 
L 3309 4134 
L 1259 4134 
L 1259 2759 
L 3109 2759 
L 3109 2228 
L 1259 2228 
L 1259 0 
L 628 0 
L 628 4666 
z
" transform="scale(0.015625)"/>
       <path id="DejaVuSans-4c" d="M 628 4666 
L 1259 4666 
L 1259 531 
L 3531 531 
L 3531 0 
L 628 0 
L 628 4666 
z
" transform="scale(0.015625)"/>
      </defs>
      <use xlink:href="#DejaVuSans-41"/>
      <use xlink:href="#DejaVuSans-67" x="68.408203"/>
      <use xlink:href="#DejaVuSans-65" x="131.884766"/>
      <use xlink:href="#DejaVuSans-20" x="193.408203"/>
      <use xlink:href="#DejaVuSans-61" x="225.195312"/>
      <use xlink:href="#DejaVuSans-74" x="286.474609"/>
      <use xlink:href="#DejaVuSans-20" x="325.683594"/>
      <use xlink:href="#DejaVuSans-53" x="357.470703"/>
      <use xlink:href="#DejaVuSans-45" x="420.947266"/>
      <use xlink:href="#DejaVuSans-46" x="484.130859"/>
      <use xlink:href="#DejaVuSans-4c" x="541.650391"/>
      <use xlink:href="#DejaVuSans-41" x="599.613281"/>
     </g>
    </g>
   </g>
   <g id="line2d_11">
    <path d="M 134.8875 246.329548 
L 134.8875 236.550373 
" clip-path="url(#pf5c1182042)" style="fill: none; stroke: #3f3f3f; stroke-width: 1.875; stroke-linecap: square"/>
   </g>
   <g id="line2d_12">
    <path d="M 134.8875 246.329548 
L 134.8875 237.528291 
" clip-path="url(#pf5c1182042)" style="fill: none; stroke: #3f3f3f; stroke-width: 5.625; stroke-linecap: square"/>
   </g>
   <g id="line2d_13">
    <path d="M 134.8875 244.373713 
" clip-path="url(#pf5c1182042)" style="fill: none; stroke: #3f3f3f; stroke-width: 1.5; stroke-linecap: square"/>
    <defs>
     <path id="m9dd610e71f" d="M 2.34375 0 
L -2.34375 -0 
" style="stroke: #ffffff; stroke-width: 1.125"/>
    </defs>
    <g clip-path="url(#pf5c1182042)">
     <use xlink:href="#m9dd610e71f" x="134.8875" y="244.373713" style="fill: #ffffff; stroke: #ffffff; stroke-width: 1.125"/>
    </g>
   </g>
   <g id="line2d_14">
    <path d="M 140.5125 207.212849 
L 140.5125 199.389509 
" clip-path="url(#pf5c1182042)" style="fill: none; stroke: #3f3f3f; stroke-width: 1.875; stroke-linecap: square"/>
   </g>
   <g id="line2d_15">
    <path d="M 140.5125 207.212849 
L 140.5125 199.389509 
" clip-path="url(#pf5c1182042)" style="fill: none; stroke: #3f3f3f; stroke-width: 5.625; stroke-linecap: square"/>
   </g>
   <g id="line2d_16">
    <path d="M 140.5125 207.212849 
" clip-path="url(#pf5c1182042)" style="fill: none; stroke: #3f3f3f; stroke-width: 1.5; stroke-linecap: square"/>
    <g clip-path="url(#pf5c1182042)">
     <use xlink:href="#m9dd610e71f" x="140.5125" y="207.212849" style="fill: #ffffff; stroke: #ffffff; stroke-width: 1.125"/>
    </g>
   </g>
   <g id="line2d_17">
    <path d="M 302.2875 246.329548 
L 302.2875 236.550373 
" clip-path="url(#pf5c1182042)" style="fill: none; stroke: #3f3f3f; stroke-width: 1.875; stroke-linecap: square"/>
   </g>
   <g id="line2d_18">
    <path d="M 302.2875 246.329548 
L 302.2875 236.550373 
" clip-path="url(#pf5c1182042)" style="fill: none; stroke: #3f3f3f; stroke-width: 5.625; stroke-linecap: square"/>
   </g>
   <g id="line2d_19">
    <path d="M 302.2875 244.373713 
" clip-path="url(#pf5c1182042)" style="fill: none; stroke: #3f3f3f; stroke-width: 1.5; stroke-linecap: square"/>
    <g clip-path="url(#pf5c1182042)">
     <use xlink:href="#m9dd610e71f" x="302.2875" y="244.373713" style="fill: #ffffff; stroke: #ffffff; stroke-width: 1.125"/>
    </g>
   </g>
   <g id="line2d_20">
    <path d="M 307.9125 216.992024 
L 307.9125 99.641926 
" clip-path="url(#pf5c1182042)" style="fill: none; stroke: #3f3f3f; stroke-width: 1.875; stroke-linecap: square"/>
   </g>
   <g id="line2d_21">
    <path d="M 307.9125 207.212849 
L 307.9125 125.067781 
" clip-path="url(#pf5c1182042)" style="fill: none; stroke: #3f3f3f; stroke-width: 5.625; stroke-linecap: square"/>
   </g>
   <g id="line2d_22">
    <path d="M 307.9125 200.367427 
" clip-path="url(#pf5c1182042)" style="fill: none; stroke: #3f3f3f; stroke-width: 1.5; stroke-linecap: square"/>
    <g clip-path="url(#pf5c1182042)">
     <use xlink:href="#m9dd610e71f" x="307.9125" y="200.367427" style="fill: #ffffff; stroke: #ffffff; stroke-width: 1.125"/>
    </g>
   </g>
   <g id="patch_5">
    <path d="M 54 288.36 
L 54 38.88 
" style="fill: none; stroke: #000000; stroke-width: 0.8; stroke-linejoin: miter; stroke-linecap: square"/>
   </g>
   <g id="patch_6">
    <path d="M 388.8 288.36 
L 388.8 38.88 
" style="fill: none; stroke: #000000; stroke-width: 0.8; stroke-linejoin: miter; stroke-linecap: square"/>
   </g>
   <g id="patch_7">
    <path d="M 54 288.36 
L 388.8 288.36 
" style="fill: none; stroke: #000000; stroke-width: 0.8; stroke-linejoin: miter; stroke-linecap: square"/>
   </g>
   <g id="patch_8">
    <path d="M 54 38.88 
L 388.8 38.88 
" style="fill: none; stroke: #000000; stroke-width: 0.8; stroke-linejoin: miter; stroke-linecap: square"/>
   </g>
   <g id="legend_1">
    <g id="patch_9">
     <path d="M 61 90.914375 
L 124.259375 90.914375 
Q 126.259375 90.914375 126.259375 88.914375 
L 126.259375 45.88 
Q 126.259375 43.88 124.259375 43.88 
L 61 43.88 
Q 59 43.88 59 45.88 
L 59 88.914375 
Q 59 90.914375 61 90.914375 
z
" style="fill: #ffffff; opacity: 0.8; stroke: #cccccc; stroke-linejoin: miter"/>
    </g>
    <g id="text_13">
     <!-- Age Group -->
     <g transform="translate(66.15 55.478437) scale(0.1 -0.1)">
      <defs>
       <path id="DejaVuSans-47" d="M 3809 666 
L 3809 1919 
L 2778 1919 
L 2778 2438 
L 4434 2438 
L 4434 434 
Q 4069 175 3628 42 
Q 3188 -91 2688 -91 
Q 1594 -91 976 548 
Q 359 1188 359 2328 
Q 359 3472 976 4111 
Q 1594 4750 2688 4750 
Q 3144 4750 3555 4637 
Q 3966 4525 4313 4306 
L 4313 3634 
Q 3963 3931 3569 4081 
Q 3175 4231 2741 4231 
Q 1884 4231 1454 3753 
Q 1025 3275 1025 2328 
Q 1025 1384 1454 906 
Q 1884 428 2741 428 
Q 3075 428 3337 486 
Q 3600 544 3809 666 
z
" transform="scale(0.015625)"/>
       <path id="DejaVuSans-75" d="M 544 1381 
L 544 3500 
L 1119 3500 
L 1119 1403 
Q 1119 906 1312 657 
Q 1506 409 1894 409 
Q 2359 409 2629 706 
Q 2900 1003 2900 1516 
L 2900 3500 
L 3475 3500 
L 3475 0 
L 2900 0 
L 2900 538 
Q 2691 219 2414 64 
Q 2138 -91 1772 -91 
Q 1169 -91 856 284 
Q 544 659 544 1381 
z
M 1991 3584 
L 1991 3584 
z
" transform="scale(0.015625)"/>
       <path id="DejaVuSans-70" d="M 1159 525 
L 1159 -1331 
L 581 -1331 
L 581 3500 
L 1159 3500 
L 1159 2969 
Q 1341 3281 1617 3432 
Q 1894 3584 2278 3584 
Q 2916 3584 3314 3078 
Q 3713 2572 3713 1747 
Q 3713 922 3314 415 
Q 2916 -91 2278 -91 
Q 1894 -91 1617 61 
Q 1341 213 1159 525 
z
M 3116 1747 
Q 3116 2381 2855 2742 
Q 2594 3103 2138 3103 
Q 1681 3103 1420 2742 
Q 1159 2381 1159 1747 
Q 1159 1113 1420 752 
Q 1681 391 2138 391 
Q 2594 391 2855 752 
Q 3116 1113 3116 1747 
z
" transform="scale(0.015625)"/>
      </defs>
      <use xlink:href="#DejaVuSans-41"/>
      <use xlink:href="#DejaVuSans-67" x="68.408203"/>
      <use xlink:href="#DejaVuSans-65" x="131.884766"/>
      <use xlink:href="#DejaVuSans-20" x="193.408203"/>
      <use xlink:href="#DejaVuSans-47" x="225.195312"/>
      <use xlink:href="#DejaVuSans-72" x="302.685547"/>
      <use xlink:href="#DejaVuSans-6f" x="341.548828"/>
      <use xlink:href="#DejaVuSans-75" x="402.730469"/>
      <use xlink:href="#DejaVuSans-70" x="466.109375"/>
     </g>
    </g>
    <g id="patch_10">
     <path d="M 63 70.156562 
L 83 70.156562 
L 83 63.156562 
L 63 63.156562 
z
" style="fill: #3274a1; stroke: #3f3f3f; stroke-width: 1.25; stroke-linejoin: miter"/>
    </g>
    <g id="text_14">
     <!-- YA -->
     <g transform="translate(91 70.156562) scale(0.1 -0.1)">
      <defs>
       <path id="DejaVuSans-59" d="M -13 4666 
L 666 4666 
L 1959 2747 
L 3244 4666 
L 3922 4666 
L 2272 2222 
L 2272 0 
L 1638 0 
L 1638 2222 
L -13 4666 
z
" transform="scale(0.015625)"/>
      </defs>
      <use xlink:href="#DejaVuSans-59"/>
      <use xlink:href="#DejaVuSans-41" x="53.333984"/>
     </g>
    </g>
    <g id="patch_11">
     <path d="M 63 84.834687 
L 83 84.834687 
L 83 77.834687 
L 63 77.834687 
z
" style="fill: #e1812c; stroke: #3f3f3f; stroke-width: 1.25; stroke-linejoin: miter"/>
    </g>
    <g id="text_15">
     <!-- Adults -->
     <g transform="translate(91 84.834687) scale(0.1 -0.1)">
      <use xlink:href="#DejaVuSans-41"/>
      <use xlink:href="#DejaVuSans-64" x="66.658203"/>
      <use xlink:href="#DejaVuSans-75" x="130.134766"/>
      <use xlink:href="#DejaVuSans-6c" x="193.513672"/>
      <use xlink:href="#DejaVuSans-74" x="221.296875"/>
      <use xlink:href="#DejaVuSans-73" x="260.505859"/>
     </g>
    </g>
   </g>
  </g>
 </g>
 <defs>
  <clipPath id="pf5c1182042">
   <rect x="54" y="38.88" width="334.8" height="249.48"/>
  </clipPath>
 </defs>
</svg>
