<?xml version="1.0" encoding="utf-8" standalone="no"?>
<!DOCTYPE svg PUBLIC "-//W3C//DTD SVG 1.1//EN"
  "http://www.w3.org/Graphics/SVG/1.1/DTD/svg11.dtd">
<svg xmlns:xlink="http://www.w3.org/1999/xlink" width="432pt" height="324pt" viewBox="0 0 432 324" xmlns="http://www.w3.org/2000/svg" version="1.1">
 <metadata>
  <rdf:RDF xmlns:dc="http://purl.org/dc/elements/1.1/" xmlns:cc="http://creativecommons.org/ns#" xmlns:rdf="http://www.w3.org/1999/02/22-rdf-syntax-ns#">
   <cc:Work>
    <dc:type rdf:resource="http://purl.org/dc/dcmitype/StillImage"/>
    <dc:date>2024-07-16T14:23:23.419537</dc:date>
    <dc:format>image/svg+xml</dc:format>
    <dc:creator>
     <cc:Agent>
      <dc:title>Matplotlib v3.8.0, https://matplotlib.org/</dc:title>
     </cc:Agent>
    </dc:creator>
   </cc:Work>
  </rdf:RDF>
 </metadata>
 <defs>
  <style type="text/css">*{stroke-linejoin: round; stroke-linecap: butt}</style>
 </defs>
 <g id="figure_1">
  <g id="patch_1">
   <path d="M 0 324 
L 432 324 
L 432 0 
L 0 0 
z
" style="fill: #ffffff"/>
  </g>
  <g id="axes_1">
   <g id="patch_2">
    <path d="M 54 288.36 
L 388.8 288.36 
L 388.8 38.88 
L 54 38.88 
z
" style="fill: #ffffff"/>
   </g>
   <g id="PolyCollection_1">
    <defs>
     <path id="mc9aaf760de" d="M 71.596382 -222.104843 
L 71.596382 -223.395157 
L 74.622718 -223.613862 
L 77.649054 -223.895292 
L 80.675389 -224.25361 
L 83.701725 -224.704961 
L 86.728061 -225.267355 
L 89.754396 -225.960365 
L 92.780732 -226.804628 
L 95.807068 -227.821084 
L 98.833404 -229.029954 
L 101.859739 -230.449443 
L 104.886075 -232.094211 
L 107.912411 -233.973678 
L 110.938746 -236.09027 
L 113.965082 -238.437778 
L 116.991418 -240.999982 
L 120.017754 -243.749767 
L 123.044089 -246.648895 
L 126.070425 -249.648592 
L 129.096761 -252.69104 
L 132.123096 -255.711763 
L 135.149432 -258.642791 
L 138.175768 -261.416409 
L 141.202104 -263.969142 
L 144.228439 -266.245625 
L 147.254775 -268.201935 
L 150.281111 -269.808029 
L 153.307446 -271.04897 
L 156.333782 -271.924797 
L 159.360118 -272.449037 
L 162.386454 -272.646 
L 165.412789 -272.547212 
L 168.439125 -272.187398 
L 171.465461 -271.600518 
L 174.491796 -270.816355 
L 177.518132 -269.858047 
L 180.544468 -268.740849 
L 183.570804 -267.472232 
L 186.597139 -266.053231 
L 189.623475 -264.480797 
L 192.649811 -262.750786 
L 195.676146 -260.861129 
L 198.702482 -258.814738 
L 201.728818 -256.621756 
L 204.755154 -254.300863 
L 207.781489 -251.879499 
L 210.807825 -249.393008 
L 213.834161 -246.882838 
L 216.860496 -244.394061 
L 219.886832 -241.972512 
L 222.913168 -239.661879 
L 225.939504 -237.501054 
L 228.965839 -235.52198 
L 231.992175 -233.748173 
L 235.018511 -232.193968 
L 238.044846 -230.864514 
L 241.071182 -229.756402 
L 244.097518 -228.858829 
L 247.123854 -228.155127 
L 250.150189 -227.62448 
L 253.176525 -227.243705 
L 256.202861 -226.988923 
L 259.229196 -226.837032 
L 262.255532 -226.766891 
L 265.281868 -226.760172 
L 268.308204 -226.801843 
L 271.334539 -226.880293 
L 274.360875 -226.987133 
L 277.387211 -227.11671 
L 280.413546 -227.265409 
L 283.439882 -227.430831 
L 286.466218 -227.610928 
L 289.492554 -227.803203 
L 292.518889 -228.004045 
L 295.545225 -228.208291 
L 298.571561 -228.40904 
L 301.597896 -228.597767 
L 304.624232 -228.764695 
L 307.650568 -228.899405 
L 310.676904 -228.991603 
L 313.703239 -229.031955 
L 316.729575 -229.012903 
L 319.755911 -228.929359 
L 322.782246 -228.779207 
L 325.808582 -228.563555 
L 328.834918 -228.286715 
L 331.861254 -227.95592 
L 334.887589 -227.580806 
L 337.913925 -227.172732 
L 340.940261 -226.743996 
L 343.966596 -226.307035 
L 346.992932 -225.873676 
L 350.019268 -225.45451 
L 353.045604 -225.058417 
L 356.071939 -224.69227 
L 359.098275 -224.360826 
L 362.124611 -224.06677 
L 365.150946 -223.810907 
L 368.177282 -223.592437 
L 371.203618 -223.409295 
L 371.203618 -222.090705 
L 371.203618 -222.090705 
L 368.177282 -221.907563 
L 365.150946 -221.689093 
L 362.124611 -221.43323 
L 359.098275 -221.139174 
L 356.071939 -220.80773 
L 353.045604 -220.441583 
L 350.019268 -220.04549 
L 346.992932 -219.626324 
L 343.966596 -219.192965 
L 340.940261 -218.756004 
L 337.913925 -218.327268 
L 334.887589 -217.919194 
L 331.861254 -217.54408 
L 328.834918 -217.213285 
L 325.808582 -216.936445 
L 322.782246 -216.720793 
L 319.755911 -216.570641 
L 316.729575 -216.487097 
L 313.703239 -216.468045 
L 310.676904 -216.508397 
L 307.650568 -216.600595 
L 304.624232 -216.735305 
L 301.597896 -216.902233 
L 298.571561 -217.09096 
L 295.545225 -217.291709 
L 292.518889 -217.495955 
L 289.492554 -217.696797 
L 286.466218 -217.889072 
L 283.439882 -218.069169 
L 280.413546 -218.234591 
L 277.387211 -218.38329 
L 274.360875 -218.512867 
L 271.334539 -218.619707 
L 268.308204 -218.698157 
L 265.281868 -218.739828 
L 262.255532 -218.733109 
L 259.229196 -218.662968 
L 256.202861 -218.511077 
L 253.176525 -218.256295 
L 250.150189 -217.87552 
L 247.123854 -217.344873 
L 244.097518 -216.641171 
L 241.071182 -215.743598 
L 238.044846 -214.635486 
L 235.018511 -213.306032 
L 231.992175 -211.751827 
L 228.965839 -209.97802 
L 225.939504 -207.998946 
L 222.913168 -205.838121 
L 219.886832 -203.527488 
L 216.860496 -201.105939 
L 213.834161 -198.617162 
L 210.807825 -196.106992 
L 207.781489 -193.620501 
L 204.755154 -191.199137 
L 201.728818 -188.878244 
L 198.702482 -186.685262 
L 195.676146 -184.638871 
L 192.649811 -182.749214 
L 189.623475 -181.019203 
L 186.597139 -179.446769 
L 183.570804 -178.027768 
L 180.544468 -176.759151 
L 177.518132 -175.641953 
L 174.491796 -174.683645 
L 171.465461 -173.899482 
L 168.439125 -173.312602 
L 165.412789 -172.952788 
L 162.386454 -172.854 
L 159.360118 -173.050963 
L 156.333782 -173.575203 
L 153.307446 -174.45103 
L 150.281111 -175.691971 
L 147.254775 -177.298065 
L 144.228439 -179.254375 
L 141.202104 -181.530858 
L 138.175768 -184.083591 
L 135.149432 -186.857209 
L 132.123096 -189.788237 
L 129.096761 -192.80896 
L 126.070425 -195.851408 
L 123.044089 -198.851105 
L 120.017754 -201.750233 
L 116.991418 -204.500018 
L 113.965082 -207.062222 
L 110.938746 -209.40973 
L 107.912411 -211.526322 
L 104.886075 -213.405789 
L 101.859739 -215.050557 
L 98.833404 -216.470046 
L 95.807068 -217.678916 
L 92.780732 -218.695372 
L 89.754396 -219.539635 
L 86.728061 -220.232645 
L 83.701725 -220.795039 
L 80.675389 -221.24639 
L 77.649054 -221.604708 
L 74.622718 -221.886138 
L 71.596382 -222.104843 
z
" style="stroke: #3f3f3f; stroke-width: 1.5"/>
    </defs>
    <g clip-path="url(#p89c14a81bb)">
     <use xlink:href="#mc9aaf760de" x="0" y="324" style="fill: #3274a1; stroke: #3f3f3f; stroke-width: 1.5"/>
    </g>
   </g>
   <g id="PolyCollection_2">
    <defs>
     <path id="md9eff1252a" d="M 69.218182 -97.495796 
L 69.218182 -98.524204 
L 72.292562 -98.70552 
L 75.366942 -98.941725 
L 78.441322 -99.246073 
L 81.515702 -99.633835 
L 84.590083 -100.122203 
L 87.664463 -100.730014 
L 90.738843 -101.477282 
L 93.813223 -102.384481 
L 96.887603 -103.471584 
L 99.961983 -104.756851 
L 103.036364 -106.255412 
L 106.110744 -107.977694 
L 109.185124 -109.927816 
L 112.259504 -112.102058 
L 115.333884 -114.487572 
L 118.408264 -117.061498 
L 121.482645 -119.790623 
L 124.557025 -122.631723 
L 127.631405 -125.532655 
L 130.705785 -128.434208 
L 133.780165 -131.272634 
L 136.854545 -133.982719 
L 139.928926 -136.501159 
L 143.003306 -138.76996 
L 146.077686 -140.739567 
L 149.152066 -142.371422 
L 152.226446 -143.639702 
L 155.300826 -144.532082 
L 158.375207 -145.049438 
L 161.449587 -145.204569 
L 164.523967 -145.020082 
L 167.598347 -144.525692 
L 170.672727 -143.755273 
L 173.747107 -142.743962 
L 176.821488 -141.52565 
L 179.895868 -140.131093 
L 182.970248 -138.586788 
L 186.044628 -136.914684 
L 189.119008 -135.132633 
L 192.193388 -133.255447 
L 195.267769 -131.296335 
L 198.342149 -129.268455 
L 201.416529 -127.186346 
L 204.490909 -125.067024 
L 207.565289 -122.930589 
L 210.639669 -120.800285 
L 213.71405 -118.702013 
L 216.78843 -116.663378 
L 219.86281 -114.712402 
L 222.93719 -112.876075 
L 226.01157 -111.178897 
L 229.08595 -109.641586 
L 232.160331 -108.280061 
L 235.234711 -107.104787 
L 238.309091 -106.12052 
L 241.383471 -105.326439 
L 244.457851 -104.716619 
L 247.532231 -104.28077 
L 250.606612 -104.005155 
L 253.680992 -103.873595 
L 256.755372 -103.868451 
L 259.829752 -103.971531 
L 262.904132 -104.16484 
L 265.978512 -104.431139 
L 269.052893 -104.754303 
L 272.127273 -105.11947 
L 275.201653 -105.513013 
L 278.276033 -105.922373 
L 281.350413 -106.335811 
L 284.424793 -106.742119 
L 287.499174 -107.130372 
L 290.573554 -107.489755 
L 293.647934 -107.809505 
L 296.722314 -108.079005 
L 299.796694 -108.288016 
L 302.871074 -108.427041 
L 305.945455 -108.487787 
L 309.019835 -108.463673 
L 312.094215 -108.350323 
L 315.168595 -108.145996 
L 318.242975 -107.851885 
L 321.317355 -107.472249 
L 324.391736 -107.01435 
L 327.466116 -106.488191 
L 330.540496 -105.90607 
L 333.614876 -105.281976 
L 336.689256 -104.630888 
L 339.763636 -103.968023 
L 342.838017 -103.308104 
L 345.912397 -102.664686 
L 348.986777 -102.049612 
L 352.061157 -101.472612 
L 355.135537 -100.941062 
L 358.209917 -100.459916 
L 361.284298 -100.031789 
L 364.358678 -99.657166 
L 367.433058 -99.334702 
L 370.507438 -99.061585 
L 373.581818 -98.83392 
L 373.581818 -97.18608 
L 373.581818 -97.18608 
L 370.507438 -96.958415 
L 367.433058 -96.685298 
L 364.358678 -96.362834 
L 361.284298 -95.988211 
L 358.209917 -95.560084 
L 355.135537 -95.078938 
L 352.061157 -94.547388 
L 348.986777 -93.970388 
L 345.912397 -93.355314 
L 342.838017 -92.711896 
L 339.763636 -92.051977 
L 336.689256 -91.389112 
L 333.614876 -90.738024 
L 330.540496 -90.11393 
L 327.466116 -89.531809 
L 324.391736 -89.00565 
L 321.317355 -88.547751 
L 318.242975 -88.168115 
L 315.168595 -87.874004 
L 312.094215 -87.669677 
L 309.019835 -87.556327 
L 305.945455 -87.532213 
L 302.871074 -87.592959 
L 299.796694 -87.731984 
L 296.722314 -87.940995 
L 293.647934 -88.210495 
L 290.573554 -88.530245 
L 287.499174 -88.889628 
L 284.424793 -89.277881 
L 281.350413 -89.684189 
L 278.276033 -90.097627 
L 275.201653 -90.506987 
L 272.127273 -90.90053 
L 269.052893 -91.265697 
L 265.978512 -91.588861 
L 262.904132 -91.85516 
L 259.829752 -92.048469 
L 256.755372 -92.151549 
L 253.680992 -92.146405 
L 250.606612 -92.014845 
L 247.532231 -91.73923 
L 244.457851 -91.303381 
L 241.383471 -90.693561 
L 238.309091 -89.89948 
L 235.234711 -88.915213 
L 232.160331 -87.739939 
L 229.08595 -86.378414 
L 226.01157 -84.841103 
L 222.93719 -83.143925 
L 219.86281 -81.307598 
L 216.78843 -79.356622 
L 213.71405 -77.317987 
L 210.639669 -75.219715 
L 207.565289 -73.089411 
L 204.490909 -70.952976 
L 201.416529 -68.833654 
L 198.342149 -66.751545 
L 195.267769 -64.723665 
L 192.193388 -62.764553 
L 189.119008 -60.887367 
L 186.044628 -59.105316 
L 182.970248 -57.433212 
L 179.895868 -55.888907 
L 176.821488 -54.49435 
L 173.747107 -53.276038 
L 170.672727 -52.264727 
L 167.598347 -51.494308 
L 164.523967 -50.999918 
L 161.449587 -50.815431 
L 158.375207 -50.970562 
L 155.300826 -51.487918 
L 152.226446 -52.380298 
L 149.152066 -53.648578 
L 146.077686 -55.280433 
L 143.003306 -57.25004 
L 139.928926 -59.518841 
L 136.854545 -62.037281 
L 133.780165 -64.747366 
L 130.705785 -67.585792 
L 127.631405 -70.487345 
L 124.557025 -73.388277 
L 121.482645 -76.229377 
L 118.408264 -78.958502 
L 115.333884 -81.532428 
L 112.259504 -83.917942 
L 109.185124 -86.092184 
L 106.110744 -88.042306 
L 103.036364 -89.764588 
L 99.961983 -91.263149 
L 96.887603 -92.548416 
L 93.813223 -93.635519 
L 90.738843 -94.542718 
L 87.664463 -95.289986 
L 84.590083 -95.897797 
L 81.515702 -96.386165 
L 78.441322 -96.773927 
L 75.366942 -97.078275 
L 72.292562 -97.31448 
L 69.218182 -97.495796 
z
" style="stroke: #3f3f3f; stroke-width: 1.5"/>
    </defs>
    <g clip-path="url(#p89c14a81bb)">
     <use xlink:href="#md9eff1252a" x="0" y="324" style="fill: #e1812c; stroke: #3f3f3f; stroke-width: 1.5"/>
    </g>
   </g>
   <g id="matplotlib.axis_1">
    <g id="xtick_1">
     <g id="line2d_1">
      <defs>
       <path id="m0dbeccb76d" d="M 0 0 
L 0 3.5 
" style="stroke: #000000; stroke-width: 0.8"/>
      </defs>
      <g>
       <use xlink:href="#m0dbeccb76d" x="63.290131" y="288.36" style="stroke: #000000; stroke-width: 0.8"/>
      </g>
     </g>
     <g id="text_1">
      <!-- 5 -->
      <g transform="translate(60.108881 302.958438) scale(0.1 -0.1)">
       <defs>
        <path id="DejaVuSans-35" d="M 691 4666 
L 3169 4666 
L 3169 4134 
L 1269 4134 
L 1269 2991 
Q 1406 3038 1543 3061 
Q 1681 3084 1819 3084 
Q 2600 3084 3056 2656 
Q 3513 2228 3513 1497 
Q 3513 744 3044 326 
Q 2575 -91 1722 -91 
Q 1428 -91 1123 -41 
Q 819 9 494 109 
L 494 744 
Q 775 591 1075 516 
Q 1375 441 1709 441 
Q 2250 441 2565 725 
Q 2881 1009 2881 1497 
Q 2881 1984 2565 2268 
Q 2250 2553 1709 2553 
Q 1456 2553 1204 2497 
Q 953 2441 691 2322 
L 691 4666 
z
" transform="scale(0.015625)"/>
       </defs>
       <use xlink:href="#DejaVuSans-35"/>
      </g>
     </g>
    </g>
    <g id="xtick_2">
     <g id="line2d_2">
      <g>
       <use xlink:href="#m0dbeccb76d" x="144.670211" y="288.36" style="stroke: #000000; stroke-width: 0.8"/>
      </g>
     </g>
     <g id="text_2">
      <!-- 10 -->
      <g transform="translate(138.307711 302.958438) scale(0.1 -0.1)">
       <defs>
        <path id="DejaVuSans-31" d="M 794 531 
L 1825 531 
L 1825 4091 
L 703 3866 
L 703 4441 
L 1819 4666 
L 2450 4666 
L 2450 531 
L 3481 531 
L 3481 0 
L 794 0 
L 794 531 
z
" transform="scale(0.015625)"/>
        <path id="DejaVuSans-30" d="M 2034 4250 
Q 1547 4250 1301 3770 
Q 1056 3291 1056 2328 
Q 1056 1369 1301 889 
Q 1547 409 2034 409 
Q 2525 409 2770 889 
Q 3016 1369 3016 2328 
Q 3016 3291 2770 3770 
Q 2525 4250 2034 4250 
z
M 2034 4750 
Q 2819 4750 3233 4129 
Q 3647 3509 3647 2328 
Q 3647 1150 3233 529 
Q 2819 -91 2034 -91 
Q 1250 -91 836 529 
Q 422 1150 422 2328 
Q 422 3509 836 4129 
Q 1250 4750 2034 4750 
z
" transform="scale(0.015625)"/>
       </defs>
       <use xlink:href="#DejaVuSans-31"/>
       <use xlink:href="#DejaVuSans-30" x="63.623047"/>
      </g>
     </g>
    </g>
    <g id="xtick_3">
     <g id="line2d_3">
      <g>
       <use xlink:href="#m0dbeccb76d" x="226.05029" y="288.36" style="stroke: #000000; stroke-width: 0.8"/>
      </g>
     </g>
     <g id="text_3">
      <!-- 15 -->
      <g transform="translate(219.68779 302.958438) scale(0.1 -0.1)">
       <use xlink:href="#DejaVuSans-31"/>
       <use xlink:href="#DejaVuSans-35" x="63.623047"/>
      </g>
     </g>
    </g>
    <g id="xtick_4">
     <g id="line2d_4">
      <g>
       <use xlink:href="#m0dbeccb76d" x="307.43037" y="288.36" style="stroke: #000000; stroke-width: 0.8"/>
      </g>
     </g>
     <g id="text_4">
      <!-- 20 -->
      <g transform="translate(301.06787 302.958438) scale(0.1 -0.1)">
       <defs>
        <path id="DejaVuSans-32" d="M 1228 531 
L 3431 531 
L 3431 0 
L 469 0 
L 469 531 
Q 828 903 1448 1529 
Q 2069 2156 2228 2338 
Q 2531 2678 2651 2914 
Q 2772 3150 2772 3378 
Q 2772 3750 2511 3984 
Q 2250 4219 1831 4219 
Q 1534 4219 1204 4116 
Q 875 4013 500 3803 
L 500 4441 
Q 881 4594 1212 4672 
Q 1544 4750 1819 4750 
Q 2544 4750 2975 4387 
Q 3406 4025 3406 3419 
Q 3406 3131 3298 2873 
Q 3191 2616 2906 2266 
Q 2828 2175 2409 1742 
Q 1991 1309 1228 531 
z
" transform="scale(0.015625)"/>
       </defs>
       <use xlink:href="#DejaVuSans-32"/>
       <use xlink:href="#DejaVuSans-30" x="63.623047"/>
      </g>
     </g>
    </g>
    <g id="text_5">
     <!-- Age at SEFLA (weeks) -->
     <g transform="translate(166.765625 316.636563) scale(0.1 -0.1)">
      <defs>
       <path id="DejaVuSans-41" d="M 2188 4044 
L 1331 1722 
L 3047 1722 
L 2188 4044 
z
M 1831 4666 
L 2547 4666 
L 4325 0 
L 3669 0 
L 3244 1197 
L 1141 1197 
L 716 0 
L 50 0 
L 1831 4666 
z
" transform="scale(0.015625)"/>
       <path id="DejaVuSans-67" d="M 2906 1791 
Q 2906 2416 2648 2759 
Q 2391 3103 1925 3103 
Q 1463 3103 1205 2759 
Q 947 2416 947 1791 
Q 947 1169 1205 825 
Q 1463 481 1925 481 
Q 2391 481 2648 825 
Q 2906 1169 2906 1791 
z
M 3481 434 
Q 3481 -459 3084 -895 
Q 2688 -1331 1869 -1331 
Q 1566 -1331 1297 -1286 
Q 1028 -1241 775 -1147 
L 775 -588 
Q 1028 -725 1275 -790 
Q 1522 -856 1778 -856 
Q 2344 -856 2625 -561 
Q 2906 -266 2906 331 
L 2906 616 
Q 2728 306 2450 153 
Q 2172 0 1784 0 
Q 1141 0 747 490 
Q 353 981 353 1791 
Q 353 2603 747 3093 
Q 1141 3584 1784 3584 
Q 2172 3584 2450 3431 
Q 2728 3278 2906 2969 
L 2906 3500 
L 3481 3500 
L 3481 434 
z
" transform="scale(0.015625)"/>
       <path id="DejaVuSans-65" d="M 3597 1894 
L 3597 1613 
L 953 1613 
Q 991 1019 1311 708 
Q 1631 397 2203 397 
Q 2534 397 2845 478 
Q 3156 559 3463 722 
L 3463 178 
Q 3153 47 2828 -22 
Q 2503 -91 2169 -91 
Q 1331 -91 842 396 
Q 353 884 353 1716 
Q 353 2575 817 3079 
Q 1281 3584 2069 3584 
Q 2775 3584 3186 3129 
Q 3597 2675 3597 1894 
z
M 3022 2063 
Q 3016 2534 2758 2815 
Q 2500 3097 2075 3097 
Q 1594 3097 1305 2825 
Q 1016 2553 972 2059 
L 3022 2063 
z
" transform="scale(0.015625)"/>
       <path id="DejaVuSans-20" transform="scale(0.015625)"/>
       <path id="DejaVuSans-61" d="M 2194 1759 
Q 1497 1759 1228 1600 
Q 959 1441 959 1056 
Q 959 750 1161 570 
Q 1363 391 1709 391 
Q 2188 391 2477 730 
Q 2766 1069 2766 1631 
L 2766 1759 
L 2194 1759 
z
M 3341 1997 
L 3341 0 
L 2766 0 
L 2766 531 
Q 2569 213 2275 61 
Q 1981 -91 1556 -91 
Q 1019 -91 701 211 
Q 384 513 384 1019 
Q 384 1609 779 1909 
Q 1175 2209 1959 2209 
L 2766 2209 
L 2766 2266 
Q 2766 2663 2505 2880 
Q 2244 3097 1772 3097 
Q 1472 3097 1187 3025 
Q 903 2953 641 2809 
L 641 3341 
Q 956 3463 1253 3523 
Q 1550 3584 1831 3584 
Q 2591 3584 2966 3190 
Q 3341 2797 3341 1997 
z
" transform="scale(0.015625)"/>
       <path id="DejaVuSans-74" d="M 1172 4494 
L 1172 3500 
L 2356 3500 
L 2356 3053 
L 1172 3053 
L 1172 1153 
Q 1172 725 1289 603 
Q 1406 481 1766 481 
L 2356 481 
L 2356 0 
L 1766 0 
Q 1100 0 847 248 
Q 594 497 594 1153 
L 594 3053 
L 172 3053 
L 172 3500 
L 594 3500 
L 594 4494 
L 1172 4494 
z
" transform="scale(0.015625)"/>
       <path id="DejaVuSans-53" d="M 3425 4513 
L 3425 3897 
Q 3066 4069 2747 4153 
Q 2428 4238 2131 4238 
Q 1616 4238 1336 4038 
Q 1056 3838 1056 3469 
Q 1056 3159 1242 3001 
Q 1428 2844 1947 2747 
L 2328 2669 
Q 3034 2534 3370 2195 
Q 3706 1856 3706 1288 
Q 3706 609 3251 259 
Q 2797 -91 1919 -91 
Q 1588 -91 1214 -16 
Q 841 59 441 206 
L 441 856 
Q 825 641 1194 531 
Q 1563 422 1919 422 
Q 2459 422 2753 634 
Q 3047 847 3047 1241 
Q 3047 1584 2836 1778 
Q 2625 1972 2144 2069 
L 1759 2144 
Q 1053 2284 737 2584 
Q 422 2884 422 3419 
Q 422 4038 858 4394 
Q 1294 4750 2059 4750 
Q 2388 4750 2728 4690 
Q 3069 4631 3425 4513 
z
" transform="scale(0.015625)"/>
       <path id="DejaVuSans-45" d="M 628 4666 
L 3578 4666 
L 3578 4134 
L 1259 4134 
L 1259 2753 
L 3481 2753 
L 3481 2222 
L 1259 2222 
L 1259 531 
L 3634 531 
L 3634 0 
L 628 0 
L 628 4666 
z
" transform="scale(0.015625)"/>
       <path id="DejaVuSans-46" d="M 628 4666 
L 3309 4666 
L 3309 4134 
L 1259 4134 
L 1259 2759 
L 3109 2759 
L 3109 2228 
L 1259 2228 
L 1259 0 
L 628 0 
L 628 4666 
z
" transform="scale(0.015625)"/>
       <path id="DejaVuSans-4c" d="M 628 4666 
L 1259 4666 
L 1259 531 
L 3531 531 
L 3531 0 
L 628 0 
L 628 4666 
z
" transform="scale(0.015625)"/>
       <path id="DejaVuSans-28" d="M 1984 4856 
Q 1566 4138 1362 3434 
Q 1159 2731 1159 2009 
Q 1159 1288 1364 580 
Q 1569 -128 1984 -844 
L 1484 -844 
Q 1016 -109 783 600 
Q 550 1309 550 2009 
Q 550 2706 781 3412 
Q 1013 4119 1484 4856 
L 1984 4856 
z
" transform="scale(0.015625)"/>
       <path id="DejaVuSans-77" d="M 269 3500 
L 844 3500 
L 1563 769 
L 2278 3500 
L 2956 3500 
L 3675 769 
L 4391 3500 
L 4966 3500 
L 4050 0 
L 3372 0 
L 2619 2869 
L 1863 0 
L 1184 0 
L 269 3500 
z
" transform="scale(0.015625)"/>
       <path id="DejaVuSans-6b" d="M 581 4863 
L 1159 4863 
L 1159 1991 
L 2875 3500 
L 3609 3500 
L 1753 1863 
L 3688 0 
L 2938 0 
L 1159 1709 
L 1159 0 
L 581 0 
L 581 4863 
z
" transform="scale(0.015625)"/>
       <path id="DejaVuSans-73" d="M 2834 3397 
L 2834 2853 
Q 2591 2978 2328 3040 
Q 2066 3103 1784 3103 
Q 1356 3103 1142 2972 
Q 928 2841 928 2578 
Q 928 2378 1081 2264 
Q 1234 2150 1697 2047 
L 1894 2003 
Q 2506 1872 2764 1633 
Q 3022 1394 3022 966 
Q 3022 478 2636 193 
Q 2250 -91 1575 -91 
Q 1294 -91 989 -36 
Q 684 19 347 128 
L 347 722 
Q 666 556 975 473 
Q 1284 391 1588 391 
Q 1994 391 2212 530 
Q 2431 669 2431 922 
Q 2431 1156 2273 1281 
Q 2116 1406 1581 1522 
L 1381 1569 
Q 847 1681 609 1914 
Q 372 2147 372 2553 
Q 372 3047 722 3315 
Q 1072 3584 1716 3584 
Q 2034 3584 2315 3537 
Q 2597 3491 2834 3397 
z
" transform="scale(0.015625)"/>
       <path id="DejaVuSans-29" d="M 513 4856 
L 1013 4856 
Q 1481 4119 1714 3412 
Q 1947 2706 1947 2009 
Q 1947 1309 1714 600 
Q 1481 -109 1013 -844 
L 513 -844 
Q 928 -128 1133 580 
Q 1338 1288 1338 2009 
Q 1338 2731 1133 3434 
Q 928 4138 513 4856 
z
" transform="scale(0.015625)"/>
      </defs>
      <use xlink:href="#DejaVuSans-41"/>
      <use xlink:href="#DejaVuSans-67" x="68.408203"/>
      <use xlink:href="#DejaVuSans-65" x="131.884766"/>
      <use xlink:href="#DejaVuSans-20" x="193.408203"/>
      <use xlink:href="#DejaVuSans-61" x="225.195312"/>
      <use xlink:href="#DejaVuSans-74" x="286.474609"/>
      <use xlink:href="#DejaVuSans-20" x="325.683594"/>
      <use xlink:href="#DejaVuSans-53" x="357.470703"/>
      <use xlink:href="#DejaVuSans-45" x="420.947266"/>
      <use xlink:href="#DejaVuSans-46" x="484.130859"/>
      <use xlink:href="#DejaVuSans-4c" x="541.650391"/>
      <use xlink:href="#DejaVuSans-41" x="599.613281"/>
      <use xlink:href="#DejaVuSans-20" x="668.021484"/>
      <use xlink:href="#DejaVuSans-28" x="699.808594"/>
      <use xlink:href="#DejaVuSans-77" x="738.822266"/>
      <use xlink:href="#DejaVuSans-65" x="820.609375"/>
      <use xlink:href="#DejaVuSans-65" x="882.132812"/>
      <use xlink:href="#DejaVuSans-6b" x="943.65625"/>
      <use xlink:href="#DejaVuSans-73" x="1001.566406"/>
      <use xlink:href="#DejaVuSans-29" x="1053.666016"/>
     </g>
    </g>
   </g>
   <g id="matplotlib.axis_2">
    <g id="ytick_1">
     <g id="line2d_5">
      <defs>
       <path id="m1d057bbbc8" d="M 0 0 
L -3.5 0 
" style="stroke: #000000; stroke-width: 0.8"/>
      </defs>
      <g>
       <use xlink:href="#m1d057bbbc8" x="54" y="101.25" style="stroke: #000000; stroke-width: 0.8"/>
      </g>
     </g>
     <g id="text_6">
      <!-- control -->
      <g transform="translate(12.342188 105.049219) scale(0.1 -0.1)">
       <defs>
        <path id="DejaVuSans-63" d="M 3122 3366 
L 3122 2828 
Q 2878 2963 2633 3030 
Q 2388 3097 2138 3097 
Q 1578 3097 1268 2742 
Q 959 2388 959 1747 
Q 959 1106 1268 751 
Q 1578 397 2138 397 
Q 2388 397 2633 464 
Q 2878 531 3122 666 
L 3122 134 
Q 2881 22 2623 -34 
Q 2366 -91 2075 -91 
Q 1284 -91 818 406 
Q 353 903 353 1747 
Q 353 2603 823 3093 
Q 1294 3584 2113 3584 
Q 2378 3584 2631 3529 
Q 2884 3475 3122 3366 
z
" transform="scale(0.015625)"/>
        <path id="DejaVuSans-6f" d="M 1959 3097 
Q 1497 3097 1228 2736 
Q 959 2375 959 1747 
Q 959 1119 1226 758 
Q 1494 397 1959 397 
Q 2419 397 2687 759 
Q 2956 1122 2956 1747 
Q 2956 2369 2687 2733 
Q 2419 3097 1959 3097 
z
M 1959 3584 
Q 2709 3584 3137 3096 
Q 3566 2609 3566 1747 
Q 3566 888 3137 398 
Q 2709 -91 1959 -91 
Q 1206 -91 779 398 
Q 353 888 353 1747 
Q 353 2609 779 3096 
Q 1206 3584 1959 3584 
z
" transform="scale(0.015625)"/>
        <path id="DejaVuSans-6e" d="M 3513 2113 
L 3513 0 
L 2938 0 
L 2938 2094 
Q 2938 2591 2744 2837 
Q 2550 3084 2163 3084 
Q 1697 3084 1428 2787 
Q 1159 2491 1159 1978 
L 1159 0 
L 581 0 
L 581 3500 
L 1159 3500 
L 1159 2956 
Q 1366 3272 1645 3428 
Q 1925 3584 2291 3584 
Q 2894 3584 3203 3211 
Q 3513 2838 3513 2113 
z
" transform="scale(0.015625)"/>
        <path id="DejaVuSans-72" d="M 2631 2963 
Q 2534 3019 2420 3045 
Q 2306 3072 2169 3072 
Q 1681 3072 1420 2755 
Q 1159 2438 1159 1844 
L 1159 0 
L 581 0 
L 581 3500 
L 1159 3500 
L 1159 2956 
Q 1341 3275 1631 3429 
Q 1922 3584 2338 3584 
Q 2397 3584 2469 3576 
Q 2541 3569 2628 3553 
L 2631 2963 
z
" transform="scale(0.015625)"/>
        <path id="DejaVuSans-6c" d="M 603 4863 
L 1178 4863 
L 1178 0 
L 603 0 
L 603 4863 
z
" transform="scale(0.015625)"/>
       </defs>
       <use xlink:href="#DejaVuSans-63"/>
       <use xlink:href="#DejaVuSans-6f" x="54.980469"/>
       <use xlink:href="#DejaVuSans-6e" x="116.162109"/>
       <use xlink:href="#DejaVuSans-74" x="179.541016"/>
       <use xlink:href="#DejaVuSans-72" x="218.75"/>
       <use xlink:href="#DejaVuSans-6f" x="257.613281"/>
       <use xlink:href="#DejaVuSans-6c" x="318.794922"/>
      </g>
     </g>
    </g>
    <g id="ytick_2">
     <g id="line2d_6">
      <g>
       <use xlink:href="#m1d057bbbc8" x="54" y="225.99" style="stroke: #000000; stroke-width: 0.8"/>
      </g>
     </g>
     <g id="text_7">
      <!-- sefl -->
      <g transform="translate(29.339063 229.789219) scale(0.1 -0.1)">
       <defs>
        <path id="DejaVuSans-66" d="M 2375 4863 
L 2375 4384 
L 1825 4384 
Q 1516 4384 1395 4259 
Q 1275 4134 1275 3809 
L 1275 3500 
L 2222 3500 
L 2222 3053 
L 1275 3053 
L 1275 0 
L 697 0 
L 697 3053 
L 147 3053 
L 147 3500 
L 697 3500 
L 697 3744 
Q 697 4328 969 4595 
Q 1241 4863 1831 4863 
L 2375 4863 
z
" transform="scale(0.015625)"/>
       </defs>
       <use xlink:href="#DejaVuSans-73"/>
       <use xlink:href="#DejaVuSans-65" x="52.099609"/>
       <use xlink:href="#DejaVuSans-66" x="113.623047"/>
       <use xlink:href="#DejaVuSans-6c" x="148.828125"/>
      </g>
     </g>
    </g>
    <g id="text_8">
     <!-- Condition -->
     <g transform="translate(6.2625 187.480156) rotate(-90) scale(0.1 -0.1)">
      <defs>
       <path id="DejaVuSans-43" d="M 4122 4306 
L 4122 3641 
Q 3803 3938 3442 4084 
Q 3081 4231 2675 4231 
Q 1875 4231 1450 3742 
Q 1025 3253 1025 2328 
Q 1025 1406 1450 917 
Q 1875 428 2675 428 
Q 3081 428 3442 575 
Q 3803 722 4122 1019 
L 4122 359 
Q 3791 134 3420 21 
Q 3050 -91 2638 -91 
Q 1578 -91 968 557 
Q 359 1206 359 2328 
Q 359 3453 968 4101 
Q 1578 4750 2638 4750 
Q 3056 4750 3426 4639 
Q 3797 4528 4122 4306 
z
" transform="scale(0.015625)"/>
       <path id="DejaVuSans-64" d="M 2906 2969 
L 2906 4863 
L 3481 4863 
L 3481 0 
L 2906 0 
L 2906 525 
Q 2725 213 2448 61 
Q 2172 -91 1784 -91 
Q 1150 -91 751 415 
Q 353 922 353 1747 
Q 353 2572 751 3078 
Q 1150 3584 1784 3584 
Q 2172 3584 2448 3432 
Q 2725 3281 2906 2969 
z
M 947 1747 
Q 947 1113 1208 752 
Q 1469 391 1925 391 
Q 2381 391 2643 752 
Q 2906 1113 2906 1747 
Q 2906 2381 2643 2742 
Q 2381 3103 1925 3103 
Q 1469 3103 1208 2742 
Q 947 2381 947 1747 
z
" transform="scale(0.015625)"/>
       <path id="DejaVuSans-69" d="M 603 3500 
L 1178 3500 
L 1178 0 
L 603 0 
L 603 3500 
z
M 603 4863 
L 1178 4863 
L 1178 4134 
L 603 4134 
L 603 4863 
z
" transform="scale(0.015625)"/>
      </defs>
      <use xlink:href="#DejaVuSans-43"/>
      <use xlink:href="#DejaVuSans-6f" x="69.824219"/>
      <use xlink:href="#DejaVuSans-6e" x="131.005859"/>
      <use xlink:href="#DejaVuSans-64" x="194.384766"/>
      <use xlink:href="#DejaVuSans-69" x="257.861328"/>
      <use xlink:href="#DejaVuSans-74" x="285.644531"/>
      <use xlink:href="#DejaVuSans-69" x="324.853516"/>
      <use xlink:href="#DejaVuSans-6f" x="352.636719"/>
      <use xlink:href="#DejaVuSans-6e" x="413.818359"/>
     </g>
    </g>
   </g>
   <g id="line2d_7">
    <path d="M 121.418759 101.25 
L 202.798839 101.25 
" clip-path="url(#p89c14a81bb)" style="fill: none; stroke: #3f3f3f; stroke-width: 1.5; stroke-linecap: square"/>
   </g>
   <g id="line2d_8">
    <path d="M 149.320501 101.25 
L 193.498258 101.25 
" clip-path="url(#p89c14a81bb)" style="fill: none; stroke: #3f3f3f; stroke-width: 4.5; stroke-linecap: square"/>
   </g>
   <g id="line2d_9">
    <path d="M 121.418759 225.99 
L 270.228048 225.99 
" clip-path="url(#p89c14a81bb)" style="fill: none; stroke: #3f3f3f; stroke-width: 1.5; stroke-linecap: square"/>
   </g>
   <g id="line2d_10">
    <path d="M 149.320501 225.99 
L 198.729835 225.99 
" clip-path="url(#p89c14a81bb)" style="fill: none; stroke: #3f3f3f; stroke-width: 4.5; stroke-linecap: square"/>
   </g>
   <g id="patch_3">
    <path d="M 54 288.36 
L 54 38.88 
" style="fill: none; stroke: #000000; stroke-width: 0.8; stroke-linejoin: miter; stroke-linecap: square"/>
   </g>
   <g id="patch_4">
    <path d="M 388.8 288.36 
L 388.8 38.88 
" style="fill: none; stroke: #000000; stroke-width: 0.8; stroke-linejoin: miter; stroke-linecap: square"/>
   </g>
   <g id="patch_5">
    <path d="M 54 288.36 
L 388.8 288.36 
" style="fill: none; stroke: #000000; stroke-width: 0.8; stroke-linejoin: miter; stroke-linecap: square"/>
   </g>
   <g id="patch_6">
    <path d="M 54 38.88 
L 388.8 38.88 
" style="fill: none; stroke: #000000; stroke-width: 0.8; stroke-linejoin: miter; stroke-linecap: square"/>
   </g>
   <g id="PathCollection_1">
    <defs>
     <path id="mb4d0850792" d="M 0 1.5 
C 0.397805 1.5 0.77937 1.341951 1.06066 1.06066 
C 1.341951 0.77937 1.5 0.397805 1.5 0 
C 1.5 -0.397805 1.341951 -0.77937 1.06066 -1.06066 
C 0.77937 -1.341951 0.397805 -1.5 0 -1.5 
C -0.397805 -1.5 -0.77937 -1.341951 -1.06066 -1.06066 
C -1.341951 -0.77937 -1.5 -0.397805 -1.5 0 
C -1.5 0.397805 -1.341951 0.77937 -1.06066 1.06066 
C -0.77937 1.341951 -0.397805 1.5 0 1.5 
z
" style="stroke: #3f3f3f"/>
    </defs>
    <g clip-path="url(#p89c14a81bb)">
     <use xlink:href="#mb4d0850792" x="158.621081" y="101.25" style="fill: #ffffff; stroke: #3f3f3f"/>
    </g>
   </g>
   <g id="PathCollection_2">
    <g clip-path="url(#p89c14a81bb)">
     <use xlink:href="#mb4d0850792" x="158.621081" y="225.99" style="fill: #ffffff; stroke: #3f3f3f"/>
    </g>
   </g>
   <g id="text_9">
    <!-- Age Distribution by Conditions -->
    <g transform="translate(129.953438 32.88) scale(0.12 -0.12)">
     <defs>
      <path id="DejaVuSans-44" d="M 1259 4147 
L 1259 519 
L 2022 519 
Q 2988 519 3436 956 
Q 3884 1394 3884 2338 
Q 3884 3275 3436 3711 
Q 2988 4147 2022 4147 
L 1259 4147 
z
M 628 4666 
L 1925 4666 
Q 3281 4666 3915 4102 
Q 4550 3538 4550 2338 
Q 4550 1131 3912 565 
Q 3275 0 1925 0 
L 628 0 
L 628 4666 
z
" transform="scale(0.015625)"/>
      <path id="DejaVuSans-62" d="M 3116 1747 
Q 3116 2381 2855 2742 
Q 2594 3103 2138 3103 
Q 1681 3103 1420 2742 
Q 1159 2381 1159 1747 
Q 1159 1113 1420 752 
Q 1681 391 2138 391 
Q 2594 391 2855 752 
Q 3116 1113 3116 1747 
z
M 1159 2969 
Q 1341 3281 1617 3432 
Q 1894 3584 2278 3584 
Q 2916 3584 3314 3078 
Q 3713 2572 3713 1747 
Q 3713 922 3314 415 
Q 2916 -91 2278 -91 
Q 1894 -91 1617 61 
Q 1341 213 1159 525 
L 1159 0 
L 581 0 
L 581 4863 
L 1159 4863 
L 1159 2969 
z
" transform="scale(0.015625)"/>
      <path id="DejaVuSans-75" d="M 544 1381 
L 544 3500 
L 1119 3500 
L 1119 1403 
Q 1119 906 1312 657 
Q 1506 409 1894 409 
Q 2359 409 2629 706 
Q 2900 1003 2900 1516 
L 2900 3500 
L 3475 3500 
L 3475 0 
L 2900 0 
L 2900 538 
Q 2691 219 2414 64 
Q 2138 -91 1772 -91 
Q 1169 -91 856 284 
Q 544 659 544 1381 
z
M 1991 3584 
L 1991 3584 
z
" transform="scale(0.015625)"/>
      <path id="DejaVuSans-79" d="M 2059 -325 
Q 1816 -950 1584 -1140 
Q 1353 -1331 966 -1331 
L 506 -1331 
L 506 -850 
L 844 -850 
Q 1081 -850 1212 -737 
Q 1344 -625 1503 -206 
L 1606 56 
L 191 3500 
L 800 3500 
L 1894 763 
L 2988 3500 
L 3597 3500 
L 2059 -325 
z
" transform="scale(0.015625)"/>
     </defs>
     <use xlink:href="#DejaVuSans-41"/>
     <use xlink:href="#DejaVuSans-67" x="68.408203"/>
     <use xlink:href="#DejaVuSans-65" x="131.884766"/>
     <use xlink:href="#DejaVuSans-20" x="193.408203"/>
     <use xlink:href="#DejaVuSans-44" x="225.195312"/>
     <use xlink:href="#DejaVuSans-69" x="302.197266"/>
     <use xlink:href="#DejaVuSans-73" x="329.980469"/>
     <use xlink:href="#DejaVuSans-74" x="382.080078"/>
     <use xlink:href="#DejaVuSans-72" x="421.289062"/>
     <use xlink:href="#DejaVuSans-69" x="462.402344"/>
     <use xlink:href="#DejaVuSans-62" x="490.185547"/>
     <use xlink:href="#DejaVuSans-75" x="553.662109"/>
     <use xlink:href="#DejaVuSans-74" x="617.041016"/>
     <use xlink:href="#DejaVuSans-69" x="656.25"/>
     <use xlink:href="#DejaVuSans-6f" x="684.033203"/>
     <use xlink:href="#DejaVuSans-6e" x="745.214844"/>
     <use xlink:href="#DejaVuSans-20" x="808.59375"/>
     <use xlink:href="#DejaVuSans-62" x="840.380859"/>
     <use xlink:href="#DejaVuSans-79" x="903.857422"/>
     <use xlink:href="#DejaVuSans-20" x="963.037109"/>
     <use xlink:href="#DejaVuSans-43" x="994.824219"/>
     <use xlink:href="#DejaVuSans-6f" x="1064.648438"/>
     <use xlink:href="#DejaVuSans-6e" x="1125.830078"/>
     <use xlink:href="#DejaVuSans-64" x="1189.208984"/>
     <use xlink:href="#DejaVuSans-69" x="1252.685547"/>
     <use xlink:href="#DejaVuSans-74" x="1280.46875"/>
     <use xlink:href="#DejaVuSans-69" x="1319.677734"/>
     <use xlink:href="#DejaVuSans-6f" x="1347.460938"/>
     <use xlink:href="#DejaVuSans-6e" x="1408.642578"/>
     <use xlink:href="#DejaVuSans-73" x="1472.021484"/>
    </g>
   </g>
  </g>
 </g>
 <defs>
  <clipPath id="p89c14a81bb">
   <rect x="54" y="38.88" width="334.8" height="249.48"/>
  </clipPath>
 </defs>
</svg>
